<?xml version="1.0" encoding="utf-8"?>
<!-- Generator: Adobe Illustrator 21.1.0, SVG Export Plug-In . SVG Version: 6.00 Build 0)  -->
<svg version="1.1" id="Layer_1" xmlns="http://www.w3.org/2000/svg" xmlns:xlink="http://www.w3.org/1999/xlink" x="0px" y="0px"
	 viewBox="0 0 40 40" enable-background="new 0 0 40 40" xml:space="preserve">
<g id="XMLID_21_">
	<path id="XMLID_31_" fill="#FFFFFF" d="M13.8,17.8v-5c0-0.2-0.1-0.3-0.3-0.3h-2.8c-0.2,0-0.3,0.1-0.3,0.3v5c0,0.2,0.1,0.3,0.3,0.3
		h2.8C13.7,18.1,13.8,18,13.8,17.8z M13.2,17.5H11v-4.4h2.2V17.5z"/>
	<g>
		<polygon fill="none" points="19.9,19.3 18.5,18.7 18.7,20.1 19.9,20.9 		"/>
		<path fill="none" d="M17.9,17.8c0.1-0.1,0.3-0.1,0.4,0l1.7,0.7V8.6L15,12.9v4.7l2.8,1.9l-0.2-1.4C17.7,18,17.7,17.9,17.9,17.8z"/>
		<path fill="#FFFFFF" d="M19.9,19.3v-0.8l-1.7-0.7c-0.1-0.1-0.3,0-0.4,0c-0.1,0.1-0.2,0.2-0.1,0.4l0.2,1.4l0.8,0.5l0,0l-0.2-1.4
			L19.9,19.3z"/>
		<path fill="#FFFFFF" d="M29.5,29.2l-2.9-3.9l2.8-2.1c0.1-0.1,0.2-0.2,0.1-0.3c0-0.1-0.1-0.2-0.2-0.3l-8.8-3.8v0.8l7.9,3.4
			l-2.6,1.9c-0.1,0.1-0.1,0.1-0.1,0.2c0,0.1,0,0.2,0.1,0.3l2.9,3.9l-2.8,2.1L23,27.6c-0.1-0.1-0.2-0.2-0.3-0.2c-0.1,0-0.2,0-0.2,0.1
			l-2.6,1.9l-1.1-8.5L18,20.3l1.2,9.8c0,0.1,0.1,0.2,0.2,0.3c0.1,0.1,0.3,0,0.4,0l2.8-2.1l2.9,3.9c0.1,0.1,0.2,0.2,0.3,0.2
			c0.1,0,0.2,0,0.2-0.1l3.4-2.6c0.1-0.1,0.1-0.2,0.1-0.2C29.6,29.4,29.6,29.3,29.5,29.2z"/>
		<path fill="#FFFFFF" d="M15,17.6v-4.7l4.9-4.3v9.9l0.6,0.3V7.9c0-0.1-0.1-0.2-0.2-0.3c-0.1,0-0.2,0-0.3,0.1l-5.5,4.9
			c-0.1,0.1-0.1,0.1-0.1,0.2v5c0,0.1,0,0.2,0.1,0.2l3.4,2.3l-0.1-0.8L15,17.6z"/>
		<polygon fill="#FFFFFF" points="19.9,19.3 20.5,19.6 20.5,18.8 19.9,18.5 		"/>
		<polygon fill="#FFFFFF" points="18.7,20.1 18.7,20.1 17.9,19.5 18,20.3 18.8,20.9 		"/>
	</g>
	<path id="XMLID_25_" fill="#FFFFFF" d="M25,18.6c0,0.2,0.1,0.4,0.2,0.5c0.1,0.1,0.3,0.2,0.5,0.2c0.2,0,0.4-0.1,0.5-0.2
		c1.4-1.4,2.2-3.2,2.2-5.1s-0.8-3.8-2.2-5.1c-0.3-0.3-0.7-0.3-1,0c-0.3,0.3-0.3,0.7,0,1C26.4,11,27,12.4,27,14c0,1.6-0.6,3-1.7,4.1
		C25.1,18.2,25,18.4,25,18.6z M25.6,18.4c1.2-1.2,1.9-2.8,1.9-4.4c0-1.7-0.7-3.3-1.9-4.4c-0.1-0.1-0.1-0.2,0-0.3
		c0,0,0.1-0.1,0.2-0.1c0.1,0,0.1,0,0.2,0.1c1.3,1.3,2,3,2,4.8c0,1.8-0.7,3.5-2,4.8c-0.1,0.1-0.2,0.1-0.3,0c0,0-0.1-0.1-0.1-0.2
		C25.5,18.5,25.5,18.5,25.6,18.4z"/>
	<path id="XMLID_22_" fill="#FFFFFF" d="M22.2,16.9c0,0.2,0.1,0.4,0.2,0.5c0.1,0.1,0.3,0.2,0.5,0.2c0,0,0,0,0,0
		c0.2,0,0.4-0.1,0.5-0.2c1-0.9,1.5-2.1,1.5-3.5c0-1.3-0.5-2.5-1.5-3.5c-0.1-0.1-0.3-0.2-0.5-0.2c-0.2,0-0.4,0.1-0.5,0.2
		c-0.1,0.1-0.2,0.3-0.2,0.5c0,0.2,0.1,0.4,0.2,0.5c0.7,0.6,1,1.5,1,2.4c0,0.9-0.4,1.8-1,2.4C22.3,16.5,22.2,16.7,22.2,16.9z
		 M22.7,16.7c0.8-0.7,1.2-1.7,1.2-2.8s-0.4-2-1.2-2.8c0,0-0.1-0.1-0.1-0.2c0-0.1,0-0.1,0.1-0.2c0,0,0.1-0.1,0.2-0.1c0,0,0,0,0,0
		c0.1,0,0.1,0,0.2,0.1c0.9,0.8,1.3,1.9,1.3,3.1c0,1.2-0.5,2.3-1.3,3.1c0,0-0.1,0.1-0.2,0.1c-0.1,0-0.1,0-0.2-0.1
		c0,0-0.1-0.1-0.1-0.2C22.7,16.8,22.7,16.8,22.7,16.7z"/>
</g>
</svg>

