<svg width="12" height="20" viewBox="0 0 12 20" fill="none" xmlns="http://www.w3.org/2000/svg">
    <path d="M0.5 9.99469C0.5 10.3575 0.636338 10.6648 0.942702 10.9517L9.75705 19.1302C10.0042 19.3735 10.3119 19.4912 10.677 19.4912C11.4155 19.4912 12 18.9474 12 18.2525C12 17.9021 11.843 17.5947 11.593 17.3525L3.64369 9.99268L11.593 2.63684C11.8451 2.3927 12 2.07839 12 1.73877C12 1.04193 11.4155 0.5 10.677 0.5C10.3098 0.5 10.0042 0.617784 9.75705 0.852278L0.942702 9.03758C0.638373 9.31563 0.502035 9.62993 0.5 9.99469Z" fill="#4A4964"/>
</svg>
