<svg width="41" height="47" viewBox="0 0 41 47" fill="none" xmlns="http://www.w3.org/2000/svg">
<path d="M4.19239 21.0895C3.39855 21.0921 2.62157 21.3586 1.95132 21.8583C1.28108 22.3579 0.744964 23.0702 0.40501 23.9127C0.0650557 24.7552 -0.064848 25.6936 0.0303276 26.6193C0.125503 27.5449 0.441868 28.42 0.942823 29.1432L11.622 44.5079C12.0028 45.0632 12.4908 45.5038 13.0457 45.793C13.6005 46.0823 14.2061 46.2119 14.8122 46.1711C16.1084 46.0893 17.2787 45.2749 18.0248 43.9359L40.2081 1.97565C40.2118 1.96864 40.2156 1.96171 40.2195 1.95487C40.4276 1.57952 40.3601 0.835667 39.9305 0.368371C39.8125 0.240045 39.6733 0.141456 39.5216 0.078674C39.3699 0.0158919 39.2089 -0.00975367 39.0485 0.00331725C38.888 0.0163882 38.7316 0.0678989 38.5887 0.154676C38.4458 0.241454 38.3196 0.361661 38.2178 0.507895C38.2099 0.519392 38.2017 0.530716 38.1932 0.541867L15.821 30.2298C15.7359 30.3428 15.6325 30.4348 15.5169 30.5004C15.4012 30.5661 15.2756 30.6041 15.1473 30.6122C15.0191 30.6204 14.8907 30.5985 14.7697 30.5479C14.6487 30.4973 14.5375 30.4189 14.4425 30.3174L7.01755 22.3817C6.24641 21.5514 5.23851 21.0904 4.19239 21.0895Z" fill="white"/>
</svg>
