<svg width="20" height="21" viewBox="0 0 20 21" fill="none" xmlns="http://www.w3.org/2000/svg">
<path d="M0.625 3.53543H10.1408C10.4276 4.84086 11.5934 5.8209 12.9837 5.8209C14.374 5.8209 15.5398 4.8409 15.8266 3.53543H19.375C19.7202 3.53543 20 3.25559 20 2.91043C20 2.56527 19.7202 2.28543 19.375 2.28543H15.8263C15.5389 0.980664 14.3716 0 12.9837 0C11.5951 0 10.4283 0.980508 10.1411 2.28543H0.625C0.279844 2.28543 0 2.56527 0 2.91043C0 3.25559 0.279844 3.53543 0.625 3.53543ZM11.3233 2.91207L11.3234 2.90535C11.3261 1.99258 12.0709 1.25004 12.9837 1.25004C13.8952 1.25004 14.6401 1.99156 14.644 2.90391L14.6441 2.91309C14.6427 3.82742 13.8984 4.57094 12.9837 4.57094C12.0694 4.57094 11.3254 3.82816 11.3233 2.91438L11.3233 2.91207ZM19.375 16.4839H15.8263C15.5389 15.1792 14.3716 14.1985 12.9837 14.1985C11.5951 14.1985 10.4283 15.179 10.1411 16.4839H0.625C0.279844 16.4839 0 16.7637 0 17.1089C0 17.4541 0.279844 17.7339 0.625 17.7339H10.1408C10.4276 19.0393 11.5934 20.0194 12.9837 20.0194C14.374 20.0194 15.5398 19.0393 15.8266 17.7339H19.375C19.7202 17.7339 20 17.4541 20 17.1089C20 16.7637 19.7202 16.4839 19.375 16.4839ZM12.9837 18.7694C12.0694 18.7694 11.3254 18.0266 11.3233 17.1128L11.3233 17.1105L11.3234 17.1038C11.3261 16.1911 12.0709 15.4485 12.9837 15.4485C13.8952 15.4485 14.6401 16.19 14.644 17.1023L14.6441 17.1115C14.6428 18.0259 13.8985 18.7694 12.9837 18.7694ZM19.375 9.38469H9.85918C9.57238 8.07926 8.4066 7.09926 7.01629 7.09926C5.62598 7.09926 4.4602 8.07926 4.1734 9.38469H0.625C0.279844 9.38469 0 9.66453 0 10.0097C0 10.3549 0.279844 10.6347 0.625 10.6347H4.17371C4.46109 11.9394 5.62844 12.9201 7.01629 12.9201C8.40488 12.9201 9.57172 11.9396 9.85895 10.6347H19.375C19.7202 10.6347 20 10.3549 20 10.0097C20 9.66453 19.7202 9.38469 19.375 9.38469ZM8.67668 10.008L8.67664 10.0148C8.67391 10.9275 7.9291 11.6701 7.01629 11.6701C6.10477 11.6701 5.35992 10.9286 5.35598 10.0162L5.35586 10.0071C5.35723 9.09266 6.10156 8.34926 7.01629 8.34926C7.93059 8.34926 8.67465 9.09199 8.67672 10.0058L8.67668 10.008Z" fill="black"/>
</svg>
