<svg width="22" height="30" viewBox="0 0 22 30" fill="none" xmlns="http://www.w3.org/2000/svg">
<path d="M21.809 10.4361L9.80902 29.4361C9.70902 29.7361 9.30902 29.9361 9.00902 29.9361C8.90902 29.9361 8.80902 29.9361 8.70902 29.8361C8.30902 29.6361 8.00902 29.2361 8.10902 28.7361L9.80902 15.9361H1.00902C0.609017 15.9361 0.309017 15.7361 0.109017 15.4361C-0.090983 15.1361 0.00901693 14.7361 0.209017 14.4361L10.209 0.436068C10.509 0.036068 10.909 -0.063932 11.309 0.036068C11.709 0.136068 12.009 0.536068 12.009 0.936068V8.93607H21.009C21.409 8.93607 21.709 9.13607 21.909 9.43607C22.009 9.73607 22.009 10.1361 21.809 10.4361Z" fill="#FDF4CC"/>
</svg>
