<?xml version="1.0" encoding="utf-8"?>
<!-- Generator: Adobe Illustrator 26.4.1, SVG Export Plug-In . SVG Version: 6.00 Build 0)  -->
<svg version="1.1" id="Layer_1" xmlns="http://www.w3.org/2000/svg" xmlns:xlink="http://www.w3.org/1999/xlink" x="0px" y="0px"
	 viewBox="0 0 24 24" style="enable-background:new 0 0 24 24;" xml:space="preserve">
<style type="text/css">
	.st0{fill:#575757;}
</style>
<path class="st0" d="M20.5,11H19V7c0-1.1-0.9-2-2-2h-4V3.5C13,2.1,11.9,1,10.5,1S8,2.1,8,3.5V5H4C2.9,5,2,5.9,2,7v3.8h1.5
	c1.5,0,2.7,1.2,2.7,2.7S5,16.2,3.5,16.2H2V20c0,1.1,0.9,2,2,2h3.8v-1.5c0-1.5,1.2-2.7,2.7-2.7s2.7,1.2,2.7,2.7V22H17
	c1.1,0,2-0.9,2-2v-4h1.5c1.4,0,2.5-1.1,2.5-2.5S21.9,11,20.5,11z"/>
</svg>
