<?xml version="1.0" encoding="utf-8"?>
<!-- Generator: Adobe Illustrator 21.1.0, SVG Export Plug-In . SVG Version: 6.00 Build 0)  -->
<svg version="1.1" id="Layer_1" xmlns="http://www.w3.org/2000/svg" xmlns:xlink="http://www.w3.org/1999/xlink" x="0px" y="0px"
	 viewBox="0 0 40 40" enable-background="new 0 0 40 40" xml:space="preserve">
<g id="XMLID_28468_">
	<path id="XMLID_28490_" fill="#FFFFFF" d="M17,13.4c0.5,0,0.9-0.4,0.9-0.9V9c0-0.5-0.4-0.9-0.9-0.9c-0.5,0-0.9,0.4-0.9,0.9v3.4
		C16.1,13,16.5,13.4,17,13.4z M16.6,9c0-0.2,0.2-0.4,0.4-0.4c0.2,0,0.4,0.2,0.4,0.4v3.4c0,0.2-0.2,0.4-0.4,0.4
		c-0.2,0-0.4-0.2-0.4-0.4V9z"/>
	<path id="XMLID_28487_" fill="#FFFFFF" d="M16.1,22.4c0,0.5,0.4,0.9,0.9,0.9c0.5,0,0.9-0.4,0.9-0.9V19c0-0.5-0.4-0.9-0.9-0.9
		c-0.5,0-0.9,0.4-0.9,0.9V22.4z M16.6,19c0-0.2,0.2-0.4,0.4-0.4c0.2,0,0.4,0.2,0.4,0.4v3.4c0,0.2-0.2,0.4-0.4,0.4
		c-0.2,0-0.4-0.2-0.4-0.4V19z"/>
	<path id="XMLID_28484_" fill="#FFFFFF" d="M21.7,10c-0.3,0-0.5,0.1-0.7,0.3l-2.4,2.4c-0.2,0.2-0.3,0.4-0.3,0.7
		c0,0.3,0.1,0.5,0.3,0.7c0.2,0.2,0.4,0.3,0.7,0.3c0.3,0,0.5-0.1,0.7-0.3l2.4-2.4c0.2-0.2,0.3-0.4,0.3-0.7c0-0.3-0.1-0.5-0.3-0.7
		C22.2,10.1,22,10,21.7,10z M19.1,13.7c-0.1-0.1-0.1-0.2-0.1-0.3c0-0.1,0-0.2,0.1-0.3l2.4-2.4c0.1-0.1,0.2-0.1,0.3-0.1
		c0.1,0,0.2,0,0.3,0.1c0.1,0.1,0.1,0.2,0.1,0.3c0,0.1,0,0.2-0.1,0.3l-2.4,2.4C19.4,13.8,19.2,13.8,19.1,13.7z"/>
	<path id="XMLID_28481_" fill="#FFFFFF" d="M15.6,18c0-0.3-0.1-0.5-0.3-0.7c-0.4-0.4-1-0.4-1.3,0l-2.4,2.4c-0.2,0.2-0.3,0.4-0.3,0.7
		c0,0.3,0.1,0.5,0.3,0.7c0.2,0.2,0.4,0.3,0.7,0.3c0.3,0,0.5-0.1,0.7-0.3l2.4-2.4C15.5,18.5,15.6,18.3,15.6,18z M15,18.3l-2.4,2.4
		c-0.1,0.1-0.4,0.1-0.5,0c-0.1-0.1-0.1-0.2-0.1-0.3c0-0.1,0-0.2,0.1-0.3l2.4-2.4c0.1-0.1,0.2-0.1,0.3-0.1c0.1,0,0.2,0,0.3,0.1
		c0.1,0.1,0.1,0.2,0.1,0.3C15.1,18.1,15,18.2,15,18.3z"/>
	<path id="XMLID_28478_" fill="#FFFFFF" d="M19.3,15.7c0,0.5,0.4,0.9,0.9,0.9h3.4c0.5,0,0.9-0.4,0.9-0.9c0-0.5-0.4-0.9-0.9-0.9h-3.4
		C19.8,14.8,19.3,15.2,19.3,15.7z M24.1,15.7c0,0.2-0.2,0.4-0.4,0.4h-3.4c-0.2,0-0.4-0.2-0.4-0.4c0-0.2,0.2-0.4,0.4-0.4h3.4
		C23.9,15.3,24.1,15.5,24.1,15.7z"/>
	<path id="XMLID_28475_" fill="#FFFFFF" d="M10.3,16.7h3.4c0.5,0,0.9-0.4,0.9-0.9c0-0.5-0.4-0.9-0.9-0.9h-3.4
		c-0.5,0-0.9,0.4-0.9,0.9C9.4,16.2,9.8,16.7,10.3,16.7z M10.3,15.3h3.4c0.2,0,0.4,0.2,0.4,0.4c0,0.2-0.2,0.4-0.4,0.4h-3.4
		c-0.2,0-0.4-0.2-0.4-0.4C9.9,15.5,10.1,15.3,10.3,15.3z"/>
	<path id="XMLID_28472_" fill="#FFFFFF" d="M14,14.1c0.2,0.2,0.4,0.3,0.7,0.3c0.3,0,0.5-0.1,0.7-0.3c0.2-0.2,0.3-0.4,0.3-0.7
		c0-0.3-0.1-0.5-0.3-0.7l-2.4-2.4c-0.4-0.4-1-0.4-1.3,0c-0.2,0.2-0.3,0.4-0.3,0.7c0,0.3,0.1,0.5,0.3,0.7L14,14.1z M12,10.7
		c0.1-0.1,0.2-0.1,0.3-0.1c0.1,0,0.2,0,0.3,0.1l2.4,2.4c0.1,0.1,0.1,0.2,0.1,0.3c0,0.1,0,0.2-0.1,0.3c-0.1,0.1-0.4,0.1-0.5,0
		L12,11.3c-0.1-0.1-0.1-0.2-0.1-0.3C11.9,10.9,11.9,10.8,12,10.7z"/>
	<path id="XMLID_28469_" fill="#FFFFFF" d="M30.6,22.4c0-0.1-0.1-0.2-0.2-0.3l-11.1-4.8c-0.1-0.1-0.3,0-0.4,0
		c-0.1,0.1-0.2,0.2-0.1,0.4l1.5,12c0,0.1,0.1,0.2,0.2,0.3c0.1,0.1,0.3,0,0.4,0l2.8-2.1l2.9,3.9c0.1,0.1,0.2,0.2,0.3,0.2
		c0.1,0,0.2,0,0.2-0.1l3.4-2.6c0.1-0.1,0.1-0.2,0.1-0.2c0-0.1,0-0.2-0.1-0.3l-2.9-3.9l2.8-2.1C30.5,22.7,30.6,22.6,30.6,22.4z
		 M26.9,24.5c-0.1,0.1-0.1,0.1-0.1,0.2c0,0.1,0,0.2,0.1,0.3l2.9,3.9L26.9,31L24,27.1C23.9,27,23.8,27,23.7,27c-0.1,0-0.2,0-0.2,0.1
		L20.9,29l-1.4-10.7l9.9,4.3L26.9,24.5z"/>
</g>
</svg>
