<svg width="20" height="25" viewBox="0 0 20 25" fill="none" xmlns="http://www.w3.org/2000/svg">
<rect x="4.5" y="6.5" width="11" height="13" rx="0.5" stroke="black"/>
<path d="M9.5 9.5C9.5 9.22386 9.72386 9 10 9C10.2761 9 10.5 9.22386 10.5 9.5V16.5C10.5 16.7761 10.2761 17 10 17C9.72386 17 9.5 16.7761 9.5 16.5V9.5Z" fill="black"/>
<path d="M12 9.5C12 9.22386 12.2239 9 12.5 9C12.7761 9 13 9.22386 13 9.5V16.5C13 16.7761 12.7761 17 12.5 17C12.2239 17 12 16.7761 12 16.5V9.5Z" fill="black"/>
<path d="M7 9.5C7 9.22386 7.22386 9 7.5 9C7.77614 9 8 9.22386 8 9.5V16.5C8 16.7761 7.77614 17 7.5 17C7.22386 17 7 16.7761 7 16.5V9.5Z" fill="black"/>
<rect x="2" y="6" width="16" height="1" rx="0.5" fill="black"/>
<rect x="8" y="3" width="4" height="1" rx="0.5" fill="black"/>
<path d="M8.27639 3C8.60884 3 8.82507 3.34986 8.67639 3.64721L7.12361 6.75279C7.04785 6.9043 6.893 7 6.72361 7C6.39116 7 6.17493 6.65014 6.32361 6.35279L7.87639 3.24721C7.95215 3.0957 8.107 3 8.27639 3Z" fill="black"/>
<path d="M11.7236 3C11.3912 3 11.1749 3.34986 11.3236 3.64721L12.8764 6.75279C12.9521 6.9043 13.107 7 13.2764 7C13.6088 7 13.8251 6.65014 13.6764 6.35279L12.1236 3.24721C12.0479 3.0957 11.893 3 11.7236 3Z" fill="black"/>
</svg>
