<?xml version="1.0" encoding="utf-8"?>
<!-- Generator: Adobe Illustrator 21.1.0, SVG Export Plug-In . SVG Version: 6.00 Build 0)  -->
<svg version="1.1" id="Layer_1" xmlns="http://www.w3.org/2000/svg" xmlns:xlink="http://www.w3.org/1999/xlink" x="0px" y="0px"
	 viewBox="0 0 107.8 109.5" enable-background="new 0 0 107.8 109.5" xml:space="preserve">
<g>
	<path fill="#FFFFFF" d="M47.2,90.2c-2.5,0-4.8-1-6.5-2.7L20.3,67.1c-1.7-1.7-2.7-4.1-2.7-6.5c0-2.5,1-4.8,2.7-6.5l33.8-33.8
		c1.7-1.7,4.1-2.7,6.5-2.7s4.8,1,6.5,2.7l20.3,20.3c1.7,1.7,2.7,4.1,2.7,6.5c0,2.5-1,4.8-2.7,6.5L53.7,87.5
		C51.9,89.2,49.6,90.2,47.2,90.2z M60.6,20c-1.7,0-3.5,0.7-4.8,2L22,55.8c-2.6,2.6-2.6,7,0,9.6l20.3,20.3c2.7,2.6,7,2.6,9.6,0
		L85.7,52c2.6-2.6,2.6-7,0-9.6L65.4,22C64.1,20.7,62.3,20,60.6,20z"/>
	
		<rect x="41.8" y="42.4" transform="matrix(0.7071 -0.7071 0.7071 0.7071 -33.2219 49.3691)" fill="#FFFFFF" width="2.4" height="44.8"/>
	<path fill="#FFFFFF" d="M91.2,91.9H16.5c-0.7,0-1.2-0.5-1.2-1.2c0-0.7,0.5-1.2,1.2-1.2h74.7c0.7,0,1.2,0.5,1.2,1.2
		C92.5,91.3,91.9,91.9,91.2,91.9z"/>
</g>
</svg>
