<?xml version="1.0" encoding="UTF-8"?>
<svg id="Layer_1" xmlns="http://www.w3.org/2000/svg" version="1.1" viewBox="0 0 127.56 127.56">
  <!-- Generator: Adobe Illustrator 29.5.1, SVG Export Plug-In . SVG Version: 2.1.0 Build 141)  -->
  <defs>
    <style>
      .st0 {
        fill: #d7141a;
      }

      .st1 {
        fill: #eaeaea;
      }

      .st2 {
        fill: #5c5c5c;
      }

      .st3 {
        fill: #11457e;
      }

      .st4 {
        fill: #ffbb54;
      }
    </style>
  </defs>
  <path class="st4" d="M110.26,74.31c-9.35-24.43-41.61-30.3-58.73-10.76-11.92,13.59-12.49,35.02-1.37,49.56,2.78,3.61,11.68,7.3,16.02-.82-.71-.75-1.46-.95-4.75-3.45-.74,2.99-6.03,3.37-7.4-.66-1.45-4.27.85-8.38,5.2-9.36,1.65-.37,3.26-.7,4.91-1.03,3.34-.7,5.52.9,5.92,4.31.56,4.68,1.09,9.36,1.69,14.04.44,3.33,1.85,4.56,5.16,4.84,3.87.33,7.73.74,11.6,1.11,2.5.25,3.71-.57,4.03-3.08.97-7.23,1.85-14.49,2.74-21.76.16-1.31.52-2.38,2.01-2.26,1.61.16,1.73,1.44,1.53,2.79-.16,1.07-.28,2.18-.4,3.24-.85,7.06-1.69,14.08-2.58,21.23,3.22,1.23,5.72.53,7.45-2.05,1.29-1.93,2.58-3.86,3.59-5.91,6.36-12.85,8.66-26.15,3.38-39.99ZM72.76,81.98c-1.13,0-2.01-.94-2.01-2.05s.93-2.05,2.01-2.05,2.01.94,2.01,2.05-.93,2.05-2.01,2.05ZM84.89,88.88c-1.13.94-1.17.9-2.38-.49,6.97-8.58,8.54-18.11,5.48-28.58,2.82,3.12,4.23,6.9,4.51,10.96.52,7.35-2.05,13.43-7.61,18.11Z"/>
  <rect class="st2" x="44.72" y="54.54" width="4.38" height="69.97" transform="translate(-37.02 33.22) rotate(-28.49)"/>
  <path class="st4" d="M59.23,98.82c1.3-.29,2.58-.56,3.87-.82v-23.33h-18.25c-3.95,10.26-3.5,22.15,1.43,32.16h7.42c-.6-3.75,1.64-7.13,5.53-8.01Z"/>
  <g>
    <path class="st0" d="M61.1,4.75l17.94,33.06s-.24,8.37-26,15.75c-14.21,4.07-20.7,13.72-20.7,13.72L14.37,34.16s4.48-11.29,29.26-15.36c10.35-1.7,17.47-14.06,17.47-14.06Z"/>
    <path class="st1" d="M46.83,36.03c11.99-3.97,19.9-8.72,23.38-14.68l-9.03-16.64s-6.45,9.72-18.91,12.96c-24.31,6.33-27.82,16.45-27.82,16.45l9.04,16.66c4.51-4.41,12.74-11.25,23.34-14.75Z"/>
    <path class="st3" d="M14.37,34.16l17.97,33.11s3.46-17.58,14.49-31.25c0,0-21.85-5.63-32.46-1.86Z"/>
  </g>
</svg>