<svg width="71" height="71" viewBox="0 0 71 71" fill="none" xmlns="http://www.w3.org/2000/svg">
<path d="M68.0725 22.4526C58.727 -1.97718 26.4607 -7.84855 9.34061 11.6953C-2.58301 25.2857 -3.14697 46.7182 7.971 61.2529C10.7505 64.8661 13.9731 68.0276 17.5582 70.2858C18.7667 69.1362 19.8141 68.1508 20.9822 67.0422C20.3377 66.6316 19.7335 66.2621 19.1293 65.8515C15.6247 63.5112 13.2077 60.3497 11.8381 56.3259C10.388 52.0558 12.6841 47.95 17.0346 46.9646C18.6861 46.595 20.2974 46.2666 21.949 45.9381C25.2925 45.2401 27.4677 46.8414 27.8706 50.2493C28.4345 54.9299 28.9582 59.6106 29.5624 64.2913C30.0055 67.617 31.4154 68.8488 34.7186 69.1362C38.5857 69.4646 42.4528 69.8752 46.3199 70.2448C48.8175 70.4911 50.0259 69.6699 50.3482 67.1654C51.315 59.9391 52.2012 52.6717 53.0874 45.4044C53.2485 44.0905 53.6111 43.023 55.1015 43.1461C56.7128 43.3104 56.8337 44.5832 56.6323 45.9381C56.4711 47.0056 56.3503 48.1142 56.2294 49.1817C55.3835 56.2438 54.5376 63.2648 53.6514 70.409C56.874 71.6407 59.3715 70.9427 61.1036 68.3561C62.3927 66.4263 63.6817 64.4966 64.6888 62.4436C71.0534 49.5923 73.3495 36.2894 68.0725 22.4526ZM30.5695 30.1306C29.4416 30.1306 28.5554 29.1862 28.5554 28.0777C28.5554 26.9691 29.4819 26.0247 30.5695 26.0247C31.6571 26.0247 32.5836 26.9691 32.5836 28.0777C32.5836 29.1862 31.6571 30.1306 30.5695 30.1306ZM42.6945 37.0284C41.5666 37.9728 41.5263 37.9317 40.3178 36.5357C47.2867 27.9545 48.8577 18.4289 45.7963 7.95898C48.616 11.0794 50.0259 14.8568 50.3079 18.9216C50.8316 26.2711 48.2535 32.3477 42.6945 37.0284Z" fill="white"/>
</svg>
