<svg xmlns="http://www.w3.org/2000/svg" xml:space="preserve" width="800" height="800" viewBox="0 0 512.001 512.001"><path d="m325.41 387.438.447-.21c4.31-2.026 8.583-4.085 11.428-5.507l1.154-.577.065-1.288c1.138-22.331 10.24-34.299 17.554-43.913 3.374-4.444 6.56-8.64 8.499-13.306l.718-1.728-1.586-.993c-26.011-16.307-51.003-17.612-80.971-17.624l-2.603-.001.42 2.57c2.436 14.891 10.49 29.987 18.278 44.585 6.83 12.785 13.28 24.859 15.528 36.213l.353 1.781h10.716z" style="fill:#000"/><path d="M282.717 304.5c2.366 14.464 10.306 29.393 18.047 43.902 6.888 12.894 13.446 25.202 15.746 36.824h8.405c4.09-1.923 8.438-4.014 11.379-5.485 1.17-22.99 10.449-35.21 18.002-45.139 3.418-4.501 6.403-8.45 8.217-12.817-25.19-15.791-49.12-17.273-79.796-17.285m-196.83 82.938 33.764-25.324a6.1 6.1 0 0 1 2.06-1.005c36.493-9.857 48.268-55.504 48.753-57.443a6 6 0 0 1 .303-.931l.634-1.514-1.264-1.045c-14.954-12.358-26.11-26.522-33.155-42.101l-.42-.929-.98-.284c-4.051-1.174-10-3.259-15.34-6.529l-2.353-1.443-.895 2.612c-3.748 10.944-5.506 35.192-5.306 53.487a6.1 6.1 0 0 1-1.397 3.943c-13.247 16.042-22.402 34.175-30.48 50.173-4.674 9.249-9.09 17.987-13.72 24.889l-2.31 3.444z" style="fill:#000"/><path d="M67.93 385.226h17.22l33.175-24.881a8.3 8.3 0 0 1 2.809-1.37c35.575-9.61 47.075-55.403 47.186-55.845a8 8 0 0 1 .409-1.25c-12.22-10.097-25.335-24.263-33.761-42.895-4.202-1.218-10.34-3.374-15.88-6.768-3.493 10.206-5.397 33.496-5.185 52.747a8.3 8.3 0 0 1-1.902 5.374c-13.05 15.802-22.172 33.84-30.211 49.763-4.801 9.5-9.191 18.169-13.858 25.125" style="fill:#000"/><path d="M240.895 387.438a9 9 0 0 0 6.38-2.632 8.96 8.96 0 0 0 2.645-6.381v-20.293a6 6 0 0 1 .944-3.241c36.114-56.99 2.048-97.203.579-98.888-2.214-2.512-1.976-6.359.522-8.582a6.09 6.09 0 0 1 8.587.523c.44.497 10.829 12.338 16.058 32.356a90 90 0 0 1 1.726 8.231l.386 2.384 2.34-.594a6 6 0 0 1 1.482-.198c41.044 0 72.98 2.654 110.28 37.003 21.945 20.2 56.756 33.77 75.5 33.77a6.09 6.09 0 0 1 6.082 6.082v20.458h7.49l14.679-36.682-14.855-14.855a6.14 6.14 0 0 1-1.518-2.527c-12.73-41.576-52.956-153.799-85.783-173.49-12.98-7.791-50.608-18.657-82.4-18.657-7.23 0-13.77.574-19.437 1.709-8.452 1.691-16.434 2.549-23.723 2.549-19.303 0-31.443-5.725-43.185-11.261-10.125-4.768-18.841-8.87-31.596-8.87-9.88 0-17.031 4.753-23.948 9.349-6.216 4.119-12.592 8.345-20.285 8.345-9.647 0-16.48-2.529-22.51-4.762-3.006-1.107-6.111-2.25-9.541-3.034l-2.352-.536-.332 2.39c-.92 6.636-4.231 11.762-4.371 11.977a6.1 6.1 0 0 1-5.171 2.834 6 6 0 0 1-3.246-.951c-2.83-1.816-3.661-5.575-1.861-8.382 1.15-1.864 3.758-7.508 2.274-11.574-.942-2.56-3.586-4.563-7.861-5.955-.996-.325-1.881-.484-2.705-.484-1.862 0-3.006.834-3.703 1.46-2.77 2.472-3.946 7.281-3.508 9.376.828 3.335-1.16 6.647-4.411 7.464a6.06 6.06 0 0 1-6.49-2.481l-1.073-1.581-1.72.832c-31.39 15.179-32.552 29.079-33.322 38.276-.122 1.391-.23 2.615-.405 3.815-.288 1.915-1.166 7.753-20.402 19.139l-1.522.9 4.918 15.216 1.209.29c3.954.945 10.972 2.072 21.945 2.072 6.883 0 19.693 0 28.633 8.259l.636.587h32.989c7.168 0 13.396-5.105 14.809-12.138l3.67-18.359a6.09 6.09 0 0 1 7.154-4.769 6.04 6.04 0 0 1 3.87 2.593 6.02 6.02 0 0 1 .897 4.554l-3.673 18.372c-1.225 6.133-4.584 11.712-9.453 15.709l-2.036 1.672 1.999 1.716c3.875 3.327 11.743 6.817 19.133 8.486a6.12 6.12 0 0 1 4.332 3.671c15.739 39.108 56.917 57.825 58.662 58.603a6.09 6.09 0 0 1 3.658 4.92l8.247 74.206h23.68v.009z" style="fill:#000"/><path d="m18.257 202.776 3.992 12.352c3.605.861 10.46 2.012 21.43 2.012 6.912 0 20.558 0 30.135 8.847h32.124c6.115 0 11.434-4.356 12.64-10.361l3.67-18.358c.898-4.49 5.265-7.397 9.754-6.502 4.49.896 7.409 5.264 6.502 9.753l-3.671 18.367c-1.37 6.856-5.087 12.773-10.217 16.986 3.438 2.953 10.88 6.359 18.179 8.006a8.33 8.33 0 0 1 5.894 4.998c15.603 38.772 57.116 57.238 57.514 57.415a8.27 8.27 0 0 1 4.954 6.702l8.028 72.232h21.708a6.8 6.8 0 0 0 4.82-1.99 6.77 6.77 0 0 0 1.99-4.81v-20.293c0-1.57.443-3.107 1.295-4.434 35.199-55.545 2.279-94.516.774-96.241-3.02-3.428-2.698-8.647.718-11.688 3.429-3.03 8.67-2.72 11.712.708.452.509 11.19 12.772 16.543 33.263a93 93 0 0 1 1.769 8.438 8.2 8.2 0 0 1 2.024-.265c41.546 0 73.892 2.698 111.778 37.587 21.564 19.85 55.679 33.186 74.002 33.186a8.297 8.297 0 0 1 8.294 8.294v18.246h3.782l13.58-33.937-13.823-13.823a8.3 8.3 0 0 1-2.068-3.439C465.42 292.67 425.5 181.112 393.277 161.782c-16.123-9.676-68.317-23.068-100.266-16.676-34.712 6.945-52.55-1.46-68.285-8.88-9.864-4.643-18.38-8.659-30.654-8.659-9.201 0-15.77 4.357-22.725 8.979-6.458 4.28-13.126 8.714-21.508 8.714-10.008 0-17.063-2.599-23.278-4.899-3.153-1.161-6.071-2.223-9.267-2.953-.941 6.779-4.17 12.054-4.712 12.883a8.33 8.33 0 0 1-7.022 3.837 8.2 8.2 0 0 1-4.445-1.305c-3.86-2.477-5-7.576-2.521-11.435 1.139-1.847 3.152-6.623 2.056-9.62-.861-2.344-3.991-3.804-6.47-4.611-2.476-.807-3.493-.156-4.245.52-2.267 2.024-3.074 6.059-2.82 7.276a8.307 8.307 0 0 1-6.038 10.063 8.29 8.29 0 0 1-8.86-3.384c-30.21 14.608-31.338 27.613-32.08 36.469-.12 1.371-.231 2.654-.42 3.948-.371 2.502-1.3 8.795-21.46 20.727" style="fill:#000"/><path d="M4.324 191.617C.83 193.52-.818 197.656.398 201.449l7.376 22.847a8.28 8.28 0 0 0 4.324 4.943c1.58.752 10.505 4.49 31.583 4.49 5.806 0 15.526 0 20.038 5.706a8.28 8.28 0 0 0 6.502 3.141h35.01c-7.221 15.504-7.93 47.696-7.93 59.56-13.225 16.654-22.67 35.342-30.321 50.492-8.106 16.023-16.488 32.599-23.3 32.599h-8.847a8.297 8.297 0 0 0-8.294 8.294 8.29 8.29 0 0 0 8.294 8.294h53.08a8.25 8.25 0 0 0 4.976-1.659l34.159-25.61c36.216-10.738 51.389-48.249 55.878-62.281a144 144 0 0 0 12.253 7.122l7.32 65.841h-8.425a8.297 8.297 0 0 0-8.294 8.294 8.29 8.29 0 0 0 8.294 8.294h46.82c6.249 0 12.132-2.432 16.544-6.844 4.423-4.423 6.856-10.296 6.856-16.543v-17.915c5.164-8.449 8.946-16.599 11.633-24.35 3.207 6.934 6.79 13.646 10.207 20.049 5.584 10.472 10.937 20.513 13.336 29.016h-16.93a8.297 8.297 0 0 0-8.294 8.294 8.29 8.29 0 0 0 8.294 8.294h44.233a8.2 8.2 0 0 0 3.517-.785s4.48-2.09 8.946-4.257a323 323 0 0 0 6.27-3.107c3.23-1.671 7.255-3.739 7.255-8.992 0-20.634 7.166-30.057 14.74-40.042 3.064-4.025 6.194-8.172 8.67-12.949a169 169 0 0 1 6.912 6.016c17.717 16.311 50.537 33.794 76.944 37.045v10.482h-.553a8.297 8.297 0 0 0-8.294 8.294 8.29 8.29 0 0 0 8.294 8.294h26.54a8.28 8.28 0 0 0 7.697-5.208l17.694-44.237a8.28 8.28 0 0 0-1.836-8.946l-16.244-16.244c-2.644-8.405-13.481-42.099-28.11-77.741-23.068-56.208-44.4-90.489-63.397-101.892-20.702-12.417-76.88-25.744-112.054-18.711-29.35 5.872-43.25-.686-57.968-7.619-10.682-5.033-21.73-10.241-37.72-10.241-14.21 0-24.02 6.514-31.892 11.744-4.811 3.197-8.968 5.949-12.341 5.949-7.044 0-11.91-1.79-17.538-3.87-5.417-2.002-11.455-4.223-19.572-4.82-2.654-3.251-6.835-6.447-13.392-8.593-7.764-2.532-15.14-1.028-20.78 4.224-2.3 2.134-4.057 4.677-5.351 7.365-46.721 19.927-48.59 41.878-49.598 53.721q-.083 1.03-.165 1.88c-2.292 2.667-10.83 8.517-19.123 13.04m17.925 23.511-3.992-12.352c20.159-11.932 21.088-18.224 21.464-20.723.188-1.294.3-2.577.42-3.948.74-8.858 1.869-21.862 32.08-36.469a8.29 8.29 0 0 0 8.859 3.384 8.307 8.307 0 0 0 6.038-10.063c-.254-1.218.553-5.253 2.82-7.276.752-.675 1.769-1.327 4.246-.52s5.607 2.267 6.469 4.611c1.095 2.997-.917 7.773-2.056 9.62-2.477 3.859-1.338 8.958 2.52 11.435a8.2 8.2 0 0 0 4.446 1.305 8.33 8.33 0 0 0 7.022-3.837c.542-.829 3.77-6.104 4.712-12.883 3.196.73 6.114 1.791 9.267 2.953 6.215 2.3 13.27 4.899 23.278 4.899 8.382 0 15.05-4.434 21.508-8.714 6.956-4.622 13.523-8.979 22.725-8.979 12.275 0 20.79 4.015 30.654 8.659 15.736 7.42 33.573 15.824 68.285 8.88 31.949-6.392 84.143 7 100.266 16.676 32.225 19.33 72.145 130.887 84.806 172.245a8.3 8.3 0 0 0 2.068 3.439l13.825 13.82-13.58 33.937h-3.782v-18.246a8.297 8.297 0 0 0-8.294-8.294c-18.324 0-52.44-13.336-74.002-33.186-37.886-34.889-70.232-37.587-111.778-37.587-.697 0-1.371.101-2.024.265a92 92 0 0 0-1.77-8.438c-5.351-20.491-16.09-32.755-16.542-33.263-3.041-3.428-8.283-3.738-11.712-.708-3.417 3.041-3.738 8.261-.718 11.688 1.504 1.725 34.425 40.696-.774 96.241a8.2 8.2 0 0 0-1.294 4.434v20.293a6.77 6.77 0 0 1-1.991 4.81 6.8 6.8 0 0 1-4.821 1.99h-21.708l-8.028-72.232a8.27 8.27 0 0 0-4.954-6.702c-.397-.177-41.91-18.643-57.514-57.415a8.33 8.33 0 0 0-5.894-4.998c-7.3-1.648-14.741-5.054-18.18-8.006 5.132-4.212 8.848-10.129 10.218-16.986l3.67-18.367c.908-4.491-2.012-8.859-6.501-9.753-4.49-.896-8.858 2.013-9.753 6.502l-3.67 18.358c-1.206 6.005-6.524 10.361-12.641 10.361H73.818c-9.577-8.847-23.223-8.847-30.134-8.847-10.973-.002-17.83-1.152-21.435-2.013m62.9 170.098H67.93c4.668-6.956 9.057-15.625 13.856-25.125 8.04-15.923 17.164-33.96 30.21-49.763a8.3 8.3 0 0 0 1.903-5.374c-.21-19.251 1.692-42.541 5.186-52.747 5.54 3.394 11.678 5.551 15.879 6.768 8.426 18.633 21.542 32.798 33.76 42.895-.165.397-.31.817-.408 1.25-.111.441-11.611 46.235-47.186 55.845a8.3 8.3 0 0 0-2.81 1.37zm215.617-36.824c-7.741-14.509-15.682-29.437-18.047-43.902 30.676.012 54.606 1.494 79.797 17.285-1.815 4.367-4.8 8.316-8.217 12.817-7.553 9.93-16.831 22.149-18.002 45.139-2.942 1.471-7.29 3.562-11.38 5.485h-8.404c-2.301-11.622-8.86-23.93-15.747-36.824" style="fill:#000"/></svg>