<svg xmlns="http://www.w3.org/2000/svg" xml:space="preserve" width="800" height="800" viewBox="0 0 512 512"><path d="M353.183 343.3c33.829 0 69.187-.2 97.019-2.598 38.16-3.28 45.657-9.425 47.108-11.915l.31-.533-.008-.616c-.028-1.725-.465-4.335-3.917-7.068-6.072-4.81-18.561-7.568-34.266-7.568-13.435 0-28.383 1.914-44.433 5.688-5.176 1.223-10.627 2.961-15.897 4.642l-.338.107c-9.922 3.184-20.176 6.476-29.352 6.476-3.828 0-7.176-.56-10.234-1.712l-1.926-.726-.863 1.868a93 93 0 0 1-5.74 10.559l-2.144 3.395h4.679v.001z" style="fill:#000"/><path d="M352.519 341.086h.664c33.778 0 69.072-.199 96.829-2.59 39.919-3.431 44.923-10.027 45.387-10.824-.023-1.406-.421-3.265-3.077-5.368-9.153-7.249-37.098-10.802-76.82-1.461-5.2 1.228-10.722 2.999-16.07 4.704-14.276 4.582-28.962 9.274-41.037 4.726a95 95 0 0 1-5.876 10.813M228.165 343.3l-6.528-4.089c-4.224-2.646-8.113-5.559-11.56-8.657l-1.388-1.248-1.464 1.159c-3.024 2.394-6.028 5.512-8.932 9.269l-2.758 3.567h32.63z" style="fill:#000"/><path d="M200.043 341.086h20.419c-4.504-2.822-8.467-5.833-11.864-8.887-3.242 2.568-6.142 5.766-8.555 8.887" style="fill:#000"/><path d="m332.883 343.3.66-.743c7.816-8.795 12.147-18.771 13.647-22.652l.396-1.026-.578-.936c-4.752-7.686-7.062-19.205-7.062-35.214 0-16.051-6.425-47.986-49.45-81.53-26.82-20.924-55.21-32.497-64.578-32.497-22.988 0-45.942 11.706-75.002 26.526-20.697 10.564-44.154 22.537-73.058 33.151-21.19 7.79-57.54 25.459-62.908 56.261-2.013 11.521 1.44 18.911 2.548 20.901l.633 1.138h5.076a6.08 6.08 0 0 1 4.307 1.781l6.902 6.902.407.168c1.088.45 2.242.66 3.635.66 2.064 0 4.545-.455 8.69-1.349 4.489-.972 10.075-2.18 16.64-2.18 4.552 0 8.96.562 13.477 1.719 4.535 1.153 8.732 1.738 12.476 1.739 2.104 0 4.117-.185 5.983-.549l.26-.048c6.787-1.379 10.626-4.892 13.166-7.217a6.1 6.1 0 0 1 4.144-1.627 6.03 6.03 0 0 1 4.492 1.974 6.04 6.04 0 0 1 1.593 4.376 6.06 6.06 0 0 1-1.968 4.228c-4.006 3.673-9.716 8.139-18.366 10.074l-.155.034-.15.056c-6.254 2.378-9.995 5.202-12.127 9.153l-1.143 2.117 2.206.963a104 104 0 0 0 5.952 2.354l1.2.435.978-.821c12.687-10.653 31.148-14.922 47.435-18.688 7.59-1.743 15.362-3.527 21.996-5.854 6.07-2.122 9.919-7.818 11.434-16.932 1.42-8.533.19-17.868-1.551-22.931-1.103-3.171.583-6.643 3.758-7.747a6.084 6.084 0 0 1 7.738 3.765c1.03 2.967 1.863 6.758 2.34 10.681l4.378.114c1.28-7.307 4.155-14.153 8.313-19.798 5.306-7.226 17.795-19.344 41.855-19.344 4.21 0 8.665.371 13.243 1.103a6.1 6.1 0 0 1 5.058 6.974c-.48 2.967-3 5.124-5.991 5.124-.324 0-.653-.027-.977-.079-3.81-.609-7.524-.919-11.038-.919-14.261 0-25.446 4.959-32.347 14.342-7.905 10.772-8.928 25.926-2.61 38.611 5.396 10.849 30.465 33.255 73.51 33.255h50.534zm-284.42-72.901c4.096 0 7.427 3.331 7.427 7.426 0 4.088-3.331 7.415-7.426 7.415-4.088 0-7.415-3.326-7.415-7.415 0-4.095 3.327-7.426 7.415-7.426m42.189-35.381c4.988 0 9.59 1.949 12.626 5.347 6.92 7.739 2.595 18.415.414 22.645a6.05 6.05 0 0 1-5.383 3.283 6.25 6.25 0 0 1-2.834-.677c-2.966-1.538-4.14-5.222-2.601-8.201 2.128-4.118 2.625-7.556 1.296-8.971-.983-1.098-2.82-1.22-3.563-1.22-.914 0-1.84.17-2.677.493-2.075.79-3.132 2.231-3.132 4.279a6.094 6.094 0 0 1-6.087 6.087 6.094 6.094 0 0 1-6.087-6.087c0-7.075 4.205-13.076 10.972-15.663a19.7 19.7 0 0 1 7.056-1.315" style="fill:#000"/><path d="M17.132 285.019c-1.66 9.496.609 16.402 2.3 19.445h3.775a8.32 8.32 0 0 1 5.867 2.424l6.596 6.596c2.246.93 5.068.476 11.01-.808 7.516-1.627 17.82-3.851 31.134-.443 7.527 1.915 13.17 2.003 17.488 1.162a2 2 0 0 1 .243-.044c6.209-1.262 9.66-4.438 12.14-6.707a8.31 8.31 0 0 1 11.734.509c3.099 3.376 2.866 8.633-.51 11.731-4.671 4.283-10.713 8.666-19.38 10.603-6.374 2.424-9.306 5.058-10.966 8.135a102 102 0 0 0 5.82 2.302c13.116-11.012 31.787-15.317 48.443-19.169 7.859-1.804 15.273-3.519 21.68-5.766 5.258-1.837 8.61-6.95 9.985-15.207 1.36-8.179.188-17.055-1.461-21.847-1.504-4.327.797-9.053 5.124-10.558 4.327-1.494 9.064.797 10.558 5.135.986 2.833 1.905 6.696 2.446 11.134 1.307-7.459 4.195-14.598 8.71-20.729 6.94-9.452 23.596-24.492 57.23-19.113 4.527.719 7.614 4.98 6.895 9.507-.73 4.527-4.98 7.614-9.507 6.884-18.483-2.955-33.126 1.505-41.248 12.55-7.415 10.105-8.367 24.359-2.413 36.312 5.202 10.459 29.538 32.029 71.529 32.029h49.538c7.582-8.533 11.842-18.372 13.237-21.98-5.002-8.09-7.393-19.943-7.393-36.379 0-15.638-6.308-46.815-48.597-79.785-27.336-21.327-55.271-32.029-63.217-32.029-22.456 0-45.2 11.599-73.996 26.285-20.751 10.592-44.282 22.6-73.3 33.258-20.744 7.626-56.314 24.847-61.494 54.563m21.704-7.194c0-5.323 4.316-9.64 9.629-9.64 5.323 0 9.64 4.316 9.64 9.64 0 5.312-4.316 9.629-9.64 9.629-5.313 0-9.63-4.317-9.63-9.629m39.876-17.531a8.297 8.297 0 0 1-8.301-8.301c0-8.013 4.748-14.808 12.395-17.73 8.035-3.066 16.922-1.195 22.123 4.626 7.848 8.776 3.12 20.497.73 25.134a8.29 8.29 0 0 1-7.382 4.482 8.4 8.4 0 0 1-3.806-.919c-4.074-2.114-5.667-7.116-3.565-11.189 2.213-4.283 1.816-6.264 1.649-6.441-.387-.432-2.136-.83-3.83-.177-1.714.653-1.714 1.638-1.714 2.213a8.294 8.294 0 0 1-8.3 8.302" style="fill:#000"/><path d="M.476 284.056c-1.75 12.595 1.24 28.797 10.338 35.416a8.25 8.25 0 0 0 4.88 1.594h4.074l5.08 5.08a8.3 8.3 0 0 0 1.682 1.295c8.212 4.792 16.06 3.099 23.65 1.461 6.885-1.483 14-3.021 23.53-.587.31.077.61.144.908.221-1.904 3.21-3.055 6.552-3.93 9.883-2.345 8.909 7.936 13.104 13.459 15.35 4.77 1.937 9.55 3.464 9.76 3.531a8.1 8.1 0 0 0 2.513.387 8.3 8.3 0 0 0 6.032-2.59c9.66-10.215 27.17-14.255 44.104-18.162 7.946-1.837 16.169-3.73 23.44-6.275 11.092-3.885 18.507-13.879 20.874-28.167.077-.454.133-.908.199-1.361.853 5.246 2.458 10.437 4.892 15.328a38 38 0 0 0 1.782 3.165c-12.285 10.049-19.888 25.4-20.242 26.119a8.3 8.3 0 0 0 .42 8.035 8.28 8.28 0 0 0 7.04 3.907h168.223c36.29 0 74.152-.232 103.17-3.099 27.513-2.71 55.646-8.023 55.646-26.804 0-7.249-3.243-13.635-9.363-18.483-15.616-12.373-50.456-14.144-90.93-4.615-5.844 1.372-11.687 3.243-17.343 5.058-12.816 4.106-26.074 8.356-32.261 3.84-3.54-2.59-7.77-10.038-7.77-30.856 0-22.799-9.54-57.429-54.982-92.878-21.915-17.088-56.223-35.537-73.433-35.537-26.45 0-50.754 12.395-81.534 28.1-20.342 10.381-43.395 22.146-71.484 32.472C48.187 223.96 5.91 245.021.476 284.056m18.957 20.408c-1.692-3.044-3.961-9.95-2.301-19.445 5.18-29.716 40.749-46.937 61.49-54.562 29.019-10.658 52.548-22.666 73.299-33.258 28.797-14.686 51.54-26.285 73.996-26.285 7.946 0 35.88 10.702 63.217 32.029 42.289 32.97 48.597 64.147 48.597 79.785 0 16.435 2.39 28.288 7.393 36.379-1.394 3.608-5.654 13.447-13.237 21.98h-49.538c-41.991 0-66.327-21.57-71.53-32.029-5.953-11.953-5.001-26.208 2.414-36.312 8.123-11.045 22.766-15.505 41.248-12.55 4.527.73 8.776-2.357 9.507-6.884.718-4.527-2.37-8.788-6.895-9.507-33.634-5.379-50.29 9.662-57.23 19.113-4.515 6.131-7.402 13.27-8.71 20.729-.54-4.438-1.46-8.301-2.445-11.134-1.494-4.338-6.231-6.629-10.558-5.135-4.327 1.505-6.628 6.231-5.124 10.558 1.649 4.792 2.822 13.668 1.46 21.847-1.371 8.256-4.726 13.369-9.983 15.207-6.408 2.247-13.822 3.962-21.681 5.766-16.656 3.851-35.327 8.157-48.442 19.169a102 102 0 0 1-5.821-2.302c1.66-3.077 4.592-5.711 10.967-8.135 8.666-1.937 14.709-6.319 19.38-10.603 3.376-3.099 3.608-8.356.509-11.731a8.31 8.31 0 0 0-11.733-.509c-2.48 2.269-5.931 5.445-12.141 6.707a2 2 0 0 0-.243.044c-4.316.841-9.961.753-17.488-1.162-13.313-3.409-23.618-1.184-31.133.443-5.943 1.284-8.765 1.738-11.011.808l-6.596-6.596a8.32 8.32 0 0 0-5.867-2.424zm201.03 36.622h-20.42c2.414-3.121 5.313-6.319 8.556-8.887 3.397 3.055 7.359 6.065 11.864 8.887m132.72 0h-.664a95 95 0 0 0 5.876-10.813c12.075 4.549 26.76-.144 41.038-4.726 5.346-1.704 10.868-3.475 16.07-4.704 39.722-9.341 67.667-5.788 76.819 1.461 2.656 2.103 3.055 3.962 3.077 5.368-.465.797-5.468 7.393-45.387 10.824-27.758 2.391-63.051 2.59-96.83 2.59" style="fill:#000"/><path d="M48.464 268.185c-5.312 0-9.63 4.316-9.63 9.64 0 5.312 4.317 9.629 9.63 9.629 5.323 0 9.64-4.316 9.64-9.629 0-5.324-4.318-9.64-9.64-9.64m21.947-16.191a8.297 8.297 0 0 0 8.3 8.301 8.297 8.297 0 0 0 8.302-8.301c0-.576 0-1.561 1.715-2.213 1.693-.653 3.442-.255 3.829.177.166.177.564 2.158-1.65 6.441-2.101 4.073-.508 9.075 3.566 11.189a8.4 8.4 0 0 0 3.806.919 8.29 8.29 0 0 0 7.382-4.482c2.39-4.637 7.117-16.358-.73-25.134-5.201-5.821-14.088-7.692-22.123-4.626-7.65 2.92-12.397 9.716-12.397 17.729" style="fill:#000"/></svg>