<svg xmlns="http://www.w3.org/2000/svg" width="800" height="800" data-name="Layer 1" viewBox="0 0 122.88 64.89"><title>cheetah</title><path d="M71.077 27.09a1 1 0 0 0 .33.49c.07.71.17 1.39.3 2.05s.29 1.37.5 2.07a23 23 0 0 0 2.93 6 24.4 24.4 0 0 0 4.64 5.06 43 43 0 0 0 6.56 4.11c2.39 1.32 4.63 2.55 5.6 3.62a3 3 0 0 1 .42.59 2.1 2.1 0 0 1 .21.61 22 22 0 0 1 0 4.12 25 25 0 0 1-.66 3.61l-2.14.38a3 3 0 0 0-2 1.58 2.7 2.7 0 0 0-.31 1.18 2.2 2.2 0 0 0 .34 1.24 2.51 2.51 0 0 0 1.9 1.08h6.71a.83.83 0 0 0 .83-.74l1.54-12.45a8.74 8.74 0 0 0-.36-4.69 8.1 8.1 0 0 0-3.3-3.45 11.83 11.83 0 0 1-5.77-8.62c-.51-3.36.07-7.36 1.6-11.91.34.51.66 1 1 1.58.59 1 1.15 2.06 1.69 3.15a87 87 0 0 1 3.27 8.11c2 5.28 4 10.57 7.62 14.75a20.8 20.8 0 0 0 7.64 5.73 11.07 11.07 0 0 0 7.84.35 4.73 4.73 0 0 0 2.71-1.89 1.47 1.47 0 0 0 .19-1.07 1.33 1.33 0 0 0-.74-.86 3.8 3.8 0 0 0-2.83.13c-8.66 3-13.5-10.5-16.52-18.9-.32-.89-.62-1.74-.9-2.47-.44-1.19-.91-2.45-1.4-3.79s-.9-2.48-1.37-3.82a35.5 35.5 0 0 0-3.77-7.15 22.4 22.4 0 0 0-4.73-5c-8.24-6.29-24.47-3.76-34.66-2.17l-1.41.22h-.06a42.7 42.7 0 0 1-7.08.61 23.4 23.4 0 0 1-7.22-1.22 26.3 26.3 0 0 1-5.31-2.71 19.75 19.75 0 0 0-7.26-3.12 27 27 0 0 0-4-.35 45 45 0 0 0-4.55.15 2 2 0 0 1-1.62-.56c-.85-.83-1.83-1.63-2.72-2.42s-1.37-.09-2 .48c-.15.14-.22.26-.26.27l-1 .26a11 11 0 0 1-2.09.41 10.5 10.5 0 0 0-1.84.37 9 9 0 0 0-1.75.75 5.3 5.3 0 0 0-2.8 2.89 3.8 3.8 0 0 0-.3 2l-1.31 1.39a10 10 0 0 0-.82.93 2.7 2.7 0 0 0-.5 1 3.9 3.9 0 0 0 .07 2.14 7.2 7.2 0 0 0 .83 1.74 9.5 9.5 0 0 0 1 1.27 7.3 7.3 0 0 0 1.25 1.09c1.32.89 2.74.14 4-.51l.62-.32a13.77 13.77 0 0 1 8 2.07 13.63 13.63 0 0 1 5.3 6.47 19 19 0 0 1 .83 2.53c.4 1.49.58 2.19 2.94 4.58.81.82 1.65 1.6 2.51 2.34s1.53 1.26 2.32 1.86l.56 22.47-2.23.14a3.06 3.06 0 0 0-2.58 1.71 3 3 0 0 0-.33 1.31 2.85 2.85 0 0 0 .29 1.34 3 3 0 0 0 2.52 1.64h7.52a.84.84 0 0 0 .83-.72l1.31-9 1.26-19.44c6.92 1.49 12.26 1.68 17.08.43 5-1.32 9.47-4.21 14.46-8.84a.85.85 0 0 1 .63-.25z" style="fill:#000;fill-opacity:1"/><path d="M19.257 5c1.57-.12 3-.18 4.4-.15a28 28 0 0 1 3.56.3.83.83 0 0 0-.19.52c0 .6.66 1.08 1.47 1.08a1.43 1.43 0 0 0 1.41-.91 26 26 0 0 1 3.79 2 1.2 1.2 0 0 0-1.06 1c0 .59.66 1.07 1.48 1.07a1.38 1.38 0 0 0 1.47-1 21.5 21.5 0 0 0 4 1.9 24.6 24.6 0 0 0 5.87 1.21.67.67 0 0 0-.13.41c0 .52.58.95 1.3.95s1.31-.43 1.31-.95a.9.9 0 0 0-.07-.32 44.4 44.4 0 0 0 6.8-.62h.07l1.4-.22c3.86-.6 8.61-1.34 13.42-1.67a1.62 1.62 0 0 0 1.66 1c.92 0 1.66-.53 1.69-1.18 6.42-.16 12.62.63 16.62 3.68a20.7 20.7 0 0 1 4.38 4.66 33 33 0 0 1 3.58 6.78 213 213 0 0 0 1.38 3.83c.49 1.32.91 2.48 1.41 3.81.28.76.58 1.58.89 2.44 3.23 9 8.41 23.45 18.63 19.92a5 5 0 0 1 1.1-.26 4.7 4.7 0 0 1-1.51.77 9.43 9.43 0 0 1-6.68-.32 19.1 19.1 0 0 1-7-5.27c-3.44-3.95-5.36-9.1-7.26-14.23a89 89 0 0 0-3.35-8.23c-.54-1.11-1.13-2.2-1.75-3.26-.44-.76-.91-1.5-1.39-2.21a2.23 2.23 0 0 0 1.32.41c1 0 1.84-.6 1.84-1.34s-.82-1.33-1.84-1.33-1.83.59-1.83 1.33a2 2 0 0 0 0 .21l-.09-.12a.84.84 0 0 0-1.17-.2.84.84 0 0 0-.31.42c-2 5.45-2.84 10.24-2.23 14.26a14.3 14.3 0 0 0 .91 3.32 1.8 1.8 0 0 0-1.07-.33c-.81 0-1.47.48-1.47 1.08s.66 1.07 1.47 1.07a1.4 1.4 0 0 0 1.47-.93 13.7 13.7 0 0 0 5.25 5.52 6.77 6.77 0 0 1 2.7 2.71 7.34 7.34 0 0 1 .23 3.86l-.1.75a2.2 2.2 0 0 0-.79-.14c-.93 0-1.68.55-1.68 1.22s.75 1.23 1.68 1.23a2.2 2.2 0 0 0 .52-.06l-1.08 8.74h-5.78a.9.9 0 0 1-.68-.32.4.4 0 0 1-.07-.29 1.2 1.2 0 0 1 .12-.47 1.26 1.26 0 0 1 .82-.68l2.67-.45a.87.87 0 0 0 .68-.67 27.6 27.6 0 0 0 .78-4.33 23 23 0 0 0 0-4.48 3.9 3.9 0 0 0-.38-1.13 4 4 0 0 0-.48-.72 1.31 1.31 0 0 0 1.11-1.15c0-.67-.75-1.22-1.68-1.22a1.85 1.85 0 0 0-1.47.63c-1.18-.79-2.65-1.6-4.17-2.44a42.7 42.7 0 0 1-6.3-3.92 23 23 0 0 1-4.33-4.73 21.2 21.2 0 0 1-2.72-5.64 20 20 0 0 1-.48-1.9 18 18 0 0 1-.28-1.86v-.32a1 1 0 0 0 0-.3 29 29 0 0 1 .49-4.25 1.74 1.74 0 0 0 1.57.78c.93 0 1.68-.55 1.68-1.22s-.75-1.22-1.68-1.22a2 2 0 0 0-1.3.44l.08-.3a15.7 15.7 0 0 1 2.02-4.5 1.048 1.048 0 1 0-1.76-1.14 18.1 18.1 0 0 0-2.24 5.1 27.5 27.5 0 0 0-.81 4.91 2.54 2.54 0 0 0-1.81.69 44 44 0 0 1-7.66 5.89 1.48 1.48 0 0 0-1.42-.79c-.82 0-1.48.48-1.48 1.07a1 1 0 0 0 .66.9 24 24 0 0 1-3.6 1.32c0-.58-.67-1-1.47-1s-1.48.48-1.48 1.08a.84.84 0 0 0 .2.54 34.1 34.1 0 0 1-10.42-.31.82.82 0 0 0 .23-.56c0-.6-.66-1.08-1.48-1.08s-1.46.43-1.46 1.03v.06l-.9-.19a39.7 39.7 0 0 1-1.44-8.42 26.3 26.3 0 0 1 .62-7.35 1 1 0 0 0-.12-.78 1.7 1.7 0 0 0 .39.05c.72 0 1.31-.43 1.31-.95s-.59-1-1.31-1-1.3.42-1.3 1a.7.7 0 0 0 .12.4 1 1 0 0 0-1.13.8 28 28 0 0 0-.67 7.93 41.8 41.8 0 0 0 1.61 9.25.9.9 0 0 0 .13.29l-.66 10.55a2 2 0 0 0-1.29-.43c-.93 0-1.68.54-1.68 1.22s.75 1.22 1.68 1.22a2 2 0 0 0 1.18-.35l-.47 7.5-1.2 8.24h-6.62a1.39 1.39 0 0 1-1.18-.7 1.3 1.3 0 0 1-.13-.57 1.5 1.5 0 0 1 .16-.61 1.39 1.39 0 0 1 1.19-.77l3-.2a.84.84 0 0 0 .78-.89l-.07-4.4a2.3 2.3 0 0 0 .66.1c.93 0 1.68-.55 1.68-1.23s-.75-1.22-1.68-1.22a2 2 0 0 0-.71.12l-.27-10.63a1.88 1.88 0 0 0 1.47.63c.93 0 1.69-.55 1.69-1.23s-.76-1.22-1.69-1.22a1.83 1.83 0 0 0-1.5.67l-.13-5.27a.81.81 0 0 0-.34-.65c-.87-.65-1.72-1.32-2.55-2s-1.63-1.49-2.42-2.27c-2-2.08-2.19-2.64-2.51-3.83a18.6 18.6 0 0 0-.9-2.74 15.32 15.32 0 0 0-6-7.25 16 16 0 0 0-1.44-.8 1 1 0 0 0 .79-.88c0-.52-.59-1-1.31-1s-1.3.43-1.3 1a.6.6 0 0 0 0 .14 16.2 16.2 0 0 0-5.87-.78 1 1 0 0 0-.32.08c-.28.13-.56.27-.85.43-.82.43-1.76.93-2.25.6a5 5 0 0 1-1-.83 7.6 7.6 0 0 1-.77-1 6 6 0 0 1-.64-1.34 2.26 2.26 0 0 1-.06-1.23 1.1 1.1 0 0 1 .22-.42 11 11 0 0 1 .7-.79l1.54-1.63a.82.82 0 0 0 .23-.64v-.24a3 3 0 0 1 .12-1.24A4.35 4.35 0 0 1 5.677 5a1.39 1.39 0 0 0 1.2.57c.72 0 1.3-.43 1.3-1a.9.9 0 0 0-.48-.74l.46-.15a9 9 0 0 1 1.54-.32 12 12 0 0 0 2.35-.46l.93-.24a2.56 2.56 0 0 0 1-.68c0-.05-.68-.8-.28-.45.89.8 1.79 1.64 2.71 2.41a3.36 3.36 0 0 0 2.85 1z" style="fill:#000;fill-opacity:1"/></svg>