<svg xmlns="http://www.w3.org/2000/svg" xml:space="preserve" width="800" height="800" viewBox="0 0 512 512"><path d="m488.778 386.825-.619-.642c-4.664-4.837-13.637-15.072-21.32-29.285-9-16.672-13.305-33.514-12.794-50.059l.165-5.351-3.894 3.674c-3.97 3.748-8.303 7.87-13.082 12.639-4.223 4.224-7.396 9.073-9.428 14.413l-.357.94.472.887c5.049 9.491 15.796 20.06 27.174 31.247 10.372 10.215 21.097 20.779 29.697 32.383l3.988 5.381v-16.227z" style="fill:#000"/><path d="M438.794 319.365c-4.025 4.026-7 8.581-8.924 13.635 4.877 9.167 15.515 19.64 26.772 30.709 10.273 10.117 21.221 20.899 29.924 32.644v-8.635c-4.49-4.656-13.801-15.205-21.674-29.769-9.201-17.041-13.58-34.358-13.06-51.178-3.926 3.704-8.283 7.85-13.038 12.594" style="fill:#000"/><path d="m426.274 393.876-.482-.854c-2.702-4.793-7.67-14.598-10.595-26.416-5.696-23.061-1.049-42.911 13.439-57.398 5.433-5.444 10.34-10.068 14.667-14.147l.359-.339c13.889-13.078 21.54-20.282 26.29-33.738 5.163-14.61.676-26.317-2.875-29.337a6 6 0 0 1-.506-.501l-.094-.104-.106-.091c-19.061-16.246-50.841-35.219-77.67-35.219-15.93 0-42.685 4.63-68.559 9.105l-.203.035c-25.431 4.398-49.452 8.551-63.937 8.551-5.034 0-10.828-.44-16.43-.867-7.229-.542-14.701-1.101-22.564-1.101-8.075 0-15.204.61-21.796 1.864a21.6 21.6 0 0 1-4.022.356c-26.063 0-71.804-38.286-80.708-45.962-2.392-2.061-2.798-5.671-.923-8.216 9.688-13.133 11.214-23.199 10.787-29.331l-.259-3.721-3.141 2.013c-10.409 6.67-11.742 16.503-11.903 18.408-.206 3.239-2.871 5.738-6.071 5.738q-.166 0-.332-.009c-3.341-.187-5.917-3.063-5.739-6.411.02-.365.545-9.035 6.743-17.818l2.886-4.09-4.967.62a7 7 0 0 1-.798.061H85.152v20.458a6.06 6.06 0 0 1-2.707 5.059c-2.191 1.46-5.247 3.093-8.483 4.82l-.335.179c-7.908 4.207-13.519 7.453-15.268 9.669l-.185.233-1.548 3.592h3.645a6.09 6.09 0 0 1 6.082 6.082 6.09 6.09 0 0 1-6.082 6.082H49.578c-.226 0-.443-.018-.661-.041l-1.158-.129-.762.881c-5.288 6.119-11.622 12.477-17.211 18.087-6.804 6.819-13.075 13.195-15.03 16.278l-.38.599.04.71c.191 3.392 1.108 5.639 2.726 6.679.586.377 1.973 1.013 4.658 1.013 4.702 0 11.155-1.89 19.18-5.619l.039-.01.177-.091a5 5 0 0 1 .438-.177l.192-.06a3 3 0 0 1 .386-.116l.115-.031.135-.018c.157-.035.244-.056.333-.07.116-.018.199-.022.276-.027l.276-.029h-.006l.227-.009.358.009.087.088h.819a39 39 0 0 0 5.332.349c14.287 0 29.853-6.75 32.828-8.104l.106-.049a6.06 6.06 0 0 1 4.797-.186 6.15 6.15 0 0 1 3.438 3.365c6.98 17.012 41.628 61.755 54.389 77.561a5.9 5.9 0 0 1 1.143 2.223c10.415 38.422 45.799 39.71 47.301 39.746 3.311.057 5.991 2.787 5.991 6.083 0 8.008 2.632 19.859 7.825 35.222l2.413 7.14 12.986-51.953v-16.948a6.09 6.09 0 0 1 6.082-6.082 6.09 6.09 0 0 1 6.082 6.082v11.23l1.64.438c10.503 2.81 25.644 4.235 45.004 4.235 21.773 0 44.045-1.764 58.894-3.242l3.479-.347-1.804-2.996c-5.918-9.825-8.796-18.299-8.796-25.907a6.09 6.09 0 0 1 6.082-6.082 6.09 6.09 0 0 1 6.082 6.082c0 15.048 18.302 36.063 35.999 56.386l.096.111c13.784 15.819 28.038 32.176 37.358 48.851l2.446 4.377z" style="fill:#000"/><path d="M16.621 217.397c.144 2.556.752 4.324 1.714 4.943.498.321 5.33 2.865 21.741-4.766l.066-.033c.011-.011.022-.011.033-.022.022-.011.044-.011.066-.022a7 7 0 0 1 .686-.276c.066-.032.144-.044.21-.066a5 5 0 0 1 .564-.166c.111-.032.221-.044.332-.065a5 5 0 0 1 .453-.088c.144-.022.299-.033.442-.044.122-.011.232-.033.343-.033a5 5 0 0 1 .586 0h.221a6 6 0 0 1 .763.077h.044c.022 0 .033 0 .044.011h.055c16.012 2.3 36.946-7.498 37.156-7.585a8.26 8.26 0 0 1 6.547-.254 8.35 8.35 0 0 1 4.689 4.589c6.878 16.763 41.358 61.273 54.064 77.01a8.1 8.1 0 0 1 1.559 3.041c9.952 36.714 43.824 38.074 45.217 38.107 4.523.077 8.15 3.771 8.15 8.294 0 9.079 3.638 22.47 7.708 34.513l11.091-44.379v-16.676a8.297 8.297 0 0 1 8.294-8.294 8.297 8.297 0 0 1 8.294 8.294v9.532c27.115 7.254 79.233 3.306 103.108.929-5.596-9.289-9.112-18.313-9.112-27.049a8.297 8.297 0 0 1 8.294-8.294 8.297 8.297 0 0 1 8.294 8.294c0 14.232 18.047 34.944 35.497 54.982 13.945 16.003 28.232 32.39 37.676 49.287l2.355-7.077c-2.842-5.041-7.84-14.951-10.815-26.971-5.894-23.864-1.039-44.432 14.022-59.494 5.607-5.618 10.638-10.351 15.072-14.532 13.646-12.849 21.155-19.927 25.722-32.865 4.744-13.425.818-24.328-2.223-26.916a8 8 0 0 1-.708-.697c-18.644-15.891-49.973-34.69-76.236-34.69-15.758 0-42.453 4.622-68.274 9.09-25.578 4.423-49.729 8.603-64.426 8.603-4.998 0-10.638-.42-16.599-.874-13.436-1.006-28.663-2.146-43.78.73-25.843 4.921-76.656-37.543-86.587-46.102a8.3 8.3 0 0 1-1.261-11.202c9.234-12.517 10.771-21.984 10.362-27.867-9.698 6.215-10.782 15.426-10.892 16.732-.288 4.534-4.18 7.995-8.725 7.752a8.304 8.304 0 0 1-7.829-8.736c.033-.63.652-9.776 7.144-18.976a9 9 0 0 1-1.073.077h-9.4v18.246a8.28 8.28 0 0 1-3.693 6.9c-2.355 1.57-5.584 3.284-9.001 5.109-4.158 2.212-12.75 6.779-14.575 9.09-.033.077-.077.166-.111.243h.288a8.297 8.297 0 0 1 8.294 8.294 8.297 8.297 0 0 1-8.294 8.294H49.574c-.31 0-.608-.022-.907-.055-5.275 6.104-11.49 12.352-17.317 18.202-5.451 5.462-12.772 12.815-14.729 15.901" style="fill:#000"/><path d="M42.033 216.921c-.111.022-.221.033-.332.065q-.282.067-.564.166c-.066.022-.144.033-.21.066a8 8 0 0 0-.686.276c-.022.012-.044.012-.066.022-.011.011-.022.011-.033.022l-.066.033c-16.411 7.63-21.243 5.087-21.741 4.766-.962-.619-1.57-2.387-1.714-4.943 1.957-3.085 9.278-10.438 14.73-15.902 5.828-5.85 12.043-12.099 17.317-18.202a8 8 0 0 0 .907.055h10.693a8.296 8.296 0 0 0 8.294-8.294 8.297 8.297 0 0 0-8.294-8.294h-.288c.033-.076.077-.165.111-.243 1.825-2.311 10.417-6.878 14.575-9.09 3.417-1.825 6.646-3.539 9.001-5.109a8.28 8.28 0 0 0 3.693-6.9v-18.246h9.4c.365 0 .719-.033 1.073-.077-6.491 9.201-7.11 18.346-7.144 18.976a8.304 8.304 0 0 0 7.829 8.736c4.545.243 8.438-3.218 8.725-7.752.111-1.306 1.194-10.518 10.892-16.732.409 5.883-1.128 15.35-10.362 27.867a8.3 8.3 0 0 0 1.261 11.202c9.93 8.559 60.743 51.024 86.587 46.102 15.117-2.876 30.344-1.736 43.78-.73 5.96.453 11.6.874 16.599.874 14.696 0 38.848-4.18 64.426-8.603 25.821-4.468 52.516-9.09 68.274-9.09 26.263 0 57.592 18.799 76.236 34.69a8 8 0 0 0 .708.697c3.041 2.588 6.967 13.491 2.223 26.916-4.567 12.938-12.076 20.017-25.722 32.865-4.434 4.18-9.466 8.913-15.072 14.532-15.061 15.061-19.916 35.63-14.022 59.494 2.975 12.02 7.973 21.929 10.815 26.971l-2.355 7.077c-9.444-16.897-23.731-33.286-37.676-49.287-17.45-20.038-35.497-40.75-35.497-54.982a8.297 8.297 0 0 0-8.294-8.294 8.297 8.297 0 0 0-8.294 8.294c0 8.736 3.517 17.76 9.112 27.049-23.875 2.378-75.993 6.325-103.108-.929v-9.532a8.297 8.297 0 0 0-8.294-8.294 8.297 8.297 0 0 0-8.294 8.294v16.676l-11.091 44.377c-4.069-12.043-7.708-25.434-7.708-34.513a8.296 8.296 0 0 0-8.15-8.294c-1.393-.033-35.265-1.393-45.217-38.107a8.1 8.1 0 0 0-1.559-3.041c-12.706-15.736-47.186-60.246-54.064-77.01a8.35 8.35 0 0 0-4.689-4.589 8.27 8.27 0 0 0-6.547.254c-.21.087-21.143 9.885-37.156 7.585h-.055c-.011-.011-.022-.011-.044-.011h-.044a6 6 0 0 0-.763-.077h-.221a5 5 0 0 0-.586 0c-.111 0-.221.023-.343.033-.144.011-.299.022-.442.044q-.236.04-.454.091M0 216.191c0 11.689 5.12 17.406 9.422 20.137 3.428 2.178 7.498 3.273 12.253 3.273 6.458 0 14.199-2.035 23.311-6.06 13.524 1.25 28.099-3.019 36.703-6.194 12.872 23.422 45.317 64.271 51.786 72.343 9.577 32.511 35.453 44.875 52.803 47.883 2.543 21.044 14.155 49.045 17.196 56.121v46.058l-25.478 45.472a8.29 8.29 0 0 0 .077 8.249 8.3 8.3 0 0 0 7.155 4.103h17.692a8.31 8.31 0 0 0 7.874-5.673l8.847-26.54a8.4 8.4 0 0 0 .42-2.621v-69.756l3.705-14.796 6.635 16.355 13.049 52.206-21.254 38.527a8.295 8.295 0 0 0 7.266 12.297h17.693a8.31 8.31 0 0 0 7.874-5.673l8.847-26.54a8.36 8.36 0 0 0 .177-4.633l-17.45-69.778v-59.317c10.97 1.547 23.554 2.134 36.194 2.134 29.216 0 58.653-3.074 68.938-4.268 5.938 7.608 12.706 15.371 19.595 23.29 17.848 20.469 36.271 41.623 42.398 61.726l-7.641 22.924-41.27 46.323a8.29 8.29 0 0 0-1.371 8.914 8.3 8.3 0 0 0 7.564 4.899h17.69a8.28 8.28 0 0 0 6.9-3.693l17.693-26.54a8.7 8.7 0 0 0 .973-1.979l26.54-79.62a8.3 8.3 0 0 0-.94-7.166c-.066-.1-7.321-11.357-10.804-25.831a69 69 0 0 1-.918-4.447c5.098 5.651 10.892 11.368 16.864 17.24 18.877 18.567 40.274 39.622 41.557 62.115v12.098l-25.478 45.472a8.296 8.296 0 0 0 7.232 12.353h17.694a8.31 8.31 0 0 0 7.874-5.673l8.847-26.54a8.4 8.4 0 0 0 .42-2.621v-88.467a8.24 8.24 0 0 0-2.665-6.082c-.111-.111-11.987-11.268-21.232-28.553-11.888-22.237-14.088-43.835-6.58-64.205a69 69 0 0 0 5.043-7.287c.011 10.328 6.535 19.008 11.777 25.998 2.3 3.052 5.772 7.674 5.916 9.388 0 4.588 3.716 8.282 8.294 8.282s8.293-3.736 8.293-8.315c0-7.011-4.49-12.994-9.234-19.319-3.97-5.276-8.46-11.258-8.46-16.068 0-3.738.929-7.111 1.913-10.693 2.134-7.719 4.777-17.328-3.34-29.338-6.945-10.284-23.3-24.449-40.684-35.231-15.802-9.809-39.644-21.497-63.497-21.497-17.185 0-44.598 4.744-71.105 9.333-23.753 4.114-48.325 8.36-61.595 8.36-4.379 0-9.709-.398-15.36-.829-13.745-1.028-30.853-2.311-48.115.973-2.61.498-13.381.586-42.298-19.153-10.063-6.878-19.153-14.011-24.704-18.51 6.524-10.661 9.621-21.099 9.212-31.14-.387-9.499-3.859-15.106-4.556-16.134-2.046-3.064-5.872-4.391-9.389-3.285-4.578 1.46-8.46 3.341-11.755 5.463 1.017-2.024 1.99-4.434 2.787-7.276 13.668-1.261 43.68-7.42 69.325-36.205l24.395-8.128c4.346-1.45 6.69-6.15 5.253-10.494a8.315 8.315 0 0 0-10.494-5.253l-15.128 5.043c1.039-12.276 3.616-23.102 6.889-27.856 2.599-3.771 1.637-8.935-2.134-11.534s-8.935-1.638-11.534 2.134c-7.111 10.351-9.941 29.835-10.273 45.748-11.103 12.242-22.99 19.561-33.451 23.908 8.493-7.829 13.215-16.046 13.558-16.655a8.3 8.3 0 0 0 .829-6.026c-4.423-18.159.863-39.854 6.447-45.063 3.351-3.118 3.528-8.371.398-11.723-3.118-3.351-8.371-3.526-11.722-.398-10.727 10.02-16.012 36.15-12.009 57.547a63 63 0 0 1-7.199 8.659c-6.104-8.039-11.069-19.407-11.069-24.76a8.297 8.297 0 0 0-8.294-8.294 8.297 8.297 0 0 0-8.294 8.294c0 10.152 6.569 24.151 14.011 34.159-1.117.453-2.256.863-3.428 1.173-5.562-5.098-19.319-19.331-20.557-35.951a8.297 8.297 0 0 0-8.891-7.653c-4.567.344-7.995 4.324-7.652 8.891 1.747 23.334 19.772 41.502 26.396 47.44-.509 8.017-2.577 12.374-3.959 14.42H70.221c-5.186 0-9.4-4.213-9.4-9.4a8.297 8.297 0 0 0-8.294-8.294 8.297 8.297 0 0 0-8.294 8.294c0 14.332 11.655 25.987 25.987 25.987h.553v13.513c-1.205.665-2.532 1.371-3.893 2.101-11.633 6.182-19.452 10.727-22.05 17.24-2.964 7.398-15.836 20.325-25.235 29.758C5.662 203.784 0 209.722 0 216.191M429.87 333c1.924-5.054 4.899-9.61 8.924-13.635 4.755-4.744 9.112-8.891 13.038-12.595-.52 16.82 3.859 34.137 13.06 51.178 7.874 14.564 17.185 25.113 21.674 29.769v8.635c-8.703-11.744-19.651-22.526-29.924-32.644-11.257-11.068-21.895-21.54-26.772-30.708" style="fill:#000"/></svg>