<?xml version="1.0" encoding="UTF-8" standalone="no"?>
<svg
   width="200mm"
   height="200mm"
   viewBox="0 0 200 200"
   version="1.1"
   id="svg1"
   xml:space="preserve"
   inkscape:version="1.4.2 (f4327f4, 2025-05-13)"
   sodipodi:docname="dog.svg"
   xmlns:inkscape="http://www.inkscape.org/namespaces/inkscape"
   xmlns:sodipodi="http://sodipodi.sourceforge.net/DTD/sodipodi-0.dtd"
   xmlns="http://www.w3.org/2000/svg"
   xmlns:svg="http://www.w3.org/2000/svg"><sodipodi:namedview
     id="namedview1"
     pagecolor="#ffffff"
     bordercolor="#000000"
     borderopacity="0.25"
     inkscape:showpageshadow="2"
     inkscape:pageopacity="0.0"
     inkscape:pagecheckerboard="0"
     inkscape:deskcolor="#d1d1d1"
     inkscape:document-units="mm"
     inkscape:zoom="0.76410288"
     inkscape:cx="289.22807"
     inkscape:cy="322.60054"
     inkscape:window-width="2560"
     inkscape:window-height="1494"
     inkscape:window-x="-11"
     inkscape:window-y="-11"
     inkscape:window-maximized="1"
     inkscape:current-layer="layer1" /><defs
     id="defs1" /><g
     inkscape:label="Layer 1"
     inkscape:groupmode="layer"
     id="layer1"><path
       id="path1"
       mask="url(#mask2)"
       style="stroke-width:0.452003"
       d="M 28.877824 3.91604 C 28.73682 4.0835487 28.599782 4.2459249 28.462862 4.4085164 C 28.385182 6.0404918 28.385182 6.0406725 28.462862 7.8574015 C 29.390994 9.9937877 29.390579 11.353185 29.292269 13.769702 C 28.932187 14.809526 28.932345 14.809458 28.1342 15.41508 C 26.190159 16.956067 24.27701 18.553435 22.4038 20.213753 C 22.137415 20.451562 21.878937 20.682637 21.620386 20.913452 C 20.028196 22.2695 19.083558 23.117002 18.383891 25.349357 C 18.12523 27.032353 18.125399 27.032179 17.742586 28.486117 C 17.633595 28.916009 17.527446 29.333404 17.421676 29.750639 C 17.231805 30.499991 17.041929 31.249395 16.851685 31.998564 C 16.022313 31.998564 16.022158 31.998459 15.267285 32.506543 C 13.354467 33.954774 11.412534 35.256927 9.3792725 36.446871 C 8.5146837 36.950807 7.6528236 37.461368 6.7918335 37.97391 C 6.27495 38.282175 5.7577079 38.589612 5.2399902 38.895817 C 3.9280107 39.640399 3.0531834 40.239676 1.9223633 41.359233 C 1.5892941 43.625458 1.6871873 44.673932 2.4670329 46.747534 C 3.1750161 48.142039 3.1747227 48.142472 3.4240804 49.321021 C 3.8916368 51.387638 4.3330334 52.82815 5.7066284 54.260771 C 6.2432387 54.721043 6.7789545 55.183462 7.3137655 55.646733 C 9.9660301 58.344372 11.913423 58.90262 15.400094 58.789693 C 16.443054 58.725807 17.486196 58.668197 18.529618 58.616577 C 19.045141 58.598057 19.545467 58.58004 20.045805 58.5618 C 21.394758 58.446845 21.394691 58.446733 22.657015 58.602108 C 24.917427 59.965854 26.911536 61.978226 28.148669 64.635848 C 28.824746 66.278296 29.297054 67.618937 30.576428 68.694515 C 32.637204 70.084198 33.666283 71.096108 34.683154 73.690592 C 35.295775 75.33072 35.87143 76.742783 36.7776 78.182308 C 39.346549 81.90378 40.919834 85.700276 42.505416 90.108195 C 42.934354 91.316726 43.364612 92.523497 43.810246 93.723478 C 44.833283 96.438455 45.870847 99.144334 46.754769 101.92866 C 48.831343 108.87486 50.973608 115.02909 55.469482 120.27896 C 57.853411 122.87412 59.731638 125.47252 60.162219 129.35903 C 60.212029 129.96234 60.212211 129.96242 60.260921 130.55379 C 60.396002 131.90383 60.52531 133.25293 60.639193 134.60574 C 60.698659 135.33213 60.698358 135.33238 60.756498 136.04441 C 61.424503 143.66524 61.838919 151.26478 61.888729 158.92828 C 61.893229 159.41844 61.895831 159.89431 61.898031 160.37006 C 61.958944 165.62385 62.115587 170.35548 60.090906 175.17122 C 59.912248 175.57236 59.738704 175.96166 59.565356 176.35099 L 59.152979 177.70543 C 58.813634 178.95634 58.813403 178.95637 57.62439 179.32601 C 53.964646 180.12332 52.218763 181.32024 49.787659 184.65901 C 48.930247 186.18977 48.953456 187.38081 49.198031 189.16055 C 49.673904 189.72618 49.673789 189.72589 54.137781 189.74449 C 55.049678 189.74449 55.961141 189.74476 56.873014 189.75586 C 57.466566 189.76196 58.060208 189.76571 58.653784 189.76671 C 58.944327 189.76676 59.226501 189.76699 59.508512 189.76723 C 60.051747 189.77023 60.579108 189.7704 61.106348 189.7724 C 63.621187 189.5514 65.322464 187.81889 67.0295 185.71115 C 67.835875 183.67538 67.944056 182.94047 69.699105 181.95479 C 70.201397 181.72447 70.689009 181.50098 71.176534 181.27731 C 72.369736 180.17102 72.785816 179.54651 73.14954 177.78243 C 73.367235 175.38316 73.349891 172.99145 74.494161 170.93117 C 74.858762 170.57064 75.212577 170.22068 75.566447 169.87077 C 76.789245 168.157 76.80444 167.30035 76.83407 165.12429 C 76.8082 160.26876 77.070567 155.45442 77.430933 150.62233 C 78.002585 143.05929 78.444417 135.52565 78.622591 127.93224 C 78.626961 127.64351 78.633661 127.36343 78.640161 127.0832 C 80.294798 126.71121 81.919702 126.50636 83.601615 126.40986 C 84.231262 126.37679 84.860377 126.34144 85.489872 126.30444 C 86.506787 126.24421 87.523799 126.18574 88.540849 126.12874 C 89.554977 126.074 90.56913 126.0186 91.58304 125.9582 C 91.913519 125.9384 92.234293 125.91811 92.555074 125.89981 C 95.806728 125.73894 98.721309 124.98331 101.7726 123.60796 C 102.06778 123.47054 102.35425 123.33733 102.64076 123.20385 C 105.42587 121.91522 108.14536 120.48334 110.8568 118.99015 C 112.24921 118.21931 113.64228 117.4511 115.03587 116.68332 C 115.89776 116.20887 116.75957 115.7346 117.62124 115.25963 C 118.6157 114.70555 119.61089 114.15433 120.61176 113.61684 C 124.76107 111.46958 128.68987 110.83441 132.99395 112.83859 C 136.0915 114.58173 137.77528 116.84766 138.9109 120.62106 C 139.52638 122.75752 140.08613 124.88447 141.02395 126.85479 C 141.53428 127.80882 142.00154 128.79541 142.45125 129.79156 C 143.87998 132.9595 145.35565 136.01073 147.19567 138.87111 C 147.39778 139.17663 147.59378 139.47321 147.78995 139.76976 C 148.75854 141.24032 149.72323 142.60783 150.93756 143.80724 C 155.272 147.78471 159.79322 152.63779 162.557 158.28956 C 163.97978 161.86124 164.384 166.43777 163.28926 170.21183 C 163.13064 170.62407 162.97667 171.02405 162.82262 171.42416 C 162.66069 171.9221 162.50379 172.40534 162.34668 172.88867 C 162.17375 173.40624 162.00555 173.90871 161.83767 174.41106 C 161.35814 175.93533 161.3584 175.93498 160.74936 177.33595 C 159.92943 178.53999 159.4586 179.199 158.18518 179.5725 C 156.82163 179.63425 155.54357 179.74463 154.21798 180.13836 C 152.29409 181.47166 151.40343 183.05672 150.71897 185.49617 C 150.79674 187.18975 150.79649 187.18952 151.7587 188.51356 C 153.30084 189.93837 154.74293 189.93621 156.64522 189.91761 C 157.06241 189.90101 157.46759 189.88331 157.87253 189.86851 C 160.26587 189.8517 162.27932 189.89444 164.48143 188.66755 C 169.1595 184.25181 170.69393 178.4982 172.17864 171.86134 C 173.06177 167.88016 173.93146 164.00466 175.36707 160.24655 C 176.038 158.56399 176.50777 157.13439 176.82487 155.30628 C 176.9293 153.5674 176.71574 152.91135 175.83061 151.54786 C 175.40886 150.9409 174.99791 150.32332 174.59296 149.70042 C 174.22482 149.13287 174.22464 149.13281 173.86381 148.57646 C 172.50699 146.52583 171.18267 144.44946 169.87232 142.35669 C 170.92658 143.33009 171.93711 144.31766 172.90831 145.40715 C 173.2431 145.80435 173.5683 146.18952 173.89326 146.57503 C 175.43412 148.40041 176.96723 150.23504 178.49712 152.0734 C 179.48145 153.26057 180.46421 154.44888 181.45869 155.62409 C 184.82908 159.60562 187.05501 163.71366 188.57092 169.08425 C 189.37127 172.65975 190.40586 178.79917 188.94816 182.26278 C 188.41943 182.33605 187.90639 182.40748 187.39321 182.47878 C 186.29845 182.61998 185.56758 182.78769 184.54222 183.30974 C 182.93657 184.81573 181.43646 186.36874 180.77605 188.73112 C 180.57687 190.14331 180.43731 191.23445 181.12383 192.46474 C 182.13544 193.29643 182.13575 193.29643 185.84654 193.32773 C 186.3725 193.32463 186.88271 193.31888 187.39321 193.31688 C 190.69592 193.38138 193.30165 193.58386 195.99837 191.13045 C 198.50405 187.83164 198.50397 187.83191 198.64421 177.79793 C 198.64911 177.18281 198.65106 176.58578 198.65506 175.98874 C 198.66816 174.36551 198.67948 172.74205 198.68348 171.11875 C 198.68728 169.43517 198.69645 167.75229 198.71965 166.06893 C 198.73845 164.7435 198.75028 163.41967 198.75428 162.09398 C 198.75728 161.44747 198.75689 160.81975 198.75789 160.19229 C 198.77739 159.01551 198.78567 157.83825 198.78167 156.66124 C 198.66388 154.08739 198.2206 152.69779 196.6526 150.91585 C 195.97847 150.2395 195.97869 150.23917 195.34001 149.42395 C 195.14571 149.17488 194.95696 148.93334 194.76847 148.6917 C 190.73027 143.69073 187.86928 138.63286 185.91682 132.04465 C 185.81949 131.69794 185.72513 131.3611 185.63053 131.02456 C 184.64444 127.54443 184.24694 124.38382 184.25594 120.71201 C 184.26394 120.10333 184.27071 119.51221 184.27971 118.92142 C 184.28851 116.96553 184.29786 115.00988 184.31536 113.05408 C 184.34126 110.40695 184.35826 107.75971 184.37376 105.11245 C 184.37676 104.45771 184.38154 103.82246 184.38254 103.18698 C 184.41758 96.532728 184.58685 89.694881 183.35728 83.161849 C 183.25415 82.680172 183.2541 82.680038 183.15316 82.207902 C 183.07748 81.85128 183.00394 81.504986 182.93044 81.15887 C 182.85251 80.797033 182.77669 80.446054 182.70099 80.094853 C 182.5493 79.382782 182.39812 78.670596 182.24624 77.958549 C 182.07043 77.140245 182.07041 77.14009 181.89794 76.337976 L 182.72735 76.337976 C 185.14102 75.217323 187.13582 73.599112 188.94764 71.411145 C 192.26928 67.020121 193.2592 62.855287 193.2156 57.068868 C 193.11034 52.151796 191.51993 47.559616 188.50684 44.0986 C 184.64694 40.419282 180.52326 39.456216 175.67713 39.880253 C 175.51916 41.522257 175.59011 42.192299 176.39027 43.577185 C 176.71193 43.995306 177.02377 44.401269 177.33595 44.807084 C 177.64879 45.219963 177.95266 45.620748 178.2563 46.02148 C 178.90565 46.857641 179.54823 47.700734 180.18538 48.550008 C 180.48555 48.952408 180.77719 49.343351 181.06853 49.733915 L 182.131 51.150366 C 183.26589 54.081271 183.09633 57.309491 182.23487 60.326034 C 180.72548 62.799402 179.07739 63.788998 176.70446 64.752637 C 174.74548 65.237207 173.29706 65.321504 171.48669 64.231222 C 162.99614 57.31469 153.7034 55.987438 143.63671 56.027588 C 142.55772 56.035438 141.47924 56.045225 140.40022 56.046191 C 135.946 56.045721 131.52157 56.038958 127.12144 56.967065 C 121.27283 58.32854 115.45184 59.119906 109.48789 59.207756 C 108.81744 59.212946 108.81748 59.212891 108.16032 59.218091 C 106.06248 59.240979 104.09449 59.252559 102.0439 58.688924 C 101.25861 58.369813 100.47067 58.057519 99.675053 57.776835 C 95.365516 56.283112 91.223858 54.613239 87.166772 52.320321 C 84.718618 50.932749 82.539501 49.947303 79.857658 49.425924 C 76.087804 48.697273 73.528679 46.485191 70.682507 43.575635 C 70.156165 42.999983 69.629404 42.425101 69.101725 41.851192 C 67.560685 40.369279 66.148662 38.981809 64.954692 37.084041 C 63.223518 34.115468 61.686547 32.008347 59.148844 30.027108 C 56.4392 27.99174 54.776335 25.635621 53.006584 22.513871 C 51.119091 19.177094 49.149732 16.523836 46.580103 13.91543 C 45.458608 12.807836 45.458986 12.807531 44.466536 11.601876 C 43.415127 10.348991 42.33981 9.1517914 41.225907 7.9783244 C 40.966215 7.7067767 40.714186 7.4429693 40.46213 7.1794067 C 40.200791 6.896082 39.946842 6.6213734 39.693184 6.3463826 C 39.314847 5.9527731 39.314731 5.952398 38.943876 5.5665853 C 38.273129 4.8557221 38.27313 4.855687 37.584786 4.4079997 C 36.670453 4.5819266 36.670919 4.5822481 35.926489 4.9009928 L 35.926489 8.3493612 C 35.315492 7.8888717 34.703957 7.4293354 34.090942 6.972701 C 33.708898 6.6884301 33.708852 6.6880737 33.334399 6.4094279 C 31.924763 5.3438771 30.577862 4.1427129 28.877824 3.91604 z M 30.817757 25.969991 A 3.4626663 3.6357996 0 0 1 34.280595 29.605945 A 3.4626663 3.6357996 0 0 1 30.817757 33.241382 A 3.4626663 3.6357996 0 0 1 27.354919 29.605945 A 3.4626663 3.6357996 0 0 1 30.817757 25.969991 z " /></g></svg>
