<svg xmlns="http://www.w3.org/2000/svg" xml:space="preserve" id="_x32_" width="800" height="800" fill="#000" viewBox="0 0 512 512"><g id="SVGRepo_iconCarrier" transform="matrix(-1 0 0 1 512 0)"><style id="style1" type="text/css">.st0{fill:#000}</style><g id="g2"><path id="path1" d="M464.718 54.963c-9.196-9.196-10.582-26.744-40.718-28.899-36.776-2.631-61.733 5.253-81.436 43.349-19.704 38.087-31.522 52.537-31.522 52.537s-66.257-14.745-113.081 54.774C154.619 241.088 86.534 350.506 94.419 364.947c65.667 9.196 127.359-37.538 136.555-48.046s19.678.549 11.794 8.434c-70.921 69.617-142.079 59.118-142.079 59.118L0 442.498l77.551 30.35 190.141-109.213s-3 18.171-1.312 40.096c1.508 19.687 45.521 26.965 56.479 5.868 5.754-11.048 31.522-70.929 31.522-70.929 110.336-72.24 85.182-191.952 82.559-218.228-2.623-26.268 17.08-24.958 27.58-24.958 10.508 0 25.162-6.368 31.719-5.056C502.804 91.739 512 98.304 512 98.304c0-11.818-2.623-43.341-47.282-43.341" class="st0"/><path id="path2" d="M345.612 454.946h-52.267l4.836-36.22c-8.458-.776-17.023-4.701-23.957-10.366l-7.844 46.586h-5.057c-16.868 0-17.704 28.083-17.704 28.083s10.958-5.686 16.015-5.686h74.175c13.49 0 20.236 9.054 21.916 9.054 3.369-28.126-10.113-31.45-10.113-31.45" class="st0" style="stroke-width:1.1551"/></g></g></svg>