<?xml version="1.0" encoding="UTF-8" standalone="no"?>
<svg
   width="200mm"
   height="200mm"
   viewBox="0 0 200 200"
   fill="#ffbb54"
   version="1.1"
   id="svg1"
   sodipodi:docname="elephant.svg"
   inkscape:version="1.4.2 (f4327f4, 2025-05-13)"
   xmlns:inkscape="http://www.inkscape.org/namespaces/inkscape"
   xmlns:sodipodi="http://sodipodi.sourceforge.net/DTD/sodipodi-0.dtd"
   xmlns="http://www.w3.org/2000/svg"
   xmlns:svg="http://www.w3.org/2000/svg">
  <defs
     id="defs1" />
  <sodipodi:namedview
     id="namedview1"
     pagecolor="#ffffff"
     bordercolor="#000000"
     borderopacity="0.25"
     inkscape:showpageshadow="2"
     inkscape:pageopacity="0.0"
     inkscape:pagecheckerboard="0"
     inkscape:deskcolor="#d1d1d1"
     inkscape:zoom="4.2711268"
     inkscape:cx="50.572135"
     inkscape:cy="99.622424"
     inkscape:window-width="2560"
     inkscape:window-height="1494"
     inkscape:window-x="-11"
     inkscape:window-y="-11"
     inkscape:window-maximized="1"
     inkscape:current-layer="svg1" />
  <path
     d="M 191.77835,63.260617 C 165.51387,-5.3159816 74.833075,-21.797448 26.718992,33.063905 -6.7909979,71.213385 -8.3759439,131.37635 22.869858,172.17656 c 7.811471,10.14258 16.868225,19.0172 26.943744,25.35617 3.396353,-3.22703 6.339953,-5.99314 9.622766,-9.10508 -1.811294,-1.15259 -3.50933,-2.18981 -5.207366,-3.3424 -9.849283,-6.56943 -16.641989,-15.44405 -20.491096,-26.73922 -4.075342,-11.98656 2.377588,-23.51191 14.604178,-26.27801 4.641354,-1.0375 9.169731,-1.95935 13.811367,-2.88148 9.39653,-1.95935 15.509684,2.53564 16.641989,12.10193 1.584777,13.13886 3.056577,26.27801 4.754613,39.41716 1.245283,9.33554 5.207648,12.79331 14.490919,13.60007 10.868048,0.92185 21.736098,2.07444 32.604148,3.11194 7.01922,0.69139 10.41529,-1.6138 11.32108,-8.64415 2.71708,-20.28488 5.20765,-40.68513 7.69821,-61.0851 0.45276,-3.68823 1.4718,-6.6848 5.6604,-6.33925 4.52838,0.46121 4.86816,4.03407 4.30214,7.8374 -0.45303,2.99657 -0.79253,6.10851 -1.1323,9.10508 -2.37731,19.82395 -4.75461,39.53253 -7.24518,59.58694 9.05675,3.4575 16.0757,1.49815 20.94357,-5.76267 3.62287,-5.41712 7.24546,-10.83397 10.0758,-16.59692 17.88699,-36.07476 24.33992,-73.41721 9.50951,-112.258353 z M 86.380394,84.813457 c -3.169836,0 -5.660401,-2.651016 -5.660401,-5.762676 0,-3.11194 2.603824,-5.762956 5.660401,-5.762956 3.056577,0 5.660401,2.651016 5.660401,5.762956 0,3.11166 -2.603824,5.762676 -5.660401,5.762676 z M 120.45634,104.1762 c -3.16984,2.65102 -3.2831,2.53565 -6.67945,-1.38305 19.58531,-24.088202 24.00043,-50.827422 15.39671,-80.217433 7.92445,8.759301 11.88681,19.362804 12.67934,30.773064 1.4718,20.630711 -5.77366,37.688276 -21.3966,50.827419 z"
     fill="#FFBB54"
     id="path1"
     style="fill:#000000;fill-opacity:1;stroke-width:2.80874" />
</svg>
