<svg xmlns="http://www.w3.org/2000/svg" xml:space="preserve" width="800" height="800" viewBox="0 0 512 512"><path d="M18.596 230.497c4.81-1.179 14.288-4.521 21.98-7.622a8.3 8.3 0 0 1 5.115-.354l35.387 8.847a8.3 8.3 0 0 1 2.69 1.214c49.458 34.035 77.146 43.07 77.402 43.152a8.3 8.3 0 0 1 5.728 6.741l4.408 30.851 13.759-38-7.254-14.508a8.294 8.294 0 0 1 14.836-7.418l8.642 17.283c12.143-.937 26.235-4.442 36.039-8.919-4.483-11.002-4.99-23.018 2.776-35.561a8.294 8.294 0 1 1 14.104 8.732c-10.233 16.531 3.884 32.7 23.402 52.119l2.084 2.078-1.13-2.091a8.29 8.29 0 0 1 2.278-10.547c12.04-9.154 28.793-38.458 28.793-54.773a8.293 8.293 0 0 1 12.499-7.148c7.297 4.293 14.256 13.144 23.068 24.349 13.29 16.904 29.83 37.94 54.676 53.472 20.845 13.03 43.868 19.839 69.775 20.55-26.498-16.625-57.542-44.537-84.134-68.448-10.651-9.576-20.712-18.622-28.664-25.25-23.048-19.206-45.513-16.02-46.407-15.884a8.3 8.3 0 0 1-6.12-1.387c-.25-.174-25.504-17.278-82.3-7.468-58.665 10.134-86.943 9.125-90.111 8.967-21.11-.12-58.397-16.539-62.594-18.417a8.3 8.3 0 0 1-2.37-1.6l-6.068-5.852.21 8.144a8.294 8.294 0 0 1-8.075 8.506c-4.57.088-8.387-3.497-8.506-8.076l-.014-.556c-3.508 2.627-7.6 6.946-9.93 13.727-4.472 13.01-11.651 24.684-16.007 31.107q.014.02.033.04" style="fill:#000;fill-opacity:1"/><path d="M326.859 300.82c-6.61-12.399-11.46-31.954-1.18-58.336a8 8 0 0 1 .433-.923 206 206 0 0 0-2.723-3.306c-4.528 14.91-13.862 31.347-23.323 42.459 2.75 4.731 14.87 14.632 26.793 20.106" style="fill:#000;fill-opacity:1"/><path d="M1.73 225.492c.115-.147 11.44-14.925 17.149-31.535 6.08-17.691 20-24.887 25.132-27.001l-.238-9.161a8.3 8.3 0 0 1 4.949-7.806 8.3 8.3 0 0 1 9.1 1.62l19.584 18.888c11.58 5.069 40.439 16.39 54.739 16.39.157 0 .326.006.483.014.27.014 27.758 1.419 86.572-8.739 53.216-9.191 82.85 3.611 91.768 8.496 8.586-.572 32.63-.046 56.499 19.845 8.192 6.826 18.365 15.974 29.137 25.658 35.224 31.671 83.466 75.045 108.299 78.667a8.294 8.294 0 0 1 .016 16.412c-43.246 6.396-81.545-.595-113.838-20.781-23.292-14.56-40-33.604-52.696-49.426-7.837 30.399 10.455 46.013 11.26 46.679a8.3 8.3 0 0 1 3.114 6.476c0 19.396-8.91 45.793-9.29 46.906a8.29 8.29 0 0 1-7.85 5.621h-8.847a8.294 8.294 0 0 1 0-16.588h2.752c1.778-5.994 4.445-15.904 5.796-25.39-12.397-2.016-24.851-9.652-30.126-13.217-.26-.176-.504-.348-.758-.522a8.3 8.3 0 0 1-1.06 1.752l-40.915 50.868a8.3 8.3 0 0 1-6.462 3.095h-8.847a8.294 8.294 0 0 1 0-16.588h4.875l26.704-33.199c-1.982-3.33-8.152-9.47-12.823-14.117-6.453-6.419-14.124-14.055-20.32-22.598-12.964 6.206-31.62 10.701-47.278 11.245l-18.038 49.821h22.648a8.294 8.294 0 0 1 0 16.588h-24.411c-10.358 0-19.272-7.732-20.738-17.985l-5.148-36.036-21.557 57.486a8.29 8.29 0 0 1-7.766 5.382h-8.847a8.294 8.294 0 0 1 0-16.588h3.1l22.887-61.032c-13.483-6.25-35.375-17.818-64.835-37.995l-31.342-7.835c-7.851 3.089-21.917 8.262-28.045 8.262-7.794 0-15.276-13.114-15.343-13.247a8.3 8.3 0 0 1 .856-8.785" style="fill:#000;fill-opacity:1"/></svg>