<svg xmlns="http://www.w3.org/2000/svg" xml:space="preserve" width="800" height="800" viewBox="0 0 256 115"><path d="M131.495 60.239a46 46 0 0 0 5.204-2.593l16.398-8.75 24.477 24.723-13.45 39.841h-17.126c-4.054 0-7.34-3.14-7.34-7.016s3.286-7.016 7.34-7.016h5.99l5.316-15.643z" style="fill:#000;fill-opacity:1;stroke-width:1.21507"/><path d="m29.367 69.746 26.99-22.785 11.59 14.91L39.16 76.629l-8.685 11.71c-1.903 2.738-5.639 3.416-8.342 1.515-2.705-1.9-3.354-5.66-1.45-8.399z" style="fill:#000;fill-opacity:1;stroke-width:1.01534"/><path d="m1.702 44.814 6.723 6.034a6 6 0 0 0 6.37 1.048L32.032 44.5l18.99-2L70.01 65.57v35.896h-4.998a5.997 5.997 0 1 0 0 11.993h14.991L90.496 65.49h33.48c6.647 0 12.893-1.43 18.54-4.907l17.58-9.814 22.38 23.691a27 27 0 0 0 3.765 3.314l21.686 15.8-2.84 7.924-5.58.019a5.972 5.972 0 0 0 .02 11.944h14.016l9.584-26.974a6.48 6.48 0 0 0-.939-5.966l-17.73-21.688 3.455-23.346 16.762 14.01a18.96 18.96 0 0 0 12.195 4.431 18.98 18.98 0 0 0 13.968-6.108c3.582-3.873 5.364-8.902 5.02-14.164-.346-5.262-2.77-10.016-6.826-13.386a4.997 4.997 0 0 0-6.388 7.687 8.94 8.94 0 0 1 3.24 6.353 8.95 8.95 0 0 1-2.383 6.722 9.023 9.023 0 0 1-12.417.796s-19.77-16.559-26.383-22.05c-8.62-7.16-19.886-10.375-30.766-10.375h-67.968a27.26 27.26 0 0 1-13.553-3.608c-4.058-2.318-8.143-4.226-12.684-4.226-5.35 0-28.957 5.155-41.36 7.513-.913-2.955-2.814-5.21-4.47-6.706a2.857 2.857 0 0 0-4.473.841l-4.266 8.531L9.542 22.835a4.94 4.94 0 0 0-2.088 4.048v2.069L.95 38.191a5.017 5.017 0 0 0 .753 6.623" style="fill:#000;fill-opacity:1;stroke-width:1.01534"/></svg>