<svg xmlns="http://www.w3.org/2000/svg" xml:space="preserve" width="800" height="800" viewBox="0 0 249.072 249.072"><path d="M5.917 65.825c9.978-5.69 6.233-10.809 10.392-13.727 4.158-2.904 6.514-3.043 6.514-3.043s-1.878-8.875 8.14-8.73c0 0 13.26-23.551 39.11-.809 0 0-3.305-1.152-5.614 0-2.309 1.164 18.997 4.469 27.92 20.652-5.95-2.637-6.614-.76-6.614 2.149 0 10.068 11.775 23.676 34.387 24.969 10 .584 16.92-4.859 40.331-4.859 23.42 0 38.585 19.725 45.903 48.662 7.322 28.936 10.98 32.932 18.297 32.932 7.316 0 14.301-9.311 13.97-18.625-.332-9.316-1.918-18.195-6.767-21.523-4.852-3.326-.278-12.041 7.342-7.611 7.621 4.436 9.974 16.469 9.838 29.361-.139 12.877-5.543 30.34-23.69 30.34-18.152 0-25.494-18.846-25.494-18.846s1.803 20.645-4.295 51.68c.557 4.148 2.215 10.67-9.145 10.531-11.358-.141-14.413-.695-14.13-7.063.273-6.369 3.878-7.07 6.787-7.07 2.907 0 7.343.83 6.93-4.855-.42-5.67-5.048-43.08-33.725-58.592-14.413 5.393-23.578 13.857-52.392 5.539-1.53-.283-4.576 8.438-4.576 19.25 0 10.809-11.967 23.287-14.323 35.746-.833 5.268 5.403 17.045-5.405 17.045s-16.9 1.52-16.629-5.82c.274-7.342 2.221-9.293 6.65-9.43 4.436-.133 8.733-2.344 7.76-11.766-.972-9.43 1.803-33.381-5.123-42.811-1.252-1.664-20.924.41-32.146-18.98-.692 5.688 1.523 13.16 1.523 13.16s-21.748-17.316-14.542-42.392c.968-2.074-1.94-2.213-3.465-.279 0-6.373 5.261-14.408 5.261-14.408s.004-3.742-3.737-.693C17.417 88.968 5.087 96.44 3.424 77.458c-2.35-.42-7.482-5.963 2.493-11.633"/></svg>