<svg xmlns="http://www.w3.org/2000/svg" xml:space="preserve" width="800" height="800" viewBox="0 0 512 512"><g style="fill-rule:nonzero"><path d="M477.182 216.76c-9.287 0-19.21 2.227-29.716 4.585-12.812 2.875-27.045 6.054-41.742 5.331a8.29 8.29 0 0 0-15.009-6.252c-26.998 40.15-66.915 58.805-67.305 58.984a8.3 8.3 0 0 0-4.418 4.902c-.08.238-8.044 23.971-15.272 47.761-4.271 14.056-7.462 25.412-9.485 33.756-3.231 13.322-4.865 21.685 1.974 25.594 11.101 6.344 13.85 14.434 14.275 19.883h-16.346c-9.56-6.945-18.535-14.947-20.727-18.479.474-1.821 1.619-4.73 2.652-7.356 3.982-10.123 9.433-23.987 5.773-38.628-4.041-16.166-13.505-54.024 7.389-81.387a8.292 8.292 0 0 0-13.178-10.064 76.4 76.4 0 0 0-8.914 14.976c-15.1 2.384-54.394 4.801-84.079-.643a86 86 0 0 0 1.77-4.046c13.35-33.125-.314-60.883-.901-62.048a8.29 8.29 0 0 0-11.137-3.665 8.29 8.29 0 0 0-3.667 11.135c.111.219 10.899 22.143.325 48.38-10.708 26.568-39.002 48.055-84.096 63.863a8.29 8.29 0 0 0-5.412 6.333c-5.289 28.911-12.909 62.157-16.505 67.753-6.926 10.775-18.519 14.645-34.464 11.496-.241-.048-.881-.174-1.092-1.099-.111-.481-.095-1.165.599-1.685l20.376-15.282a8.28 8.28 0 0 0 3.287-5.944c.035-.423 3.454-41.073 8.2-67.09 6.4-5.788 24.948-23.742 43.585-52.938a8.29 8.29 0 0 0-.182-9.194c-21.935-31.535-19.733-77.392-16.449-90.53.225-.9.297-1.831.214-2.753-.056-.628-.642-6.302-3.785-12.067-4.627-8.49-12.496-13.166-22.158-13.166-8.456 0-29.34-1.503-40.597-15.429-2.762-3.417-3.931-6.476-4.277-8.34 3.545-.135 10.721 1.171 15.74 2.087 6.019 1.098 12.84 2.342 19.653 2.866 20.03 1.542 34.285 10.693 38.989 15.283a8.29 8.29 0 0 0 8.17 2.099c.484-.14 48.932-13.88 92.456-.061 35.34 11.221 69.867 6.335 95.076 2.767 9.02-1.276 16.809-2.378 22.39-2.378 19.47 0 30.856 6.219 42.911 12.804 12.356 6.747 25.133 13.725 45.518 13.725 11.449 0 24.73-8.069 40.603-24.667a218 218 0 0 0 8.504-9.456l4.751 19.001c1.11 4.441 5.61 7.137 10.053 6.032a8.27 8.27 0 0 0 5.622-4.829c4.44 2.913 9.158 7.85 10.76 16.06 3.265 16.735 11.75 34.05 16.078 42.153-3.173 3.987-9.148 9.867-16.78 9.867" style="fill:#000;fill-opacity:1;fill-rule:nonzero" transform="matrix(-1 0 0 1 512.004 0)"/><path d="M405.47 312.386c9.954 7.189 20.248 14.624 22.068 16.201 5.714 4.951 6.139 11.698 5.489 16.485-1.122 8.273-5.762 14.365-8.046 15.453-2.222 1.058-3.937.841-5.925-.742-4.799-3.822-7.408-12.557-6.368-17.24 1.518-6.831-4.856-10.121-7.577-11.527-2.277-1.176-5.445-2.622-9.685-4.425-6.82-2.898-16.348-6.679-28.32-11.235-14.507-5.521-29.191-10.882-36.459-13.518.986-3.008 1.977-6.009 2.97-8.984 4.706-2.428 13.897-7.558 24.856-15.652 5.782 5.203 19.406 15.256 46.997 35.184m-251.386 84.55a8.3 8.3 0 0 0 6.765 4.4c11.285.788 25.07 5.287 25.07 9.416v.553h-20.13a24.6 24.6 0 0 1-19.165-9.112L97.31 336.63q10.818-4.061 20.407-8.601z" style="fill:#000;fill-opacity:1;fill-rule:nonzero" transform="matrix(-1 0 0 1 512.004 0)"/><path d="M510.854 203.155c-.128-.218-12.873-22.023-16.692-41.594-4.423-22.668-22.807-30.217-30.186-32.363l-5.032-20.127V92.406a8.29 8.29 0 1 0-16.58 0v14.988c-12.349 16.716-33.363 38.623-44.767 38.623-16.153 0-26.078-5.421-37.57-11.697-12.729-6.952-27.157-14.832-50.859-14.832-6.749 0-15.074 1.177-24.714 2.542-23.631 3.344-55.995 7.924-87.736-2.153-40.783-12.945-83.975-4.51-97.703-1.2-6.737-5.223-22.286-15.052-45.656-16.849-5.956-.459-12.053-1.571-17.95-2.647-7.197-1.313-13.403-2.448-18.767-2.327-12.493.28-15.518 8.138-16.24 11.502-1.519 7.089 1.35 15.991 7.673 23.814 6.516 8.061 22.132 21.585 53.491 21.585 6.746 0 8.707 5.959 9.264 9.016-3.92 18.165-4.643 63.545 16.212 97.65-20.066 30.151-39.432 46.526-39.628 46.69a8.3 8.3 0 0 0-2.831 4.786c-4.366 22.459-7.63 56.61-8.643 67.916l-17.412 13.06c-5.83 4.373-8.442 11.515-6.816 18.638 1.607 7.043 6.989 12.284 14.046 13.678 4.587.905 8.996 1.353 13.203 1.353 16.54-.001 29.919-6.925 38.419-20.149 4.556-7.088 10.189-30.836 14.172-49.834l41.909 55.718q.083.11.168.217c7.878 9.782 19.599 15.392 32.158 15.392h28.42a8.29 8.29 0 0 0 8.29-8.29v-8.843c0-18.66-24.854-24.016-35.817-25.47l-34.256-64.908c18.021-10.326 31.957-22.199 41.702-35.555 15.725 3.549 34.358 4.772 51.445 4.772 13.791 0 26.553-.795 35.959-1.798-5.204 25.31 1.005 50.201 4.223 63.07 2.372 9.492-1.781 20.052-5.118 28.537-1.906 4.844-3.55 9.026-3.932 12.841-.302 3.015-1.219 12.191 30.012 34.137a8.3 8.3 0 0 0 4.766 1.507h26.529a8.29 8.29 0 0 0 7.953-5.95c.222-.754 2.117-7.619.355-16.488-1.481-7.458-5.855-17.725-18.048-26.031 1.356-9.26 8.619-34.489 17.287-61.792 29.249 10.573 60.019 22.359 70.342 27.296.054 10.192 5.141 21.711 12.831 27.834 4.161 3.314 8.894 4.997 13.73 4.997 3.219-.001 6.483-.747 9.652-2.256 8.511-4.052 15.645-15.645 17.348-28.194 1.696-12.497-2.233-23.594-11.06-31.245-2.265-1.962-9.906-7.498-23.218-17.112-13.765-9.942-35.435-25.595-43.584-32.276 7.797-6.798 15.908-14.913 23.583-24.415a98 98 0 0 0 14.964 1.141c14.785 0 28.485-3.073 40.956-5.873 9.584-2.15 18.635-4.182 26.084-4.182 21.286 0 33.269-21.042 33.769-21.938a8.3 8.3 0 0 0-.1-8.247" style="fill:#000;fill-opacity:1;fill-rule:nonzero" transform="matrix(-1 0 0 1 512.004 0)"/></g></svg>