<svg xmlns="http://www.w3.org/2000/svg" xml:space="preserve" width="800" height="800" viewBox="0 0 511.995 511.995"><path d="m294.806 293.539-2.027.025q-2.662.034-5.377.034c-5.087 0-10.362-.093-15.682-.278l-2.062-.071-.213 2.052c-.305 2.94-.676 6.034-1.13 9.458l-.07.512 19.699 58.208.283.327a281 281 0 0 1 10.816 13.296l4.733 6.202z" style="fill:#000"/><path d="m270.506 305.053 19.394 57.308a281 281 0 0 1 10.9 13.401l-7.993-79.985c-6.767.087-13.8.011-21.164-.244a337 337 0 0 1-1.137 9.52" style="fill:#000"/><path d="M241.105 377.718v-2.311a6.2 6.2 0 0 1 .245-1.718c.167-.552 17.446-60.417 17.446-104.428a6.09 6.09 0 0 1 6.08-6.081 6.09 6.09 0 0 1 6.082 6.081c0 3.161-.077 6.396-.23 9.614l-.106 2.24 2.24.074c4.82.16 9.625.24 14.28.24 3.56 0 7.119-.046 10.577-.14l.328-.009.312-.104a5.5 5.5 0 0 1 1.266-.271 6 6 0 0 1 .632-.035c.503 0 1.004.067 1.53.205l.318.083.328-.013c83.588-3.256 115.967-32.567 117.303-33.813 1.214-1.211 2.74-1.845 4.358-1.845a6.08 6.08 0 0 1 5.908 4.662c8.329 34.622 29.082 66.703 44.234 90.127 6.58 10.174 11.466 17.83 14.395 23.701l3.089 6.19 1.075-6.833c1.214-7.717 2.66-15.091 4.3-21.918l.179-.744-.32-.697c-3.994-8.683-17.025-38.807-17.025-61.868 0-12.249 3.669-25.396 7.553-39.316 4.768-17.051 10.138-36.259 10.138-57.984 0-36.271-39.632-55.837-55.837-55.837-6.267 0-15.731.802-26.688 1.728l-.443.036c-16.191 1.37-36.237 3.066-55.888 3.066-33.206 0-56.366-4.824-70.8-14.749-14.454-9.938-28.27-14.567-43.48-14.567-10.972 0-21.151 2.331-31.928 4.799-2.81.645-5.575 1.272-8.34 1.866-.637.132-1.326.279-2.026.438-4.615 1.015-10.954 2.409-17.82 2.409-9.51 0-17.47-2.619-24.331-8.007l-1.018-.799-1.196.496c-14.198 5.897-27.398 8.886-39.232 8.886-2.086 0-4.307-.115-6.788-.355l-8.224-.791 6.729 4.793c2.77 1.974 4.424 5.165 4.424 8.537 0 5.792-4.712 10.504-10.504 10.504-5.246 0-9.718-3.922-10.401-9.123l-.418-3.174-2.821 1.514c-11.62 6.236-29.824 11.26-50.674 16.716l-1.25.326c-3.831 1.002-7.533 1.97-11.013 2.92-12.021 3.292-13.154 28.778-13.26 33.854l-.024 1.213 20.523 13.687 23.164-15.448a6.1 6.1 0 0 1 3.898-.998c27.809 2.389 45.819 23.349 57.738 37.218 2.868 3.336 5.576 6.486 7.843 8.658 1.242 1.183 3.089 1.756 5.652 1.756 7.12 0 20.545-4.893 31.223-11.381a6.05 6.05 0 0 1 5.767-.312 6.07 6.07 0 0 1 3.423 4.655c3.22 23.085 11.994 39.962 18.787 50.053 6.392 9.501 12.312 15.015 14.15 16.622l.03.039.216.172a6 6 0 0 1 2.125 3.466c3.962 18.88 10.783 39.561 17.379 59.563l.253.771c3.725 11.328 7.244 22.029 10.226 32.301z" style="fill:#000"/><path d="m16.608 176.34 18.287 12.196 21.938-14.628a8.3 8.3 0 0 1 5.318-1.359c28.693 2.465 47.069 23.837 59.222 37.98 2.984 3.472 5.56 6.457 7.696 8.503 3.925 3.737 21.605-2.268 34.199-9.919a8.28 8.28 0 0 1 7.86-.42 8.3 8.3 0 0 1 4.667 6.347c3.16 22.656 11.764 39.219 18.432 49.126 7.275 10.814 13.91 16.298 13.943 16.342a8.2 8.2 0 0 1 2.908 4.743c3.936 18.752 10.736 39.373 17.314 59.32 3.759 11.433 7.442 22.599 10.504 33.147v-2.311c0-.785.112-1.57.333-2.333.177-.585 17.358-59.807 17.358-103.813a8.296 8.296 0 0 1 8.293-8.293 8.295 8.295 0 0 1 8.293 8.293c0 3.184-.076 6.435-.232 9.719 8.68.287 16.918.31 24.723.1a7.7 7.7 0 0 1 1.769-.376 8 8 0 0 1 2.92.232c83.999-3.273 115.566-32.927 115.887-33.226a8.27 8.27 0 0 1 8.105-2.123 8.28 8.28 0 0 1 5.816 6.048c8.237 34.243 28.869 66.142 43.94 89.439 6.723 10.393 11.533 17.935 14.518 23.916 1.162-7.386 2.587-14.815 4.334-22.091-4.257-9.255-17.227-39.385-17.227-62.792 0-12.583 3.726-25.906 7.664-40.015 4.699-16.805 10.027-35.867 10.027-57.286 0-34.829-38.058-53.626-53.626-53.626-6.257 0-15.843.818-26.944 1.758-39.197 3.317-98.44 8.348-128.128-12.063-28.704-19.736-50.552-14.727-73.683-9.43a657 657 0 0 1-8.348 1.868 108 108 0 0 0-2.002.432c-10.304 2.267-28.404 6.236-44.006-6.015-14.484 6.015-27.863 9.056-40.081 9.056-2.376 0-4.71-.145-7-.365 3.23 2.3 5.354 6.081 5.354 10.338 0 7.01-5.705 12.715-12.715 12.715-6.446 0-11.776-4.821-12.595-11.046-11.621 6.237-29.356 11.201-51.16 16.906-4.268 1.117-8.392 2.19-12.24 3.241-8.607 2.354-11.403 20.564-11.635 31.765" style="fill:#000"/><path d="M23.86 128.585C-1.35 135.473-.142 176.539.079 181.206a8.3 8.3 0 0 0 3.682 6.501l26.536 17.691a8.29 8.29 0 0 0 9.198 0l24.004-16c20.467 3.053 34.74 19.67 45.3 31.944 3.274 3.802 6.093 7.087 8.834 9.697 7.309 6.967 19.117 7.463 35.094 1.482 3.118-1.161 6.092-2.466 8.713-3.704 7.984 35.625 27.255 56.235 33.989 62.527 4.168 18.885 10.792 38.975 17.203 58.424 8.957 27.167 17.415 52.82 17.415 69.868 0 39.462-14.273 55.03-15.115 55.903-2.543 2.289-3.34 5.828-2.123 9.035 1.227 3.216 4.4 5.274 7.839 5.274h17.69a8.3 8.3 0 0 0 7.873-5.672l8.845-26.536a8.4 8.4 0 0 0 .42-2.62v-78.437c1.194-4.202 5.197-18.652 9.1-37.317l10.139 29.954a8.1 8.1 0 0 0 1.603 2.796c33.204 38.102 40.59 65.213 40.944 81.246.332 15.236-5.562 22.843-5.63 22.91a8.31 8.31 0 0 0-1.215 8.857 8.29 8.29 0 0 0 7.53 4.821h14.927a8.3 8.3 0 0 0 7.552-4.865l8.293-18.244a8.3 8.3 0 0 0 .244-6.269l-31.712-86.917-7.828-78.316c60.205-3.273 94.304-19.615 109.96-29.721 7.685 24.292 20.179 46.627 31.855 65.434 5.55 85.259-36.244 145.21-36.665 145.807a8.27 8.27 0 0 0-.608 8.602 8.28 8.28 0 0 0 7.363 4.489h17.692a8.28 8.28 0 0 0 7.596-4.965l11.61-26.536a8.2 8.2 0 0 0 .64-2.344c.068-.541 5.829-47.577 18.853-80.173-.055 73.572-16.286 101.082-16.44 101.358-1.614 2.555-1.692 5.75-.232 8.404 1.448 2.643 4.257 4.257 7.274 4.257h17.69a8.3 8.3 0 0 0 7.873-5.672l8.845-26.536a8.2 8.2 0 0 0 .398-3.206c-.044-.608-4.157-61.985 8.613-112.371a8.28 8.28 0 0 0-.586-5.683c-.177-.344-16.851-34.73-16.851-58.27 0-10.316 3.274-22.003 7.055-35.548 4.987-17.846 10.636-38.069 10.636-61.753 0-45.433-46.382-70.211-70.211-70.211-6.966 0-16.873.84-28.35 1.813-36.841 3.129-92.524 7.851-117.324-9.198-34.707-23.861-62.371-17.526-86.784-11.93-2.71.619-5.396 1.238-8.094 1.802q-1.011.216-2.123.464c-7.906 1.736-15.27 2.963-21.97 1.205 20.356-11.223 42.636-27.653 66.739-49.303 3.405-3.064 3.693-8.304.629-11.709-3.052-3.406-8.293-3.693-11.71-.63-8.224 7.386-16.23 14.142-23.992 20.256 3.418-5.716 6.899-12.107 10.438-19.261 2.023-4.102.343-9.078-3.77-11.101a8.273 8.273 0 0 0-11.101 3.758c-13.733 27.775-27.333 44.272-38.478 51.714 3.682-7.729 6.933-17.182 9.73-28.339a8.305 8.305 0 0 0-6.037-10.063c-4.445-1.106-8.945 1.593-10.051 6.037-4.268 17.05-9.277 27.996-14.031 34.365-6.181-5.263-8.513-17.514-5.274-30.318 1.128-4.434-1.56-8.945-6.004-10.072a8.28 8.28 0 0 0-10.073 6.004c-3.682 14.529-2.134 28.306 3.494 38.29-4.655-3.748-9.818-10.791-14.32-21.727-1.746-4.223-6.59-6.246-10.824-4.511-4.235 1.747-6.258 6.602-4.511 10.837 4.92 11.941 10.99 21.129 17.746 27.145-3.085-.166-6.058-.576-8.89-1.262-24.213-5.848-33.237-29.411-36.631-38.278-.564-1.483-.94-2.466-1.37-3.317a8.29 8.29 0 0 0-11.124-3.715 8.3 8.3 0 0 0-3.737 11.09c.133.276.475 1.161.74 1.879 1.969 5.131 6.005 15.624 13.833 25.719-6.512-2.344-13.333-5.828-19.438-11.035-3.482-2.973-8.713-2.564-11.686.918a8.287 8.287 0 0 0 .918 11.687c15.932 13.6 35.017 17.879 47.068 19.173-10.536 6.214-34.055 12.362-49.148 16.309a984 984 0 0 0-12.411 3.288m11.034 59.951L16.608 176.34c.232-11.201 3.029-29.411 11.632-31.765 3.848-1.05 7.972-2.124 12.24-3.241 21.804-5.705 39.539-10.669 51.16-16.906.818 6.225 6.149 11.046 12.595 11.046 7.01 0 12.715-5.705 12.715-12.715 0-4.257-2.124-8.038-5.353-10.338 2.289.22 4.623.365 6.999.365 12.218 0 25.597-3.041 40.08-9.056 15.602 12.251 33.702 8.282 44.007 6.015.686-.156 1.36-.3 2.002-.432a624 624 0 0 0 8.348-1.868c23.13-5.296 44.979-10.305 73.683 9.43 29.689 20.411 88.93 15.38 128.128 12.063 11.1-.94 20.687-1.758 26.944-1.758 15.568 0 53.626 18.797 53.626 53.626 0 21.417-5.328 40.479-10.027 57.286-3.937 14.11-7.664 27.433-7.664 40.015 0 23.407 12.97 53.537 17.227 62.792-1.747 7.275-3.172 14.706-4.334 22.09-2.984-5.981-7.795-13.521-14.518-23.916-15.07-23.296-35.703-55.196-43.94-89.439a8.29 8.29 0 0 0-5.816-6.048 8.27 8.27 0 0 0-8.105 2.123c-.321.299-31.888 29.953-115.887 33.226a8 8 0 0 0-2.92-.232 7.7 7.7 0 0 0-1.77.376 412 412 0 0 1-24.722-.1 205 205 0 0 0 .232-9.719 8.295 8.295 0 0 0-8.293-8.293 8.296 8.296 0 0 0-8.293 8.293c0 44.006-17.181 103.227-17.358 103.813a8.4 8.4 0 0 0-.333 2.333v2.311c-3.063-10.548-6.745-21.716-10.504-33.147-6.578-19.947-13.38-40.568-17.314-59.32a8.2 8.2 0 0 0-2.908-4.743c-.033-.044-6.667-5.528-13.943-16.342-6.667-9.907-15.271-26.469-18.432-49.126a8.31 8.31 0 0 0-4.666-6.347 8.28 8.28 0 0 0-7.861.42c-12.594 7.651-30.274 13.656-34.2 9.919-2.134-2.047-4.71-5.032-7.695-8.503-12.151-14.142-30.528-35.515-59.222-37.98a8.3 8.3 0 0 0-5.318 1.359zM289.9 362.36l-19.394-57.308c.42-3.162.806-6.336 1.138-9.52a446 446 0 0 0 21.164.244l7.994 79.985A283 283 0 0 0 289.9 362.36" style="fill:#000"/></svg>