<svg xmlns="http://www.w3.org/2000/svg" xml:space="preserve" width="800" height="800" viewBox="0 0 512.001 512.001"><path d="m122.297 281.265-2.855-1.607a106 106 0 0 1-3.9-2.319l-2.209-1.37-4.459 10.728 3.425 2.576z" style="fill:#000"/><path d="m114.374 279.22-3.461 8.327 7.442-5.96a112 112 0 0 1-3.981-2.367" style="fill:#000"/><path d="M.099 197.355a8.3 8.3 0 0 0 .774 4.965l8.261 16.51a8.28 8.28 0 0 0 7.42 4.589h16.511c9.278 0 29.845 16.499 46.368 29.769 7.155 5.728 14.177 11.357 20.978 16.422l-15.084 36.305H66.095a8.29 8.29 0 0 0-8.294 8.294 8.29 8.29 0 0 0 8.294 8.294h24.771a8.3 8.3 0 0 0 5.175-1.814l39.866-31.892c1.514.31 3.008.531 4.455.619v16.499h-8.216a8.297 8.297 0 0 0-8.294 8.294 8.297 8.297 0 0 0 8.294 8.294h33.031a8.3 8.3 0 0 0 7.111-4.025l18.679-31.129a26.6 26.6 0 0 0 2.885-6.834c15.67 3.727 34.713 4.191 43.051 4.191 1.702 0 2.94-.022 3.626-.033 7.862 9.897 20.049 17.196 34.669 20.403l.42.84h-19.617a8.297 8.297 0 0 0-8.294 8.294 8.297 8.297 0 0 0 8.294 8.294h33.031a8.3 8.3 0 0 0 3.705-.874l33.031-16.51a8.3 8.3 0 0 0 4.39-5.662c.101-.453.388-1.913.453-4.125 72.62 46.124 168.208 51.698 172.666 51.93.144.011.288.011.431.011a8.294 8.294 0 0 0 8.227-7.265 8.3 8.3 0 0 0-6.613-9.167c-37.178-7.376-72.067-40.982-109.013-76.579-45.284-43.614-92.105-88.71-148.569-88.71-34.778 0-70.851 11.788-82.076 15.791-17.339-7.774-34.524-2.842-41.889.022-9.51-3.804-35.486-13.878-48.236-15.725-18.787-2.742-31.251.641-40.418 10.948-2.267 2.554-8.769 4.246-14 5.618-8.681 2.264-19.474 5.073-21.022 15.148m21.573 9.477-3.294-6.591c2.068-.719 4.832-1.438 6.923-1.991 7.785-2.035 16.611-4.335 22.216-10.638 3.539-3.981 8.726-8.017 25.634-5.562 10.902 1.581 38.051 12.076 47.595 15.979a8.33 8.33 0 0 0 6.944-.299c.144-.077 17.782-8.769 33.475-.111a8.27 8.27 0 0 0 7 .464c.409-.155 41.756-15.946 79.576-15.946 49.774 0 94.151 42.74 137.056 84.077 21.818 21.011 42.951 41.369 64.747 56.641-39.279-8.139-91.905-24.384-130.455-56.32a8.284 8.284 0 0 0-11.169.542c-3.03 3.041-3.229 7.896-.477 11.18 4.777 5.684 6.16 10.915 6.503 14.221l-21.221 10.605a4256 4256 0 0 0-3.362-6.79c-1.703-3.406-3.052-6.104-7.276-6.79-20.215-3.251-30.521-14.685-33.44-24.317-2.223-7.354-.497-14.354 4.733-19.208 3.362-3.107 3.561-8.36.453-11.722-3.118-3.351-8.359-3.561-11.722-.442-9.444 8.747-13.05 21.42-9.853 34.248-10.252-.21-27.69-1.161-39.578-5.076a27 27 0 0 0-2.4-4.512l-9.953-14.918c-2.532-3.815-7.686-4.844-11.501-2.3-3.803 2.532-4.844 7.686-2.3 11.501l9.953 14.918c2.223 3.329 2.323 7.697.265 11.136l-16.267 27.104h-3.528v-32.987a8.28 8.28 0 0 0-5.43-7.785c-1.37-.52-34.104-13.27-27.722-48.546a8.3 8.3 0 0 0-6.69-9.632 8.28 8.28 0 0 0-9.632 6.69c-4.368 24.129 4.865 40.551 14.155 50.492-10.207-6.569-21.696-15.791-31.816-23.897-22.349-17.937-41.646-33.418-56.75-33.418zm89.242 80.714 3.461-8.327a109 109 0 0 0 3.982 2.366z" style="fill:#000"/><path d="M450.811 321.044c-21.622-15.15-42.392-35.151-64.383-56.327l-.098-.094c-43.22-41.639-87.912-84.696-138.591-84.696-37.505 0-78.613 15.426-80.343 16.083a6 6 0 0 1-2.226.428 6.15 6.15 0 0 1-2.943-.757c-4.941-2.726-10.535-4.109-16.624-4.109-10.47 0-18.882 4.169-18.961 4.211a6.1 6.1 0 0 1-2.752.652 6.1 6.1 0 0 1-2.308-.452c-.346-.142-34.786-14.188-48.115-16.122-3.525-.511-6.747-.771-9.574-.771-10.336 0-14.773 3.39-18.031 7.053-5.152 5.793-13.621 8.007-21.093 9.959l-.43.113c-2.08.55-4.669 1.234-6.688 1.936l-2.378.826 5.032 10.065h12.758c14.334 0 33.349 15.26 55.366 32.931l.357.286c10.06 8.058 21.461 17.192 31.646 23.746l2.812-3.369c-8.556-9.157-17.86-25.021-13.594-48.588a6.06 6.06 0 0 1 7.061-4.909 6.1 6.1 0 0 1 4.908 7.065c-6.687 36.966 27.65 50.448 29.114 51.004a6.1 6.1 0 0 1 4.003 5.717v35.199h6.991l16.911-28.178c2.496-4.172 2.369-9.471-.323-13.502l-9.951-14.917c-.901-1.351-1.221-2.975-.901-4.569a6.04 6.04 0 0 1 2.588-3.864 6.06 6.06 0 0 1 3.374-1.025 6.05 6.05 0 0 1 5.059 2.707l9.955 14.922a25 25 0 0 1 2.199 4.138l.39.931.958.315c11.676 3.845 28.318 4.943 40.225 5.187l2.89.06-.699-2.806c-3.031-12.165.326-23.862 9.21-32.091a6.05 6.05 0 0 1 4.127-1.621 6.05 6.05 0 0 1 4.472 1.948 6.09 6.09 0 0 1-.336 8.591c-5.876 5.455-7.825 13.28-5.349 21.472 3.113 10.267 13.994 22.45 35.206 25.861 2.977.483 3.884 2.065 5.649 5.594.682 1.376 3.078 6.211 3.354 6.774l.981 2.002 24.584-12.285-.158-1.523c-.383-3.684-1.91-9.348-7.01-15.416a6.05 6.05 0 0 1 .349-8.195 6.04 6.04 0 0 1 4.316-1.799c1.41 0 2.787.497 3.874 1.399 39.317 32.572 93.167 48.858 131.417 56.783z" style="fill:#000"/><path d="m18.378 200.241 3.294 6.591h11.391c15.105 0 34.401 15.482 56.75 33.418 10.118 8.106 21.608 17.328 31.816 23.897-9.289-9.941-18.523-26.363-14.155-50.492a8.28 8.28 0 0 1 9.632-6.69 8.3 8.3 0 0 1 6.69 9.632c-6.381 35.276 26.352 48.026 27.722 48.546a8.28 8.28 0 0 1 5.43 7.785v32.987h3.528l16.267-27.104c2.057-3.439 1.957-7.807-.265-11.136l-9.952-14.918c-2.543-3.815-1.503-8.968 2.3-11.501 3.815-2.543 8.968-1.515 11.501 2.3l9.952 14.918a27.4 27.4 0 0 1 2.4 4.512c11.888 3.915 29.327 4.866 39.578 5.076-3.197-12.828.409-25.501 9.853-34.248 3.362-3.118 8.602-2.908 11.722.442 3.107 3.362 2.908 8.614-.453 11.722-5.231 4.855-6.956 11.855-4.733 19.208 2.921 9.632 13.226 21.066 33.44 24.317 4.224.686 5.573 3.384 7.276 6.79.686 1.382 3.085 6.226 3.362 6.79l21.221-10.605c-.344-3.306-1.726-8.537-6.503-14.221-2.752-3.284-2.553-8.139.477-11.18a8.284 8.284 0 0 1 11.169-.542c38.549 31.936 91.176 48.181 130.455 56.32-21.796-15.272-42.927-35.63-64.747-56.641-42.906-41.336-87.283-84.077-137.056-84.077-37.82 0-79.167 15.791-79.576 15.946a8.27 8.27 0 0 1-7-.464c-15.692-8.659-33.331.033-33.475.111a8.33 8.33 0 0 1-6.944.299c-9.544-3.904-36.693-14.398-47.595-15.979-16.908-2.455-22.095 1.581-25.634 5.562-5.605 6.303-14.431 8.603-22.216 10.638-2.09.553-4.854 1.273-6.922 1.991" style="fill:#000"/></svg>