<svg xmlns="http://www.w3.org/2000/svg" xml:space="preserve" width="800" height="800" viewBox="0 0 593.943 593.942"><path d="M457.429 325.734c-12.823-40.388-29.702-78.813-56.777-112.061-7.381-9.065-14.3-18.519-21.224-27.944-13.975-19.013-22.102-40.771-25.455-63.693-3.276-22.411-8.07-44.068-17.059-64.855-1.135-2.62-.983-6.467.032-9.205 2.521-6.797 9.103-13.799 8.148-19.768-1.367-8.548 2.011-12.913 6.479-18.278.665-.796.91-1.942 1.061-3.167.225-1.856-1.122-3.729-3.003-4.194-1.276-.318-2.497-.498-3.443-.074-16.984 7.618-35.251 13.562-50.192 24.158-10.832 7.679-20.289 11.041-32.015 7.267-19.56-6.292-38.593-5.333-57.867 1.048-3.676 1.216-9.009 1.163-12.256-.657-18.687-10.457-37.03-21.526-55.463-32.432C136.635.84 134.379 0 133.359 0s-1.248 1.542-.567 3.468c.795 2.256 1.612 4.496 2.872 6.455 4.57 7.099 12.693 12.591 8.409 23.179-.722 1.787 1.195 5.797 3.076 7.291 10.518 8.344 8.05 19.915 5.251 29.376-5.133 17.34-6.577 34.692-3.66 52.02 2.289 13.599-.987 25.219-5.431 37.585-3.672 10.212-5.957 21.306-6.577 32.143-.983 17.217-1.037 34.619.31 51.804 1.436 18.299 4.422 36.532 7.723 54.611 3.354 18.393 8.258 36.504 11.799 54.867 1.844 9.564-.229 20.641 3.889 28.809 4.729 9.385 4.871 18.08 4.341 27.516-1.146 20.535 1.232 40.662 14.737 56.773 12.301 14.676 21.71 31.967 39.013 42.518 10.926 6.658 9.988 15.826-1.636 21.984-7.752 4.104-16.622 6.176-25.092 8.832-10.331 3.24-16.781 12.221-16.092 23.016.49 7.666 4.529 11.963 13.766 14.324 1.979.506 2.583-.518 1.383-2.17-6.916-9.572-7.152-14.578-.677-19.281 1.652-1.201 3.398-.34 3.892 1.643 1.706 6.83 3.982 7.055 12.742 4.064 3.109-1.061 6.226-2.105 8.984-3.027 1.938-.648 4.382.232 5.455 1.967 1.546 2.496 2.946 4.758 4.3 6.936 1.077 1.734 2.391 2.945 2.938 2.705s.991-2.094.991-4.133v-9.988c0-2.043.857-2.281 1.914-.533.987 1.631 1.836 3.031 2.726 4.508 1.057 1.746 3.084 1.994 4.529.551 3.199-3.199 6.03-6.047 8.898-8.854a879 879 0 0 1 7.862-7.58c1.477-1.412 2.521-.887 1.824 1.031-.453 1.24-1.008 2.387-1.506 3.559-7.299 17.18-2.134 35.047 13.301 45.553.555.379 1.33.436 2.15.424 1.232-.02 1.159-1.301-.057-2.941-4.565-6.148-7.54-12.779-5.471-21.307.481-1.986 2.179-2.211 3.9-1.113 4.713 3.016 7.928-.637 10.787-4.65 3.566-5.002 6.863-10.221 9.964-15.525 3.884-6.643 9.18-11.656 17.1-9.869 9.106 2.057 18.919 4.182 21.697 15.619 1.718 7.07 5.63 12.121 13.174 13.887 1.294.303 2.493 1.008 3.966 1.906 1.742 1.064 1.881 2.889.281 4.158-1.762 1.398-3.166 2.512-4.65 3.512-1.335.898-2.738 1.686-4.378 2.6-1.787.99-1.571 1.934.469 2.008 14.558.518 17.883-3.072 19.087-17.891.477-5.904.248-11.865.143-17.182-.041-2.041 1.008-2.42 2.309-.846 7.822 9.451 16.646 19.812 24.925 30.598 4.893 6.373 10.865 10.057 18.626 10.357 8.592.332 17.205.148 26.658.1 2.04-.01 3.473-1.648 3.194-3.672-2.382-17.488-4.361-32.828-6.683-48.117-1.229-8.082-.836-15.344 2.917-23.121 5.312-11.016 9.511-22.717 12.868-34.496 9.548-33.469 11.245-67.777 10.249-102.338-.057-2.041 1.171-2.844 2.754-1.787s2.628.273 2.33-1.75c-1.057-7.197-2.008-13.686-2.995-20.418-.298-2.02.674-2.529 2.167-1.137l.6.559c1.493 1.395 3.179 2.326 3.766 2.08.588-.244.8-2.076.53-4.104-1.048-7.877-1.631-15.884-3.994-23.332"/></svg>