<?xml version="1.0" encoding="utf-8"?>

<!DOCTYPE svg PUBLIC "-//W3C//DTD SVG 1.1//EN" "http://www.w3.org/Graphics/SVG/1.1/DTD/svg11.dtd">
<!-- Uploaded to: SVG Repo, www.svgrepo.com, Generator: SVG Repo Mixer Tools -->
<svg height="800px" width="800px" version="1.1" id="_x32_" xmlns="http://www.w3.org/2000/svg" xmlns:xlink="http://www.w3.org/1999/xlink" 
	 viewBox="0 0 512 512"  xml:space="preserve">
<style type="text/css">
	.st0{fill:#000000;}
</style>
<g>
	<path class="st0" d="M203.882,152.104c5.826,0,10.553-4.726,10.553-10.553c0-5.834-4.726-10.56-10.553-10.56
		s-10.553,4.726-10.553,10.56C193.329,147.378,198.055,152.104,203.882,152.104z"/>
	<path class="st0" d="M308.125,152.104c5.826,0,10.545-4.726,10.545-10.553c0-5.834-4.719-10.56-10.545-10.56
		c-5.834,0-10.56,4.726-10.56,10.56C297.564,147.378,302.291,152.104,308.125,152.104z"/>
	<path class="st0" d="M381.027,208.774c29.251-62.881,10.774-110.69-17.442-149.142C374.041,45.564,366.833,0,366.833,0
		s-80.442,49.441-112.004,49.582C223.274,49.715,142.404,0.976,142.404,0.976s-6.816,45.623,3.766,59.594
		c-27.885,38.704-45.948,86.674-16.143,149.297c-42.809,59.247-68.22,159.015,34.31,250.852c9.275,11.04,22.184,9.135,25.825-3.795
		c0,0,0.236,55.363,66.676,55.075c66.441-0.296,66.204-55.652,66.204-55.652c3.744,12.894,16.675,14.688,25.854,3.575
		C450.613,367.198,424.345,267.645,381.027,208.774z M308.125,100.027c22.929,0,41.524,18.587,41.524,41.524
		c0,22.937-18.595,41.524-41.524,41.524c-22.937,0-41.532-18.587-41.532-41.524C266.593,118.614,285.188,100.027,308.125,100.027z
		 M203.882,100.027c22.937,0,41.524,18.587,41.524,41.524c0,22.937-18.588,41.524-41.524,41.524s-41.524-18.587-41.524-41.524
		C162.357,118.614,180.945,100.027,203.882,100.027z M159.234,385.321c12.074-21.394,18.395-51.228,18.366-80.021
		c0.015-22.405-3.788-44.19-11.077-60.791h0.008l11.077-4.844c8.168,18.698,12.082,41.879,12.088,65.636
		c-0.022,30.528-6.476,61.988-19.917,85.958L159.234,385.321z M244.054,437.051c-4.076,0-7.385-3.308-7.385-7.384
		c-0.036-3.02-0.819-4.785-2.082-6.469c-1.27-1.647-3.249-3.116-5.539-4.246c-3.301-1.662-7.066-2.459-8.986-2.777v21.135
		c0,4.077-3.302,7.378-7.385,7.378c-4.076,0-7.377-3.301-7.377-7.378v-21.127c-0.642,0.096-1.455,0.244-2.438,0.472
		c-2.326,0.539-5.346,1.528-7.842,2.991c-1.683,0.975-3.109,2.126-4.128,3.397c-1.336,1.728-2.164,3.508-2.208,6.624
		c0,4.076-3.301,7.384-7.377,7.384c-4.077,0-7.385-3.308-7.385-7.384c-0.037-6.344,2.208-11.912,5.48-15.9
		c3.264-4.025,7.303-6.609,11.07-8.389c7.539-3.5,14.326-4.018,14.806-4.091l0.318-0.023h14.178l0.303,0.023
		c0.266,0.03,2.541,0.228,5.804,1.004c3.279,0.775,7.554,2.097,11.867,4.586c2.858,1.662,5.76,3.87,8.204,6.89
		c3.272,3.988,5.524,9.556,5.48,15.9C251.432,433.742,248.131,437.051,244.054,437.051z M256.003,200.304l-21.142-12.923
		c0,0,8.219-11.742,21.142-12.916c12.916,1.174,21.142,12.916,21.142,12.916L256.003,200.304z M334.178,437.051
		c-4.077,0-7.378-3.308-7.378-7.384c-0.037-3.02-0.827-4.785-2.082-6.469c-1.27-1.647-3.249-3.116-5.538-4.246
		c-3.301-1.662-7.075-2.459-8.987-2.777v21.135c0,4.077-3.308,7.378-7.385,7.378c-4.076,0-7.384-3.301-7.384-7.378v-21.127
		c-0.635,0.096-1.447,0.244-2.437,0.472c-2.318,0.539-5.339,1.528-7.842,2.991c-1.676,0.975-3.102,2.126-4.12,3.397
		c-1.345,1.728-2.164,3.508-2.208,6.624c0,4.076-3.301,7.384-7.385,7.384c-4.076,0-7.378-3.308-7.378-7.384
		c-0.044-6.344,2.208-11.912,5.48-15.9c3.264-4.025,7.303-6.609,11.062-8.389c7.548-3.5,14.334-4.018,14.814-4.091l0.303-0.023
		h14.185l0.303,0.023c0.266,0.03,2.54,0.228,5.812,1.004c3.272,0.775,7.555,2.097,11.868,4.586c2.865,1.662,5.76,3.87,8.204,6.89
		c3.272,3.988,5.516,9.556,5.48,15.9C341.562,433.742,338.254,437.051,334.178,437.051z M342.212,391.258
		c-13.44-23.971-19.894-55.43-19.924-85.958c0.015-23.757,3.928-46.937,12.088-65.636h0.008l11.078,4.844
		c-7.281,16.601-11.085,38.386-11.07,60.791c-0.03,28.793,6.292,58.627,18.366,80.021L342.212,391.258z"/>
</g>
</svg>