<svg xmlns="http://www.w3.org/2000/svg" xml:space="preserve" width="800" height="800" viewBox="0 0 512 512"><path d="M498.409 278.265c-10.312-5.728-19.471 1.144-9.735 14.318 9.735 13.167.568 28.053-22.335 24.622-22.902-3.44-52.683-112.238-60.122-148.315-6.993-33.895-35.728-43.525-49.146-47.41-1.79-1.039-3.554-1.842-5.256-2.41-33.091-11.036-88.787 5.632-94.505 9.639-5.728 4.008-81.4 26.342-95.143 17.751-22.335-24.622-56.657-4.488-68.688-2.768-12.022 1.72-33.213 29.782-38.364 34.357-5.152 4.584-27.485 17.183-27.485 17.183-.568-3.44-12.022-9.736-18.318-6.872-6.304 2.855-2.297 20.614.567 26.91 2.865 6.303-11.446 20.047-9.734 29.206 1.72 9.159 8.015 17.182 6.871 22.334s1.72 27.486 17.183 23.478c-8.023 4.007 14.887 10.879 22.335 8.015 7.439-2.864 20.038-14.887 18.318-10.879-1.72 4.007-18.894 71.001-25.765 76.729s-18.894 2.864-25.198 8.015c-6.295 5.16-2.864 16.606 5.728 16.039 9.159 1.144 28.062 4.008 34.933-1.72 6.872-5.728 53.251-81.313 56.692-88.184 3.432-6.872 10.879-18.894 14.886-19.471 4.007-.567 35.5 2.297 36.077 5.728.567 3.432 36.068 70.434 32.06 78.449-1.948 3.903-21.758 10.879-20.614 16.606s5.728 9.736 10.879 8.591c5.16-1.152-9.08 4.008-2.776 2.864 6.295-1.152 38.277-2.296 40.574-7.448 2.287-5.151-15.848-105.568-12.024-104.214 26.001 9.203 43.743.515 64.803-5.562 15.21 21.322 37.168 53.95 35.282 62.253-2.864 12.59-10.879 37.221-16.606 36.644-5.728-.567-18.318-6.295-24.622 1.72-6.295 8.015-6.295 16.03 2.288 16.03 8.024 2.288 14.895 3.44 17.183 1.72 2.287-1.72 14.886 1.72 19.47-4.008 4.575-5.728 36.078-47.532 38.364-50.964 2.288-3.43 2.864-8.023-1.719-17.182-3.955-7.902-16.424-44.791-19.777-58.438 22.894 19.383 56.203 43.752 59.04 47.156 2.864 3.432 38.076 61.336 31.205 67.632-18.318 1.144-14.887 16.606-14.887 16.606s5.728 1.144 8.592 2.864 10.879 0 21.19 0c10.302 0 15.454-2.296 17.75-10.879 1.51-5.684-8.766-41.001-17.716-67.098 14.79 14.485 31.013 22.622 41.927 23.347 17.174 1.144 35.5-12.599 38.932-25.198 3.436-12.588-2.292-32.058-12.594-37.786" style="fill:#000"/></svg>