<svg xmlns="http://www.w3.org/2000/svg" xml:space="preserve" width="800" height="800" viewBox="0 0 512 512"><path d="M174.826 67.273c2.174-3.548 6.271-14.228 9.365-25.959 3.78-14.318 3.894-21.599 3.625-24.666l-.212-2.427-2.394.446c-6.062 1.127-10.687 5.184-12.905 7.502l-.742.776.15 1.063c1.198 8.463.869 22.56-.974 41.9z" style="fill:#000"/><path d="M173.903 23.698c1.03 7.276 1.194 19.794-.962 42.42 1.836-2.997 5.883-13.126 9.112-25.368 3.45-13.071 3.859-20.491 3.561-23.908-5.353.995-9.511 4.556-11.711 6.856" style="fill:#000"/><path d="M173.681 497.624a14.22 14.22 0 0 0 13.561-9.832c23.725-72.799 38.717-120.697 40.102-128.124l.057-.306-.029-.31c-.378-3.93-4.681-15.528-8.452-24.02a6.04 6.04 0 0 1-.118-4.653 6.03 6.03 0 0 1 3.207-3.374 6 6 0 0 1 2.457-.525 6.09 6.09 0 0 1 5.561 3.614c4.614 10.338 9.541 23.513 9.541 29.49 0 .933 0 2.672-5.117 19.872l-.738 2.479 2.563.344c11.978 1.602 32.939 3.314 55.846 3.314 17.797 0 33.616-1.035 47.017-3.078l5.18-.79-4.179-3.16c-15.252-11.536-22.665-20.689-22.665-27.983 0-8.377 12.049-31.512 23.211-48.142 17.353-25.884 32.804-39.007 45.925-39.007 16.113 0 33.132 5.106 33.848 5.323 3.211.979 5.033 4.384 4.055 7.589-.771 2.545-3.164 4.32-5.819 4.32a6 6 0 0 1-1.764-.263c-.04-.017-15.878-4.806-30.322-4.806-6.302 0-18.861 8.59-35.205 32.696-13.053 19.258-20.951 37.179-21.705 41.8l-.092.562.191.535c.917 2.578 6.056 10.567 33.892 29.046 18.725 12.434 40.618 24.891 52.38 31.585l1.61.92c3.734 2.134 6.432 3.677 8.126 4.7a6.12 6.12 0 0 1 2.834 4.2 6.04 6.04 0 0 1-1.327 4.884L382.28 480.57a6.1 6.1 0 0 1-4.682 2.19h-19.076a8.7 8.7 0 0 0-7.286 3.912l-7.314 10.95h45.394a7.92 7.92 0 0 0 5.938-2.673l56.968-64.075c4.402-4.971 4.712-12.424.734-17.725l-17.172-22.891a6.1 6.1 0 0 1-1.14-4.532 6.1 6.1 0 0 1 2.404-4.012c1.768-1.334 42.56-32.607 42.56-76.173 0-43.9-55.18-93-129.028-93H229.536a5.8 5.8 0 0 1-1.749-.263l-59.135-18.02a6.09 6.09 0 0 1-3.956-3.784c-.063-.178-6.707-18.737-17.342-34.683a6.03 6.03 0 0 1-.934-4.445c.011-.043 4.246-23.862 8.064-51.64l.013-.097.006-.098a7 7 0 0 1 .144-1.09l.024-.145a525 525 0 0 0 .867-6.496c5.703-43.846 5.063-60.132 4.171-65.937l-.394-2.575-2.477.808c-2.447.798-4.601 2.256-6.586 4.46-8.758 9.731-12.604 33.36-9.801 60.198 3.944 37.922-9.522 57.384-10.098 58.193-1.271 1.793-3.036 2.82-4.844 2.82-1.53-.036-3.525-.492-4.837-2.465l-.114-.171-.144-.147c-1.052-1.081-7.063-6.475-22.043-6.475-6.803 0-22.537 8.414-39.444 24.495-16.372 15.588-26.541 31.481-26.541 41.479 0 20.094 32.252 20.657 32.578 20.657.464.009.93.069 1.342.179 7.527 1.881 15.014 2.83 22.29 2.83 21.126 0 39.674-7.94 52.226-22.357a6.1 6.1 0 0 1 4.594-2.086 6.1 6.1 0 0 1 3.998 1.495c2.525 2.202 2.79 6.057.588 8.591-14.908 17.108-36.678 26.531-61.297 26.531-2.838 0-5.738-.128-8.621-.379l-2.728-.239.342 2.717c5.276 42.057 32.277 73.408 54 92.304 15.037 13.089 29.323 21.867 38.659 26.926l4.486 2.431-1.293-4.935c-.723-2.763.608-5.701 3.165-6.983a6 6 0 0 1 2.711-.641 6.05 6.05 0 0 1 5.442 3.366l8.884 17.757.003.017.139.303a6.1 6.1 0 0 1 .554 1.769l.024.144a8 8 0 0 1 .049.672q-.01.123-.01.226a2 2 0 0 0-.012.232 4.6 4.6 0 0 1-.086.722l-.046.14-.003.135c-.419 2.115-5.091 25.638-10.554 48.923-3.361 14.294-6.402 25.863-9.038 34.386-4.984 16.072-7.981 19.462-12.087 20.342-1.274.276-2.654.442-4.116.619l-.365.044c-7.046.848-14.324 1.723-16.806 11.575l-.693 2.752h32.975Zm-69.225-342.808c5.586 0 10.129 4.549 10.129 10.14 0 5.586-4.544 10.129-10.129 10.129-5.592 0-10.14-4.544-10.14-10.129 0-5.59 4.548-10.14 10.14-10.14" style="fill:#000"/><path d="M60.455 166.582c-15.703 14.951-25.854 30.598-25.854 39.876 0 17.738 30.09 18.445 30.366 18.445a8 8 0 0 1 1.913.254c28.728 7.177 55.756.133 72.276-18.843 3.008-3.45 8.249-3.815 11.711-.807 3.45 3.008 3.815 8.25.807 11.711-17.306 19.861-43.326 29.393-71.78 26.905 5.175 41.259 31.682 72.144 53.257 90.91 13.823 12.031 27.712 20.933 38.262 26.651a8.305 8.305 0 0 1 4.313-9.521 8.29 8.29 0 0 1 11.125 3.716l9.013 18.014c.011.022.011.055.022.077a8.3 8.3 0 0 1 .753 2.4l.032.199c.033.343.067.686.067 1.028 0 .055-.011.111-.011.155 0 .077-.012.155-.012.232a7 7 0 0 1-.133 1.172v.044s-.011.033-.011.044-.011.033-.011.044c-.332 1.681-5.043 25.456-10.594 49.121-3.395 14.442-6.458 26.064-9.079 34.535-4.81 15.515-8.017 20.624-13.734 21.851-1.482.321-3.041.498-4.678.697-6.988.84-12.817 1.537-14.929 9.919h30.134c5.231 0 9.842-3.34 11.456-8.305 27.945-85.746 38.958-122.095 40.031-127.845-.31-3.229-4.058-13.845-8.272-23.333-1.858-4.18.023-9.09 4.214-10.948 4.18-1.858 9.079.033 10.937 4.213 2.289 5.131 9.731 22.493 9.731 30.388 0 1.194-.011 3.03-5.208 20.502 19.673 2.632 66.096 5.75 102.234.243-13.392-10.129-23.543-20.347-23.543-29.747 0-9.798 13.79-34.778 23.587-49.375 17.793-26.54 33.861-39.987 47.761-39.987 16.432 0 33.76 5.197 34.49 5.419 4.39 1.338 6.867 5.96 5.529 10.351-1.327 4.379-5.96 6.856-10.34 5.529-.156-.055-15.682-4.711-29.681-4.711-5.474 0-17.494 8.305-33.375 31.726-12.817 18.91-20.635 36.515-21.354 40.916.52 1.46 4.412 8.946 33.031 27.944 18.434 12.242 39.6 24.306 52.251 31.505 4.544 2.599 7.829 4.468 9.787 5.651a8.34 8.34 0 0 1 3.87 5.728 8.27 8.27 0 0 1-1.814 6.668l-45.029 54.042a8.32 8.32 0 0 1-6.382 2.986h-19.076a6.5 6.5 0 0 0-5.441 2.919l-5.02 7.52h41.259a5.7 5.7 0 0 0 4.28-1.924l56.972-64.083c3.705-4.18 3.97-10.461.619-14.929l-17.172-22.891a8.3 8.3 0 0 1-1.559-6.182 8.28 8.28 0 0 1 3.284-5.474c.409-.31 41.657-31.251 41.657-74.389 0-42.862-54.241-90.789-126.817-90.789H229.533a8.1 8.1 0 0 1-2.412-.365l-59.118-18.014a8.29 8.29 0 0 1-5.396-5.164c-.066-.188-6.58-18.423-17.096-34.192a8.26 8.26 0 0 1-1.271-6.06c.055-.254 4.291-24.196 8.049-51.554a9 9 0 0 1 .188-1.438c.3-2.134.586-4.302.863-6.469 5.64-43.349 5.076-59.483 4.18-65.321-2.068.675-3.915 1.935-5.629 3.837-8.35 9.278-11.988 32.235-9.245 58.487 4.025 38.693-9.897 58.863-10.494 59.704-1.591 2.245-4.014 3.804-6.79 3.749-2.709-.066-5.043-1.205-6.535-3.45-.818-.84-6.248-5.806-20.458-5.806-6.21.004-21.603 8.375-37.914 23.889m31.649-1.625c0-6.812 5.54-12.352 12.352-12.352s12.341 5.54 12.341 12.352c0 6.801-5.529 12.341-12.341 12.341s-12.352-5.54-12.352-12.341" style="fill:#000"/><path d="M49.021 154.573c-9.322 8.869-31.008 31.682-31.008 51.886 0 26.363 28.597 34.314 45.107 34.989a8.4 8.4 0 0 0-.023 1.891c5.043 48.723 35.873 84.353 60.854 105.673 19.993 17.063 41.734 29.437 54.871 34.436-7.365 36.304-16.93 75.816-21.674 85.503-.211.022-.42.044-.641.077-9.101 1.084-30.399 3.627-30.399 34.679a8.29 8.29 0 0 0 8.294 8.294h39.278a28.56 28.56 0 0 0 27.226-19.75c15.238-46.743 24.793-76.734 30.786-96.108 12.186 1.825 35.143 3.815 60.08 3.815 22.515 0 46.622-1.637 65.885-6.48 18.412 12.098 38.793 23.709 51.301 30.842.343.188.673.387 1.006.575l-36.249 43.492h-15.194a23.05 23.05 0 0 0-19.241 10.306l-13.613 20.414a8.29 8.29 0 0 0-.42 8.515 8.3 8.3 0 0 0 7.321 4.379h56.751a22.3 22.3 0 0 0 16.676-7.498l56.972-64.083c8.924-10.041 9.554-25.136 1.493-35.895l-12.417-16.554c13.237-11.722 41.944-41.823 41.944-82.429 0-26.374-15.327-53.39-42.055-74.113-27.678-21.453-63.674-33.263-101.348-33.263H230.778L176.736 181.7c-2.466-6.248-7.874-18.865-15.593-31.074 1.272-7.409 4.501-26.617 7.453-48.059 2.355-3.782 8.968-14.254 17.605-26.418 5.607-7.896 21.929-53.168 13.768-68.96C197.602 2.621 193.41 0 188.445 0c-10.494 0-18.59 5.065-23.698 9.543a10.8 10.8 0 0 0-3.33-.531c-8.449 0-16.001 3.417-21.84 9.897-5.618 6.237-18.179 25.666-13.425 71.315 2.024 19.418-1.139 33.031-3.959 40.761-5.33-2.599-13.06-4.877-23.82-4.877-14.33.001-34.888 14.698-49.352 28.465m-14.42 51.886c0-9.278 10.152-24.925 25.854-39.876 16.311-15.515 31.704-23.886 37.919-23.886 14.21 0 19.64 4.965 20.458 5.806 1.493 2.245 3.826 3.384 6.535 3.45 2.776.055 5.197-1.504 6.79-3.749.597-.84 14.52-21.011 10.494-59.704-2.742-26.252.896-49.21 9.245-58.487 1.714-1.902 3.561-3.163 5.629-3.837.896 5.839 1.459 21.973-4.18 65.321a523 523 0 0 1-.863 6.469c-.1.476-.165.962-.188 1.438-3.759 27.358-7.994 51.3-8.049 51.554a8.26 8.26 0 0 0 1.271 6.06c10.516 15.769 17.03 34.004 17.096 34.192a8.3 8.3 0 0 0 5.396 5.164l59.118 18.014a8 8 0 0 0 2.412.365h121.043c72.576 0 126.817 47.927 126.817 90.789 0 43.139-41.248 74.08-41.657 74.389a8.28 8.28 0 0 0-3.284 5.474 8.3 8.3 0 0 0 1.559 6.182l17.172 22.891c3.351 4.468 3.085 10.749-.619 14.929l-56.972 64.083a5.7 5.7 0 0 1-4.28 1.924h-41.259l5.02-7.52a6.5 6.5 0 0 1 5.441-2.919h19.076a8.32 8.32 0 0 0 6.382-2.986l45.029-54.042a8.27 8.27 0 0 0 1.814-6.668 8.34 8.34 0 0 0-3.87-5.728c-1.957-1.183-5.242-3.052-9.787-5.651-12.651-7.199-33.816-19.264-52.251-31.505-28.619-18.998-32.511-26.485-33.031-27.944.718-4.401 8.537-22.006 21.354-40.916 15.88-23.421 27.9-31.726 33.375-31.726 13.999 0 29.525 4.656 29.681 4.711 4.379 1.327 9.011-1.15 10.34-5.529 1.338-4.39-1.139-9.013-5.529-10.351-.73-.221-18.058-5.419-34.49-5.419-13.9 0-29.969 13.447-47.761 39.987-9.798 14.597-23.587 39.578-23.587 49.375 0 9.4 10.152 19.617 23.543 29.747-36.139 5.507-82.561 2.389-102.234-.243 5.197-17.472 5.208-19.308 5.208-20.502 0-7.896-7.441-25.257-9.731-30.388-1.858-4.18-6.755-6.071-10.937-4.213-4.191 1.858-6.071 6.768-4.214 10.948 4.214 9.488 7.962 20.104 8.272 23.333-1.073 5.75-12.087 42.099-40.031 127.845a12.02 12.02 0 0 1-11.456 8.305H143.55c2.112-8.382 7.941-9.079 14.929-9.919 1.637-.199 3.197-.376 4.678-.697 5.717-1.227 8.924-6.336 13.734-21.851 2.621-8.471 5.684-20.093 9.079-34.535 5.552-23.665 10.262-47.44 10.594-49.121 0-.011.011-.033.011-.044s.011-.044.011-.044v-.044a7 7 0 0 0 .133-1.172c0-.077.012-.155.012-.232 0-.044.011-.1.011-.155 0-.343-.033-.686-.067-1.028l-.032-.199a8.3 8.3 0 0 0-.753-2.4c-.011-.022-.011-.055-.022-.077l-9.013-18.014c-2.046-4.103-7.022-5.761-11.125-3.716-3.572 1.791-5.286 5.806-4.313 9.521-10.55-5.717-24.439-14.619-38.262-26.651-21.575-18.766-48.082-49.652-53.257-90.91 28.453 2.488 54.473-7.044 71.78-26.905 3.008-3.461 2.643-8.703-.807-11.711-3.461-3.008-8.703-2.643-11.711.807-16.52 18.976-43.548 26.02-72.276 18.843a8 8 0 0 0-1.913-.254c-.28-.003-30.37-.711-30.37-18.448M172.94 66.118c2.156-22.625 1.992-35.143.962-42.42 2.201-2.3 6.359-5.861 11.711-6.856.299 3.417-.111 10.837-3.561 23.908-3.229 12.241-7.276 22.371-9.112 25.368" style="fill:#000"/><path d="M104.456 152.605c-6.812 0-12.352 5.54-12.352 12.352 0 6.801 5.54 12.341 12.352 12.341s12.341-5.54 12.341-12.341c0-6.812-5.529-12.352-12.341-12.352" style="fill:#000"/></svg>