<svg xmlns="http://www.w3.org/2000/svg" xmlns:xlink="http://www.w3.org/1999/xlink" xml:space="preserve" width="800" height="800" viewBox="0 0 500 500"><path fill="none" d="M0 0h500v500H0Z" style="fill:#000;fill-opacity:0"/><path d="M485.119 274.25a.9.9 0 0 0-.42.227c.144-.072.278-.154.42-.227m-1.315.671c-3.211.985-12.945.723-12.945.723s-12.358 1.85-14.548 1.92-12.565-4.717-14.778-5.378c-2.212-.66-12.634-6.906-15.6-8.272-2.964-1.367-11.858-5.47-16.328-8.25s-7.641-10.715-14.508-19.993-6.252-12.95-10.837-19.379c-4.584-6.429-15.169-17.782-22.718-25.577-7.55-7.796-25.43-18.919-25.43-18.919s-5.254-2.422-10.584-4.624l-9.06 7.07s9.497.066 23.568 6.196 17.359 17.712 29.424 29.749c12.066 12.037 25.96 35.702 37.296 47.76 11.337 12.06 23.127 15.34 40.824 20.624 17.133 5.116 27.122.87 36.224-3.65" style="fill:#000;stroke-width:1.15715"/><path d="M342.68 179.38s10.071 25.976 12.826 36.115c2.754 10.139-1.92 31.712.286 39.92s3.881 14.972 5.433 17.845 5.095 7.143 8.623 10.927 3.82 13.027 5.038 20.779c1.219 7.751-1.27 21.465.328 25.797s-1.793 4.926-2.643 8.849-2.766 4.956-4.665 6.478c-1.9 1.52-7.22 2.662-8.74.762s-5.854-.302-5.854-.302-4.332 1.597-6.794.701c-2.464-.895-3.119-6.23.635-10.732s10.061-5.186 9.514-7.118c-.547-1.931 2.156-8.832.589-12.191s-2.053-3.345-3.59-5.73c-1.536-2.387-3.302-12.07-5.325-14.44-2.022-2.372-10.538-9.894-15.038-13.647-4.501-3.754-11.434-7.43-14.004-11.731s-10.02-8.936-15.51-13.145c-5.488-4.21-13.184-16.628-13.184-16.628s12.408-38.859 13.305-41.321c.893-2.465 38.77-21.189 38.77-21.189m142.02 95.098c9.347-4.677 14.908-13.617 14.794-17.266-.115-3.648-8.211-5.584-13.135.415s-12.858 9.17-28.204 8.923a57 57 0 0 1-6.481-.462l-2.982 1.491 7.434 4.149-11.744-1.82-11.037-2.574-14.355.452c8.028 4.73 17.048 7.339 28.587 10.785 17.698 5.285 27.775.584 37.123-4.093" style="fill:#000;stroke-width:1.15715"/><path d="M371.607 301.417s-4.54-4.97-6.774-6.36-5.407-9.324-5.407-9.324l-5.883-1.275-7.505-6.337 5.86.545-2.28-2.85-3.787-4.263-3.855-6.452 4.079-9.624s.43-9.509-1.92-14.548c-2.35-5.04-1.996-40.11-1.996-40.11a480 480 0 0 0-6.14-18.1c-10.912 5.5-31.435 16.04-32.092 17.845-.896 2.463-13.305 41.322-13.305 41.322s7.696 12.417 13.184 16.627c5.489 4.21 12.94 8.844 15.51 13.145s9.503 7.979 14.003 11.732 13.016 11.276 15.039 13.646 3.788 12.054 5.325 14.44c1.535 2.386 2.023 2.37 3.59 5.73s-1.138 10.262-.59 12.192-5.76 2.616-9.514 7.117c-3.536 4.241-3.158 9.22-1.042 10.53l4.145-4.784 5.745-3.104s7.48 5.608 7.388 2.688c-.092-2.918 2.712-6.66 3.326-10.33.614-3.672.477-8.05 2.413-16.145 1.938-8.092 2.483-13.953 2.483-13.953" style="fill:#000;stroke-width:1.15715"/><g transform="translate(-51.306 -55.77)scale(1.15715)"><defs><path id="a" d="M340.48 203.214s8.703 22.449 11.084 31.211c2.38 8.762-1.66 27.405.247 34.498 1.907 7.094 3.354 12.939 4.695 15.422 1.341 2.482 4.403 6.173 7.452 9.443s3.301 11.258 4.354 17.957-1.098 18.55.283 22.294-1.549 4.257-2.284 7.647-2.39 4.283-4.031 5.598c-1.642 1.314-6.24 2.301-7.554.659s-5.058-.261-5.058-.261-3.744 1.38-5.872.606c-2.129-.774-2.695-5.385.549-9.275s8.695-4.482 8.222-6.151 1.863-7.633.509-10.536-1.774-2.89-3.102-4.952-2.854-10.43-4.602-12.479-9.107-8.55-12.996-11.793c-3.89-3.244-9.881-6.421-12.102-10.138s-8.66-7.722-13.403-11.36-11.394-14.369-11.394-14.369 10.723-33.582 11.498-35.71c.772-2.13 33.505-18.311 33.505-18.311"/></defs><clipPath id="b"><use xlink:href="#a" style="overflow:visible"/></clipPath><g clip-path="url(#b)"><path d="m371.534 330.579-5.26 3.322s-1.852 1.321-2.798 1.351-3.369 3.262-3.369 3.262l-.571 1.912 4.995-1.736s1.211-1.616 2.167-1.331 4.434.491 4.434.491l4.364-1.716zm-9.945-45.133-3.151 6.832.093 2.943-1.089 5.505-1.943 5.111-.314 3.376 4.439-6.031s2.036-2.168 1.996-3.429 1.168-2.982 1.168-2.982l.606 5.872-.261 5.058-1.168 2.983s-1.129 4.244-2.363 5.124c-.449.32-.726.801-.915 1.346-.331.953-.392 2.1-.634 2.911-.381 1.274-.013-.42-.761 2.549a56 56 0 0 0-1.089 5.505l7.536-14.545s.735-3.39 1.739-4.894 3.053-3.252 2.987-5.354l-.172-5.465-.239-7.567c-.066-2.102 1.129-4.244 1.009-8.027-.119-3.784 1.022-7.607.983-8.868s.327-2.956-.04-1.261-4.554 15.713-4.554 15.713-1.443 7.62-1.496 5.938-2.367-8.343-2.367-8.343m-17.201 28.316s1.717-12.258 2.098-13.532 1.456-7.2 1.39-9.302.668-5.491 1.009-8.027 1.93-5.531 1.93-5.531.699 8.815.805 12.178-.288 4.217-1.403 8.881-2.677 8.5-2.638 9.762l.172 5.465s-.301 3.797-.261 5.058l.093 2.943zm8.99-75.187s-.562 8.855-3.7 16.107c-3.138 7.253-5.815 15.753-5.749 17.855s-2.178 11.01-2.178 11.01l-2.31 6.806s4.952-3.102 6.895-8.213 2.992-11.877 3.359-13.572.655-5.912 1.824-8.894c1.168-2.983 3.872-10.642 5.054-13.204s3.598-6.005 4.359-8.554 3.531-8.107 3.531-8.107z" style="fill:#000"/></g></g><path d="m51.92 290.128.654.658-.028-.871c-.215.074-.428.148-.626.213m43.38-10.915c-.509-.714.63-3.185.585-4.644s-2.084-4.317-3.597-5.974-2.555-3.815-2.6-5.274c-.047-1.46.947-8.551.909-9.767-.039-1.217 4.526-10.856 4.526-10.856l-11.6-4.99-1.16.3c.806 1.85 1.465 3.66 1.823 5.28 1.704 7.736-1.317 20.005-2.151 24.414s-4.875 15.249-10.698 15.919c-4.756.547-13.625 4.472-18.564 6.216.871.095 3.993.501 4.443 1.533.525 1.201 1.088 3.618 1.088 3.618s-.167 2.44 1.78 2.378c1.946-.063 2.73 1.617 5.327-.898s4.56-2.093 6.012-2.38c1.452-.29 2.47 1.14 4.651.827 2.182-.313 5.336-.655 6.066-.678s4.667 1.313 4.667 1.313l-2.274-2.606s2.69.402 4.158.6c1.467.196 4.85-.64 4.85-.64l1.184-1.012-3.655-.128s2.105-2.745 2.81-3.497c.708-.752 1.641-2 3.518-4.25s-1.587-4.09-2.098-4.804" style="fill:#000;stroke-width:1.15715"/><path d="M351.364 203.817c-1.075-10.922-.665-9.475-4.351-22.14s-9.73-19.049-17.543-23.55-42.881-4.856-47.282-5.447-20.761 1.75-37.794 5.94c-17.032 4.189-48.727 6.65-62.022 1.957s-32.44-9.568-43.441-11.047c-10.404-1.399-56.909 11.396-72.74 13.135-11.002-.988-14.97-.693-14.97-.693-.146-4.638-1.86-14.796-8.67-9.94-6.81 4.857-9.343 12.83-9.343 12.83s-17.648 14.484-20.792 17.832c-3.144 3.35-1.88 13.987-1.88 13.987s-8.867 13.278-8.779 16.061c0 0-2.129 6.103-1.157 7.465s9.842 2.939 14.958 3.242 10.373-9.612 13.097-11.555 11.014-4.062 11.014-4.062.409 1.751.94 4.104c1.587-.762 3.174-1.315 4.684-1.6 6.378-1.204 17.94 2.141 17.188 9.477 2.917.786 5.72 1.688 7.854 3.73 1.32-.215 2.547-.177 3.733-.068 1.95 1.443 4.92 3.731 6.374 5.324 2.27 2.484.56 6.19 1.417 10.18.856 3.99 4.132 15.209 6.505 20.977s11.006 13.165 11.006 13.165 4.497 15.197 4.247 18.857-4.475 20.227-5.455 23.91c-.979 3.683-10.051 17.117-10.747 18.234s-9.793 2.135-12.677 3.321-7.136 5.338-7.044 8.257 4.117 3.156 6.66 2.71c2.542-.445 3.625-.844 3.625-.844s2.246 1.756 4.435 1.686c2.19-.07 6.921-.583 10.192-1.052 3.272-.468 4.321-1.962 7.627-1.336s5.873.91 6.944.146c1.072-.764 2.451-3.364 2.029-5.177s-.093-2.919 1.697-4.071c1.79-1.153 5.95-8.222 8.695-13.787 2.746-5.564 2.017-5.541 6.529-12.987 4.511-7.447 6.472-14.813 7.132-17.024.661-2.213 3.38-20.193 5.147-22.075l4.835 2.769-1.916-2.862 2.588 1.014.308-1.836 2.976 1.733 2.577.649-.821-2.895 5.165 1.662 1.049-1.493 3.317.99 1.47.32 5.132.568-.411-1.448 2.953 1.002 1.39-2.235 3.329 1.356s1.482.684 1.447-.411 1.014-2.589 1.014-2.589l4.094 2.428 2.942.638 4.639-3.434s-2.554.081 1.424-1.14 4.298-2.692 6.863-2.409 5.803-1.278 8.71-1.735 8.733-1.006 14.982.258c6.248 1.263 7.365 1.959 10.296 2.23 2.93.274 7.696.854 9.52.796s13.1-1.51 15.983-2.695c2.884-1.186 8.722-1.372 11.23-2.91 2.507-1.54 10.91-1.44 10.91-1.44s5.865 12.232 9.674 17.224c3.81 4.993 2.511 10.146 7.108 16.94 4.598 6.796 10.734 16.097 11.852 16.791 1.118.695.88 4.72.606 7.65-.273 2.93-.169 6.214-1.137 10.262-.968 4.047-6.36 6.774-7.01 9.35-.648 2.577-5.368 3.457-5.368 3.457s-7.65.606-9.463 1.029-7.536 4.254-8.23 5.372-1.356 3.33-.91 5.873c.445 2.542 11.367 1.467 11.367 1.467l5.416-1.997s5.506.922 7.331.864 5.439-1.267 5.439-1.267 1.79-1.152 3.625-.845c1.835.308 4.424 1.322 5.12.204s1.217-7.708 1.217-7.708 4.9-6.729 6.29-8.963 3.714-9.612 5.046-13.672a549 549 0 0 1 5.354-15.507c2.017-5.541 2.927-11.414-.072-13.875s-5.088-10.795-4.873-15.55 4.774-10.742 10.278-21.505c5.503-10.764 13.638-30.742 15.244-37.732 1.608-6.99 2.134-1.894 1.059-12.815" style="fill:#000;stroke-width:1.15715"/><path d="M46.487 181.154s-5.803 3.665-10.27 5.546c-4.469 1.882-3.696 4.295-5.728 6.1s-4.378 4.664-4.378 4.664l6.88-2.654-3.021 3.576-4.825 1.545-2.728 1.827-2.358 2.513 2.255-.246s-1.521 1.44-1.966 3.892c-.444 2.45-.352 5.407-1.726 5.973s-3.586 2.202-4.995 1.724c-1.408-.478-3.886-1.792-3.903-2.314s-2.793-.26-2.793-.26l.919 1.537-3.305.104c-.522.017-2.57 1.3-2.57 1.3l-.406 3.67 3.712 1.797s5.054.189 5.75.167 5.048.015 5.048.015 5.092-4.165 5.417-4.872 6.243-6.29 6.57-6.996 4.44-2.751 4.44-2.751l7.597-1.981s1.842-2.322 1.825-2.844c-.016-.521 2.303-4.25 2.254-5.815-.05-1.566.302-6.973.095-8.011s1.287-3.35 1.265-4.045c-.021-.694.945-3.16.945-3.16" style="fill:#000;stroke-width:1.15715"/><path d="M70.72 208.488c.225-.24-1.472-2.506-5.248-4.477-1.3-.678-3.421-5.463-2.728-12.912-.405 1.87-4.13 1.522-4.13 1.522l-.752 5.595-3.13 3.813-1.927-2.26-2.695 2.871 1.172-7-1.074-4.61-2.158 5.175-.624-5.087.116-.965c-5.187 4.166-10.229 8.526-15.5 12.548.67 3.041 1.346 6.24 1.605 7.885.581 3.696-9.374 11.902-9.88 10.526-.233-.631-2.313-1.007-4.495-1.232-.273 2.388-.672 4.761-.904 7.168l-.048.717q.4.234.796.456c2.363 1.318 4.297 3.81 6.95 6.977 0 0 5.117.303 8.212 2.758 3.065 1.528-.856-5.08-.856-5.08s4.202.797 6.29.73c-.5-1.144-1.487-2.97-1.487-2.97s5.47-3.19 6.369-4.147c.9-.957 9.12-12.59 13.698-14.592 4.58-2.002 7.885-.248 11.588-.597 0 0-4.037-2.89-3.828-3.593s4.444 1.02 4.668.781" style="fill:#000;stroke-width:1.15715"/><path d="M28.655 211.892c2.724-1.943 11.014-4.062 11.014-4.062s.448 1.92 1.017 4.445c5.395-4.612 10.932-9.214 16.629-13.643l.135-1.111s-.176-5.565-1.596-6.449-2.378-1.782-4.262-2.65c-1.885-.87-3.09-9.653-3.09-9.653l-6.809 4.857-2.13 6.103-3.607 3.363s5.028-2.48 3.71-.116c-1.318 2.362-1.723 4.232-6.317 5.77s-7.245 5.799-9.041 7.713-3.344 11.711-3.344 11.711l-4.679 5.247c4.88-.594 9.775-9.674 12.37-11.525M1.3 220.298s-1.5.28-1.2-1.24c.184-1.514 1.478-.975 1.823-1.1.343-.128 1.58-1.444 1.58-1.444s.557-.714 1.014-.96c.456-.247.845 1.018 1.004 2.406.16 1.387-1.438 2.25-1.438 2.25l-.913.493zm31.909-55.438s.113 1.737-.197 2.966-1.646 3.012-1.646 3.012l-2.89 2.18 1.75.293 1.526-1.267 1.543-.745s-1.151 2.125-1.466 3.18c-.314 1.054-1.825 2.843-1.825 2.843l-4.282 2.224-2.788 1.77-1.071 2.819-1.449 1.902-2.282 1.233.398-2.102-1.218-1.819.046-2.206s.286-1.983.274-2.33l-.037-1.16zm6.84 3.498 2.478-2.4 1.282-3.522 1.028-4.21 1.528-3.066.726.906.603 4.391.334 3.24 1.668 1.34-1.797 1.913-.203.935 1.833-.754-.202.935 1.188.89-2.297.769-.66 1.181s-2.956 1.95-3.68 1.045c-.725-.906-2.834-1.535-2.834-1.535l-.928.029-1.609.515s-1.645-.645-.957-.898c.689-.254 2.5-1.704 2.5-1.704m-22.11 23.967s1.816-.405 2.416-.685c.601-.28 1.96-1.368 1.96-1.368l1.175-1.342.4-1.144.646-1.588-4.108 2.218-2.416.685-.407.883z" style="fill:#000;stroke-width:1.15715"/><path d="m11.386 197.93 5.166-5.503s.148-2.674.593-3.269c.446-.595 3.753-2.44 4.55-2.929.797-.49 2.265-1.812 2.84-1.946s3.876-2.211 4.216-2.454 2.754-1.016 4.011-1.635c1.257-.62 2.989-.907 2.989-.907s-3.162 2.769-3.618 3.015c-.456.247-3.435 1.5-4.576 2.118-1.14.616-2.724 1.942-3.18 2.189-.457.246-1.352 1.32-2.16 1.46-.808.141-1.25.852-1.823 1.102-.572.25-1.604.63-1.945.874-.34.243-.039 2.438-.039 2.438l-.786.837z" style="fill:#000;stroke-width:1.15715"/><path d="m24.537 186.198-.796 2.376s-1.413 2.134-4.076 3.262c1.903-.409 3.28-.887 3.872-1.428.593-.542 1.177-1.342 1.177-1.342l.655-1.327.829-1.331 1.657-2.664z" style="fill:#000;stroke-width:1.15715"/><path d="m28.466 183.811.953.782-.996 1.54-.155 2.442-.395 2.217-1.445 2.018-4.101 2.451-2.533.66-2.761.783-1.47 1.207-1.67 2.257s2.611-1.823 3.18-2.189c.57-.366 2.175-.997 2.63-1.244.457-.246 2.313-.305 3.576-.693 1.265-.388 2.736-1.595 2.736-1.595l2.71-2.406 1.449-1.903s-.269-1.152-.081-2.55c.187-1.398.615-2.572.832-3.043s.782-.954.771-1.301c-.01-.347.76-1.649.76-1.649zm-6.111 15.977-.094.014c-.62.148-2.699 1.4-3.548 2.305-.898.957-2.333 3.323-2.333 3.323l-.959 2.7-2.365 2.28s2.75-1.132 3.76-2.209c1.01-1.076.638-1.877 1.18-3.054.544-1.178 1.674-2.142 1.895-2.498.221-.355 5.213-3.994 5.213-3.994l-1.97.062zm15.773-29.774s2.048-1.283 4.086-2.915c2.037-1.631 2.193-2.244 2.434-2.861s.692-2.894.743-4.027.527-2.628.69-2.98c.163-.354.215 1.297.344 2.6.128 1.301-.081 2.961-.081 2.961s-.321.881-.4 1.145c-.078.264.758-.808.758-.808s.62.329-.04 1.481l-.66 1.153 1.476-.133-1.274.997 1.237.57-2.332.597 1.27 1.614s-1.917-.027-2.544-.616c-.532-.33.558 1.115.558 1.115s-1.683-.905-2.028-.807-1.03.468-1.285.65c-.256.183-.468.828-.964.698-.498-.13-1.973.005-1.973.005zm11.895-14.737s1.829 8.298 1.356 9.88c-.472 1.581-.16 5.924-.16 5.924l-.434 2.8-2.004 2.673s2.733-1.653 3.743-2.73c1.01-1.075 1.103-3.69 1.03-5.95-.07-2.262-.266-2.951-.657-4.332-.392-1.38-.616-2.94-.822-3.978-.208-1.038-2.052-4.287-2.052-4.287" style="fill:#000;stroke-width:1.15715"/><path d="M59.539 182.83s.754 1.834 2.21 3.877c1.458 2.044 1.756 4.123 2.256 5.268.13.298.281.755.438 1.276q.925-.671 1.854-1.334c-1.175-5.268-1.913-7.74-2.816-9.211-.979-1.594-3.624-4.528-4.125-5.672s-1.734-3.428-2.711-5.021c-.98-1.595-4.553-4.5-4.553-4.5l-.317 4.652s1.778 4.819 2.981 6.174 4.783 4.492 4.783 4.492" style="fill:#000;stroke-width:1.15715"/><path d="M57.703 182.635c-.574.387-1.151.766-1.72 1.16.125.463.229.832.295 1.01.253.688 1.828 6.442 1.828 6.442s.414 5.79.444 6.717c.03.928-.134-11.602-.134-11.602s.198.532-.713-3.727" style="fill:#000;stroke-width:1.15715"/><path d="M51.945 183.07c.365.51.903 1.016 1.642 2.385l1.48 2.74s-1.54-4.652-1.737-5.343c-.195-.69-.571-1.549-.571-1.549l2.164 2.37s.413 2.075 1.506 3.607 1.985 2.201 2.73 3.743c.745 1.544 1.485 2.913 1.85 3.423.12.172.27.582.413 1.044l.29-.217c-.14-1.01-.34-2.172-.602-3.094-.588-2.07-1.333-3.613-2.252-5.151s-2.023-3.418-2.572-4.271a85 85 0 0 0-1.642-2.386s2.136 1.5 3.403 3.026 2.376 3.581 2 2.722c-.374-.858-2.028-3.591-2.414-4.798s-1.306-2.744-1.67-3.255c-.365-.51-1.783-1.337-1.783-1.337l-1.06-.49-1.74.056 1.812 2.206-2.61.082s-1.906.293-2.083.182-1.063-.606-1.585-.588c-.522.016-2.082.24-2.604.256-.521.016-1.554.396-1.554.396s4.039 1.092 5.626 1.737c1.59.652 3.199 1.994 3.563 2.504m5.92 15.136q.612-.475 1.228-.948l-.27-.303c-.902-1.016-3.554-2.325-3.554-2.325s1.81 2.206 2.18 2.89c.105.194.254.43.416.686m.667 6.547c-.196-.69-.57-1.548-.762-2.065-.19-.518-1.44-1.522-1.978-2.027s-.762-2.065-.784-2.76c-.022-.696-.593-2.245-1.158-3.62-.566-1.375-1.6-6.565-1.6-6.565l-.595-.78c-.634.48-1.258.972-1.884 1.462.16.782.317 1.722.437 2.631.03.215.048.443.068.671l-.44 1.707s-.034.26-.08.684c-.145 1.32-.419 4.235-.234 5.94.111 1.02.26 2.14.427 3.177.07 2.309.342 4.603.677 6.896.105.722 1.164.486 1.208-.163.166-2.49.398-4.973.609-7.458l.14-.114-.09-.465.084-.988c.033-.412.087-.829.145-1.249.44 1.127.824 2.074 2.013 2.361 1.695.41 3.996 3.414 3.996 3.414s-.004.002-.2-.689m-22.98-28.13s3.021.137 3.381.474-.607 2.805-.607 2.805l-.635 1.993.179 1.967-.604 2.92 2.043-1.456.63 1.605-.289 1.866s.037 1.16-.184 1.515c-.22.355-.778 1.069-.847 2.58s-.054 1.974-.039 2.438.49.798.175 1.852-.358 3.376-.579 3.732c-.22.355 1.532-2.95 1.944-4.588.413-1.638-.106-3.363-.004-3.83s.959-2.7 1.046-3.632.192-1.283.495-2.684c.304-1.403.29-1.867.735-2.46.445-.595.887-1.306.887-1.306l-3.332 1.034.245-3.258s.517-1.989.503-2.453c-.013-.464.533-1.525.521-1.873-.01-.347.446-.595-.029-.927-.474-.332-3.17-1.177-3.17-1.177l-2.503 1.588s-1.112 1.543-2.025 2.036c-.914.494 2.063-.76 2.063-.76" style="fill:#000;stroke-width:1.15715"/><path d="M49.172 191.969c-.46-2.944-.486-6.005-.726-8.977-.076-.958-1.627-1.343-1.81-.246-.464 2.758-.785 5.573-1.385 8.306-1.95.932-2.952 1.876-3.421 3.776l-.143.118.063.175c-.078.376-.14.786-.184 1.242-.224 2.283-2.809 4.052-4.874 5.997-.205.076-4.17 1.566-6.371 3.444-2.26 1.928-5.456 3.654-6.774 6.016s-5.36 6.668-7.628 8.365c-2.268 1.696-15.32.018-15.32.018.972 1.362 9.842 2.94 14.957 3.243 1.533.09 3.075-.744 4.56-1.996-.111 1.132-.049 2.284.44 3.07 1.406 2.26 4.13 1.52 5.808.085 4.602-3.937 9.84-9.353 11.282-15.38.073-.304.08-.587.04-.851a73 73 0 0 1 1.983-.544s.296 1.27.71 3.093c-.227 1.809-.693 3.717-.322 5.518.08.392.637.427.826.108.95-1.608 1.115-3.62 1.497-5.428l.081-.353.56-.476a81 81 0 0 0 .482 3.466c.033 1.02.068 2.022.084 2.248.036.499-.074 1.834-.277 2.291-.203.458-.807 1.09-1.27 1.625s-.86 2.805-.86 2.805l1.606-1.443.765-.852 2.106-1.478s-.34-2.277-.09-3.71a4.4 4.4 0 0 0-.05-1.861c.849-3.256 1.84-7.131 1.417-10.517.053-.713.1-1.422.18-2.11.237-2.047.425-4.098.578-6.153q.261-.12.498-.225c.924-.41 1.118-1.539.982-2.41m-31.39 34.439 1.418.826m4.028-40.217s-.198 1.859-.575 2.092-1.89 1.097-1.89 1.097l-1.088.035s1.133-.702 1.38-1.007.941-.622.941-.622l.097-.966.483-.978z" style="fill:#000;stroke-width:1.15715"/><path d="m21.009 188.4.05-.235-1.258.562.037 1.159.184.343.921-.26.277-.416zM3.96 214.102c-.464-.083-.875-.186-1.34-.024-.468.164-.947.495-1.306.835-.342.325-.608.74-.7 1.206-.075.38-.064 1.004.137 1.355.416.725 1.39-.03 1.805-.395.331-.291.554-.677.871-.981.324-.311.57-.702.803-.969.278-.316.218-.94-.27-1.027m23.172-2.792c-.03-.172-.245-.273-.4-.227-2.12.626-3.684 3.83-5.077 5.438a47 47 0 0 1-3.06 3.187c-.851.814-1.651 1.38-2.042 2.502-.11.317.189.75.54.71 2.464-.285 4.851-3.34 6.397-5.083 1.44-1.625 4.04-4.21 3.642-6.527m-2.648 6.408q.281-.294.59-.612c-1.112.56-2.272.981-3.468 1.34-1.215.908-2.496 1.741-3.81 2.4.516.6 1.27 1.005 1.996 1.351.922.44 1.904.807 2.856 1.178a.52.52 0 0 0 .393.001c-.492-.546-.91-1.18-1.341-1.769-.221-.302-.173-.639.008-.901-.024-.043-.052-.08-.076-.124 1.086-.857 2.06-2.031 2.852-2.864m5.62-5.4c-2.418 2.218-5.315 4.565-8.362 6.096.587.685 1.45 1.148 2.278 1.543 1.053.5 2.177.921 3.263 1.346a.6.6 0 0 0 .45 0c-.56-.623-1.04-1.347-1.532-2.02-.252-.345-.196-.729.01-1.03-.028-.048-.06-.09-.087-.14 1.239-.98 2.351-2.322 3.256-3.273 1.598-1.68 3.97-3.892 4.627-6.166a.6.6 0 0 0 .01-.268c-1.254 1.407-2.613 2.72-3.913 3.911m-5.461-39.295 3.716-3.6 2.493-1.935s1.1-1.892 1.445-2.018c.344-.127 1.442-2.135 1.442-2.135l2.484-5.882 2.786-3.685 4.673-2.701s-4.51 4.204-4.828 5.142-1.489 4.34-1.489 4.34l-.803 3.972-1.55 2.37.392 1.38.761 2.066-1.659-1.109-2.09-.05.623 1.374-1.642-.529-2.851 1.6-1.67 2.257-2.163 1.345s-1.144.5-1.931 1.337c-.786.837-1.945.874-1.945.874l3.137-3.58zM4.839 216.647l1.184.718.262.977.083.752-.547 1.063s1.593-1.037 2.116-.995 1.982.285 2.153.222c.173-.064 1.742.003 2.72-.26.977-.263 2.251-.362 2.302-.595.051-.234 1.94-1.048 1.875-1.278s1.576-1.559 1.628-1.734 1.06-1.368 1.06-1.368-1.817 1.276-2.676 1.651c-.858.375-2.8 1.366-2.97 1.487-.17.122.765.324.765.324l-.913.493s-.06-.057-1.857 0-3.467.457-3.705.29c-.239-.166-1.17-.253-1.17-.253l-.812-1.832s-.181-.227-.358-.337-1.378.45-1.378.45l-.439.827z" style="fill:#000;stroke-width:1.15715"/><g transform="translate(-51.306 -55.77)scale(1.15715)"><defs><path id="c" d="M347.984 224.333c-.929-9.439-.574-8.188-3.76-19.133-3.186-10.946-8.409-16.462-15.16-20.352s-37.058-4.196-40.861-4.707-17.942 1.513-32.661 5.133-42.11 5.747-53.599 1.691c-11.49-4.056-28.034-8.268-37.542-9.546-8.991-1.209-49.18 9.848-62.861 11.351-9.508-.854-12.937-.599-12.937-.599-.126-4.008-1.607-12.787-7.492-8.59s-8.075 11.087-8.075 11.087-15.251 12.517-17.968 15.411-1.625 12.087-1.625 12.087-7.662 11.475-7.586 13.88c0 0-1.84 5.274-1 6.451s8.505 2.54 12.926 2.802 8.965-8.307 11.319-9.986 9.518-3.51 9.518-3.51 2.32 9.956 2.822 13.15-8.101 10.285-8.539 9.095c-.439-1.19-8.467-1.338-8.467-1.338l-1.928 2.468 2.08 2.341s2.255 1.534 4.297 2.673 3.715 3.293 6.007 6.029c0 0 4.421.262 7.096 2.384 2.649 1.321-.74-4.39-.74-4.39s3.632.688 5.436.631c-.432-.989-1.285-2.567-1.285-2.567s4.727-2.757 5.504-3.584 7.881-10.88 11.839-12.61c2.109-.922 3.904-.921 5.606-.765 1.686 1.247 4.252 3.225 5.509 4.601 1.961 2.147.484 5.35 1.224 8.798s3.571 13.143 5.622 18.128 9.511 11.377 9.511 11.377 3.886 13.133 3.67 16.296-3.867 17.48-4.714 20.663c-.846 3.183-8.686 14.792-9.287 15.758s-8.463 1.845-10.956 2.87-6.167 4.613-6.087 7.135 3.558 2.728 5.755 2.343 3.133-.73 3.133-.73 1.941 1.517 3.833 1.457 5.981-.504 8.808-.909 3.734-1.696 6.591-1.155 5.075.787 6.001.126c.926-.66 2.118-2.907 1.753-4.474-.365-1.566-.08-2.522 1.467-3.518s5.141-7.105 7.514-11.914 1.743-4.789 5.642-11.224 5.593-12.801 6.164-14.712c.571-1.912 2.921-17.45 4.448-19.077l4.178 2.393-1.656-2.473 2.237.876.266-1.586 2.572 1.497 2.227.561-.71-2.502 4.464 1.437.906-1.291 2.867.856 1.271.276 4.434.491-.355-1.251 2.552.866 1.201-1.932 2.877 1.172s1.281.591 1.251-.355.876-2.237.876-2.237l3.538 2.098 2.542.551 4.009-2.967s-2.207.07 1.231-.986c3.438-1.055 3.714-2.326 5.931-2.081s5.015-1.105 7.527-1.5 7.547-.869 12.947.223 6.365 1.693 8.898 1.928c2.532.236 6.651.737 8.227.687s11.321-1.304 13.813-2.329 7.537-1.185 9.704-2.515 9.429-1.244 9.429-1.244 5.068 10.571 8.36 14.885c3.292 4.315 2.17 8.768 6.143 14.64s9.276 13.91 10.242 14.51c.966.601.76 4.079.524 6.611s-.146 5.37-.983 8.868c-.836 3.498-5.496 5.854-6.057 8.081s-4.64 2.987-4.64 2.987-6.611.524-8.178.889c-1.566.365-6.512 3.677-7.112 4.643s-1.172 2.877-.787 5.075c.385 2.197 9.824 1.268 9.824 1.268l4.68-1.726s4.759.797 6.336.747 4.7-1.095 4.7-1.095 1.547-.996 3.133-.73 3.823 1.142 4.424.176 1.052-6.661 1.052-6.661 4.235-5.815 5.436-7.746 3.21-8.307 4.361-11.815a474 474 0 0 1 4.627-13.401c1.743-4.789 2.529-9.864-.063-11.991s-4.397-9.329-4.211-13.438 4.126-9.283 8.882-18.585 11.786-26.567 13.174-32.607c1.389-6.04 1.843-1.636.914-11.074"/></defs><clipPath id="d"><use xlink:href="#c" style="overflow:visible"/></clipPath><g clip-path="url(#d)"><path d="M125.534 285.949s.629-6.753.772-8.861 1.509-5.518 1.89-6.793c.381-1.274 2.613-3.87 2.77-5.558s1.332-4.46 1.299-5.511 1.305-5.301 1.266-6.562c-.04-1.261.925-4.027.668-5.492s-.396-5.879-.396-5.879-2.08 7.43-2.244 8.908.113 3.573-1.009 8.027-.478 4.854-1.489 6.149-2.219 3.016-3.034 3.883c-.814.867-1.609 2.365-2.009 3.009s-.728 3.6-1.345 4.04-1.622 1.945-2.199 3.646c-.578 1.701-2.861 9.348-2.808 11.029.053 1.682-.385 7.797-.385 7.797zm.952 43.524 8.89-11.642s1.629-1.735 2.81-4.297 1.536-4.677 2.717-7.239 3.571-6.845 4.359-8.554c.788-1.708 2.77-5.558 2.717-7.239s1.115-4.664 1.036-7.186.288-4.217.668-5.492c.381-1.274 6.298-27.13 3.806-12.744l-2.492 14.386-.629 6.753-.248 5.478-.668 5.492s-1.956 4.691-1.916 5.952-.695 4.651-1.496 5.939l-3.204 5.151c-.801 1.288-4.071 4.336-4.071 4.336s-1.996 3.429-2.797 4.717-2.823 3.876-4.505 3.929-2.036 2.168-3.257 3.469-3.217 4.73-4.452 5.611l-1.235.881zm161.621-152.38s.422 6.719 1.283 7.324 2.398 2.66 1.998 3.303c-.4.644-.202 6.95.035 7.784l1.42 5.005c.237.834.92 2.496.75 3.764s-.018 6.102-.188 7.37.015 7.153.015 7.153 2-9.952 1.981-10.583l-.133-4.204c-.053-1.682.531-3.173.465-5.275s-.079-2.522-.336-3.987-.934-2.916-.96-3.757c-.027-.841-.954-3.547-.98-4.388s.104-3.37-.343-4.197-2.602-2.443-2.628-3.284.518-3.593.051-5.051-.96-3.757-1.223-5.432-.329-3.777-.329-3.777zm41.961 2.884-1.797 9.735s-.195 7.16-.129 9.262.778 11.337.778 11.337l1.186 10.904-.996 8.447s-.261 5.058-.221 6.319.566 4.611.566 4.611l1.837-8.474s.341-2.536.288-4.217c-.053-1.682 1.443-7.62 1.443-7.62s.774-2.129.288-4.217c-.487-2.089-.186-5.885-.186-5.885l.275-4.638 1.129-4.244 1.341 2.482s.553 4.191.606 5.872.672 7.974.672 7.974-.195 7.16-.155 8.421-.221 6.319-.562 8.855-2.23 9.328-2.23 9.328l1.093 7.961-.275 4.637-.314 3.376.947 3.336.973 4.177s.735-3.39.682-5.071 1.823-8.894 1.337-10.983c-.487-2.089.576-8.434.523-10.116-.053-1.681 1.562-3.836 1.076-5.925-.487-2.089.301-3.797 1.036-7.186.735-3.39 1.128-4.244 1.456-7.2s1.195-2.142.629-6.753-.54-3.77-.712-9.235.261-5.058-.252-7.987.274-4.638-.659-7.554c-.934-2.916-1.301-1.221-2.261-4.978s-3.602-7.461-3.602-7.461-1.013-5.439-1.487-7.107l-.473-1.668-.257 18.523-.695 4.651s-.275 4.637-.221 6.319c.053 1.682-.735 3.39-.735 3.39l-.712-9.235-.119-3.784s.328-2.956.275-4.637l-.332-10.51zm-25.554 147.036s3.043-3.568 3.959-4.543 2.453-2.287 2.738-3.242 2.137-2.277 2.738-3.242c.601-.966 1.842-1.636 1.842-1.636l-.466 1.999-.646 2.77s3.674-3.588 4.275-4.553c.601-.966 2.117-2.907 2.117-2.907s2.818-.72 3.103-1.676 3.113-1.361 3.113-1.361l3.468-.109 4.995-1.736-3.09 12.09s.129 4.099-.787 5.074c-.916.976-4.61 3.933-4.875 5.519-.266 1.586-1.387 6.04-1.387 6.04l.372-8.217s1.772-3.843 1.742-4.789.236-2.532.206-3.478 1.162-3.193.216-3.163-2.237-.876-2.237-.876l-3.329 4.523-3.083 2.306-3.063 2.937s-1.842 1.636-3.428 1.371c-1.586-.266.571-1.912-1.586-.266s-6.827 3.687-7.753 4.347-2.748 2.927-4.009 2.967-6.837 3.372-6.837 3.372zm1.041-10.343s3.02-4.303 3.211-4.94 1.201-1.932 1.201-1.932 1.989-3.639 1.963-4.48.518-3.593.498-4.224 1.509-5.518 1.699-6.155 1.996-3.429 1.969-4.27 2.587-4.711 2.567-5.341c-.02-.631 3.264-3.259 3.23-4.31s2.396-4.073 2.396-4.073 2.633-3.239 2.81-4.297 2.403-3.863 2.587-4.71.998-1.715.998-1.715l-.314 3.376.31 3.146 1.551 2.476.079 2.522c.027.841.336 3.987.152 4.835s-.668 5.492-.832 6.97.526 3.35.066 2.102-1.296-7.744-1.296-7.744l-.276-2.095s.394-.854.367-1.695.591-1.281-.066-2.102-1.077-.808-1.314-1.642-.066-2.102-.066-2.102-1.792 3.213-2.593 4.5c-.801 1.288-1.379 2.989-1.379 2.989s-1.825 2.162-2.226 2.805a928 928 0 0 1-2.607 4.08l-1.142 3.823s-.63.02-.814.867-1.963 4.48-1.943 5.111-.367 1.695-.538 2.963c-.17 1.268-.735 3.39-.735 3.39s.033 1.051-.775 2.128-1.195 2.142-1.983 3.85-1.956 4.69-2.797 4.717-3.073 2.622-3.691 3.062-1.228 1.091-2.403 3.863c-1.172 2.773 2.136-5.748 2.136-5.748m-12.537-13.912c.275-1.271 2.934-7.036 4.461-8.662s2.738-3.242 3.024-4.198c.285-.956 3.684-3.272 4.255-5.184s3.93-5.489 4.836-6.78 4.905-4.573 5.486-6.17 3.329-4.523 3.614-5.479 3.359-3.578 4.265-4.869 2.728-3.558 3.329-4.523c.601-.966 2.413-3.548 2.413-3.548l-1.919 9.213-1.487 2.887s-2.137 2.277-2.413 3.548-.896 1.606-1.477 3.203-6.412 6.83-7.634 8.131c-1.221 1.301-2.552-.866-5.792 6.495s-3.81 9.273-3.81 9.273l.129 4.099c.03.946-1.447 4.148-1.733 5.104-.285.956.04 1.261-.196 3.793s.189 5.991-.697 7.912-1.062 6.345-1.062 6.345-3.183-.846-4.504-2.698-4.337-7.438-5.018-8.994c-.68-1.557-1.676-3.103-1.706-4.049-.028-.946 3.636-4.849 3.636-4.849m28.911-80.654s-.405 7.166-.766 9.071-.268 4.848-.668 5.492c-.401.644-1.556 4.047-1.936 5.321-.381 1.275-1.259 6.773-1.87 7.423s-2.52 6.812-3.335 7.68c-.814.867-3.02 4.303-3.02 4.303s-1.983 3.85-2.606 4.08-3.053 3.252-3.244 3.89c-.19.637-2.383 4.494-2.383 4.494l-.971 2.556s-1.398 2.358-1.379 2.989c.02.631-.721 3.81-.721 3.81s2.777-5.348 3.578-6.635c.801-1.288 2.423-3.232 3.421-4.947s1.792-3.213 2.396-4.073 1.622-1.945 2.626-3.449c1.005-1.504 2.042-1.958 3.034-3.883.991-1.925 2.199-3.646 2.797-4.717.597-1.071 2.443-2.602 2.817-4.087s2.173-4.487 2.1-6.799.281-4.427.248-5.478 1.398-2.359 1.162-3.193c-.237-.834.361-1.905.098-3.58s-.316-3.357-.376-5.248.144-2.109.104-3.37.558-2.332.314-3.376c-.243-1.044-.106-3.363-.35-4.407-.243-1.044-1.17-3.75-1.21-5.012s.15-1.898-.04-1.261-.129 9.262-.129 9.262zm-14.662-47.93s-3.11 11.46-4.016 12.751-2.038 5.429-1.653 7.627.504 5.981.219 6.936-1.022 7.607-1.583 9.834-1.789 13.312-2.39 14.277c-.601.966-1.663 7.311-2.894 8.297s-1.978 7.321-1.948 8.267-2.854 9.558-2.854 9.558-4.58 4.879-4.866 5.834-5.022 10.889-5.022 10.889l-3.9 6.435s-.892 1.225-1.933 2.615c-.563.752-1.169 1.552-1.702 2.234-1.517 1.941-4.647 12.771-4.677 11.825s11.819-15.522 12.41-16.803.896-1.606 1.762-4.158-.621.335.866-2.552.305-.325 1.487-2.887.866-2.552 2.994-5.144 2.463-1.971 3.359-3.578 1.507-2.257 2.088-3.853.551-2.542.817-4.129.787-5.074.787-5.074 2.088-3.853 2.363-5.124 1.142-3.823 1.427-4.779 1.477-3.203 1.477-3.203.886-1.922 1.152-3.508 1.132-4.139 1.092-5.4.836-3.498 1.092-5.4 1.427-4.779 1.713-5.735c.285-.956.727-6.966.727-6.966l-.604-9.133s.846-3.183 1.132-4.138.876-2.237 1.142-3.823 1.447-4.148 1.723-5.42c.275-1.271.511-3.803 1.723-5.42s4.501-7.401 4.501-7.401l1.832-1.951s-.126 6-.096 6.946-.146 5.37-.116 6.316 1.045 3.123.109 3.468-.641-.295-2.128 2.592-1.703 6.05-1.899 9.844-.116 6.316-.067 7.892l.199 6.306-.491 4.434s-1.182 2.562-1.447 4.148.129 4.099-.727 6.966-.186 4.109-.787 5.075-.305.325-1.191 2.247-2.924 7.351-2.924 7.351l-1.457 3.833s-2.363 5.124-3.269 6.415-2.649 6.08-2.649 6.08l-1.192 2.247-2.393 4.178-2.038 5.43s3.319-4.839 4.53-6.455 3.024-4.198 4.521-6.77 2.453-2.287 4.52-6.77c2.068-4.484-.02-.631 3.555-7.371s3.741-11.48 3.691-13.056.176-4.424.176-4.424.551-2.542.521-3.488.551-2.542.797-4.759.816-4.129 1.082-5.715.196-3.793.777-5.39.846-3.183 1.112-4.769 1.182-2.562 1.102-5.084-.73-3.133.146-5.37 4.195-7.076 4.471-8.347 2.118-2.907 2.008-6.375.402-7.272 2.085-13.952c1.683-6.681 3.455-10.524 3.455-10.524s-6.482 4.623-8.649 5.954-8.994 5.018-8.994 5.018-1.882.375-2.483 1.341c-.603.963-3.703 12.738-3.703 12.738m-23.72-1.566s-4.766 8.987-4.686 11.509c.079 2.522.225 7.147-.549 9.275s-2.323 6.385-1.416 8.461a835 835 0 0 0 3.168 7.054l.292 9.249c.08 2.522-.129 9.262-.076 10.943.053 1.682-1.129 4.244-1.876 7.213-.748 2.969-1.522 5.098-1.85 8.054s.513 2.929-.609 7.383l-1.122 4.454s3.611-5.584 4.226-12.758 1.863-7.633 2.939-13.559c0 0 1.306-5.301 1.496-5.938s.327-2.956.288-4.217.064-4.631.255-5.268c.19-.637.682-5.071.682-5.071s-.073-2.312-.546-3.98-.48-1.878-.526-3.35c-.047-1.471-.967-3.967-.967-3.967l-.268 4.848s-.17 1.268-.137 2.319.5 2.509.06 1.892-1.42-5.005-1.42-5.005l-.106-3.363-.33-3.777s.925-4.027.892-5.078.248-5.478.248-5.478 1.332-4.46 1.516-5.308 1.365-3.41 1.542-4.467c.177-1.058 1.339-4.25 1.693-6.365s.932-3.817.932-3.817zm-143.365 24.089 3.687 6.827c.67 1.241 3.627 4.935 3.627 4.935s1.696 3.734 2.396 5.921 1.775 6.256 2.446 7.497c.67 1.241 1.766 5.941 1.835 8.148.07 2.207.454 4.404.82 5.971.365 1.566 1.075 4.069 1.42 5.005s3.913 3.979 3.913 3.979l1.341 2.482s1.755 5.626 1.785 6.571c.03.946.83 6.286.83 6.286s-3.066-7.162-3.411-8.098-2.011-3.724-2.356-4.66-2.326-3.714-3.292-4.315-3.518-1.467-3.883-3.034-.395-2.512-1.095-4.699 1.006 1.862-1.49-7.212-1.855-8.778-2.565-11.281c-.71-2.502-.109-3.468-.79-5.025-.68-1.557-1.016-2.177-2.326-3.714s-1.341-2.483-2.346-4.345-1.961-2.147-2.021-4.039 2.602 2.443-.415-3.143-3.677-6.512-3.677-6.512zm124.709 38.147s.166 5.255-.235 5.899c-.4.644-1.799 3.002-1.982 3.85-.184.847.079 2.522.126 3.994.046 1.471.952-3.186-.321 3.166s-1.226 7.824-1.226 7.824-.374 1.485-1.005 1.505-.546-3.98-.808 1.077c-.261 5.058-.261 5.058-.241 5.688.02.631 1.491.584 1.491.584l1.668-.473 1.478.164s1.071.598 2.102-.066.427.197 1.662-.684 3.58.098 3.58.098.867.814 1.051-.033.571-1.912.761-2.549.401-.644.788-1.708.374-1.485.768-2.339l.394-.854s-1.609 2.365-2.666 2.188c-1.058-.177-1.254.25-1.892.06s.427.197-.637-.19l-1.064-.387s-.487-2.089-.533-3.56-.073-2.312.117-2.949.584-1.491.347-2.325-1.341-2.483-1.341-2.483-.701 4.441-.697-2.082.412-6.956.385-7.797.144-2.109.111-3.16.177-1.058-.31-3.146-.927-2.706-.96-3.757.407-.434-.283-2.306-2.038-4.565-2.038-4.565l.336 3.987s-.164 1.478.099 3.153c.265 1.674.975 4.176.975 4.176m-4.128-54.154.83 6.286s.365 1.566 1.351 2.798.936-.345 1.646 2.157 1.765 5.941 2.12 7.192 1.39 4.059 1.42 5.005.504 5.98.219 6.936.179 5.675.179 5.675c.906-1.291 2.008-6.376 1.633-8.257-.375-1.882-.375-1.882-.435-3.773s.166-4.739.136-5.685.265-1.586-.119-3.783c-.385-2.197 1.321 1.852-.445-4.089-1.765-5.941-2.111-6.877-2.456-7.813s-.72-2.818-.76-4.079.186-4.109.186-4.109l.226-2.848zm-29.039 3.231 2.748 7.067.934 2.916 2.695 5.385 2.695 5.385s.182-7.58-1.119-8.802-1.381-3.744-1.381-3.744l5.111 1.943 1.761 2.469 4.323 3.651 6.903 18.719s1.026 5.859 1.487 7.107c.46 1.248 1.433 5.425 1.433 5.425l1.434 5.425.513 2.93s.615-7.173.102-10.103-1.013-5.438-1.526-8.368c-.513-2.929-1.066-7.12-1.146-9.642l-.239-7.567c-.079-2.522-1.013-5.438-2.774-7.908-1.761-2.469.027.841-1.761-2.469s-2.195-2.876-3.089-4.531-2.168-2.036-2.642-3.704-2.668-4.545-3.562-6.2-1.327-2.062-3.509-4.518-3.496-4.098-3.496-4.098zm6.951 36.917s-1.288 9.193-.913 11.075.78 4.709 1.135 5.961c.355 1.251.839 6.601.839 6.601s.79 5.025.839 6.601c.05 1.576 1.065 3.754 1.065 3.754l2.356 4.66 1.971 2.463s-1.726-4.68-2.486-8.758c-.76-4.079-.494-5.665-.574-8.188-.08-2.522.196-3.793.136-5.685s.216-3.163 1.102-5.084c.886-1.922 2.058-4.799 2.058-4.799l.524 6.611-.541 2.857s-.896 1.606-.206 3.478 1.46 6.266 1.46 6.266l-.116 6.316s.109 3.468.465 4.719c.355 1.251 1.331 2.167 1.065 3.754-.266 1.586-1.142 3.823-1.092 5.4l.109 3.468c.04 1.261.365 1.566.1 3.153-.266 1.586-.156 5.055-1.052 6.661s-1.328 7.932-1.328 7.932 3.09-12.09 3.532-18.101.777-5.39 1.613-8.888c.837-3.498 1.427-4.779 1.387-6.04s-.06-1.892-.464-4.719c-.405-2.828-1.155-6.591-1.214-8.483-.06-1.892-.829-6.286-.879-7.862s-.455-4.404-.514-6.296c-.06-1.892-.464-4.719-.524-6.611s-.109-3.468-.81-5.655c-.7-2.187-1.075-4.069-1.115-5.33s.491-4.434.442-6.01c-.05-1.577-2.336-4.029-2.336-4.029s-.618 10.435-.893 11.706c-.276 1.271-.491 4.434-.491 4.434l-1.457 3.833-.551 2.542s-.156 5.055-.531 3.173-.504-5.98-.534-6.926.236-2.532.196-3.793l-.099-3.153zm-26.486-39.246.358 11.35-.146 5.37s.129 4.099.8 5.34c.67 1.241 2.031 4.354 2.031 4.354s1.726 4.68 2.386 5.606 1.736 4.995 1.736 4.995l.405 2.828s.983-8.868.618-10.434-3.017-5.586-3.066-7.162c-.05-1.576.531-3.173.491-4.434s.846-3.183.807-4.444l-.04-1.261 1.41 4.69.72 2.818.827-3.813s2.316 3.398 3.667 6.196 2.346 4.344 1.49 7.212a41.4 41.4 0 0 0-1.623 8.572c-.226 2.848-.077 7.577.288 9.143s1.765 5.941 1.765 5.941 1.085 4.384 1.125 5.645 1.795 6.887 1.795 6.887-.541 2.857-.481 4.749.474 5.035.524 6.611.189 5.991-.096 6.946 1.743-4.789 1.978-7.321c.236-2.532.727-6.966.697-7.912s1.291.906.126-6c-1.165-6.907-2.15-8.138-2.23-10.66s-.454-4.404-.534-6.926-.69-1.872-.465-4.719c.226-2.848.561-2.227.471-5.065s.481-4.749.382-7.902c-.1-3.153 1.172-2.877.126-6s-.7-2.187-1.4-4.374-1.125-5.645-1.125-5.645l-.886 1.922-.551 2.542s-1.261.04-1.941-1.517-1.951-1.832-2.622-3.073-.355-1.251-1.981-2.778-2.562-1.182-2.917-2.433-.986-1.231-1.37-3.428-.72-2.818-1.44-5.635c-.72-2.818-2.101-6.562-2.101-6.562zm-14.308 12.704 3.278 7.003s1.019 3.742 1.919 4.962c.9 1.221 2.279 3.682 2.279 3.682s-1.177-7.102-1.697-9.183c-.519-2.081-.92-1.641-1.879-4.122s.44.4-.959-2.481-3.599-4.883-3.599-4.883.639 4.602.658 5.022m6.205 87.282s.695-4.651 1.496-5.938 3.73-1.801 3.73-1.801l2.482-1.341 2.443-2.602-5.045.159 3.691-3.062c.761-2.549.708-4.23 1.062-6.345s3.217-4.73 2.744-6.399-1.381-3.744-1.447-5.846l-.172-5.465c-.053-1.682-.54-3.77-1.079-7.54-.54-3.77.854.394-.54-3.77s-2.301-6.24-2.787-8.328c-.487-2.089-.46-1.248-.566-4.611s-.513-2.929-.566-4.611-1.04-6.279-1.04-6.279 2.026 10.877 3.38 13.78 2.748 7.067 3.628 8.302c.881 1.235.92 2.496 1.867 5.832.947 3.337 1.407 4.585 2.314 6.66s1.894 6.673 1.894 6.673-.301 3.797-1.102 5.084c-.801 1.288-.261 5.058-.261 5.058l-1.049 6.766 3.257-3.469 3.757-.96s-2.496.92-3.23 4.31l-.735 3.39-2.009 3.009s-.42.013-2.009 3.009-1.522 5.098-2.77 5.558-5.279 6.058-5.279 6.058l-2.416 3.443-3.691 3.062-6.319-.221zm-5.423-58.531.494 5.665s.445 4.089.79 5.025 1.43 5.32 1.43 5.32l1.085 4.384 1.726 4.68 1.065 3.754.425 3.458.72 2.818s-.279-8.828-.999-11.646-1.45-5.951-1.815-7.517-.415-3.143-.79-5.025-.435-3.773-.8-5.34.176-4.424-.179-5.675-.72-2.818-1.065-3.754-1.4-4.374-1.4-4.374-.395-2.512-.74-3.448c-.345-.937.053 11.675.053 11.675m-17.266-47.112.544 7.242.119 3.783 1.361 3.113.415 3.143 2.167-1.331.375 1.882 1.045 3.123s1.941 1.517 1.981 2.778 1.095 4.7 1.775 6.256 1.46 6.266 1.46 6.266l1.43 5.32s-.514-6.296-.564-7.872-1.775-6.256-2.16-8.453-.445-4.089-.81-5.655c-.365-1.567-1.035-2.808-1.716-4.364-.68-1.557-.996-1.547-1.351-2.798l-.355-1.251-1.557.68s-1.006-1.862-1.035-2.808l-.06-1.892-.08-2.522c-.05-1.576 1.132-4.139 1.132-4.139l-.06-1.892zm5.736 71.777 1.745 5.31.72 2.818.551-2.542 1.331 2.167.415 3.143.09 2.838.119 3.783.099 3.153s.641.295 1.132-4.139 1.102-5.084.382-7.902-.385-2.197-1.075-4.069.641.295-.69-1.872-2.632-3.389-2.632-3.389-.65-.611-.996-1.547c-.345-.936-1.371-3.428-1.371-3.428s-2.306-3.083-2.652-4.019c-.345-.936-1.301-1.221-1.961-2.147s-1.626-1.527-1.626-1.527l3.076 7.477 1.341 2.482zm-3.212-31.775s-.511 3.803.849 6.917 2.071 5.615 2.071 5.615.77 4.394 1.115 5.33 2.376 5.29 2.376 5.29l1.085 4.384s-1.214-8.483-1.599-10.68-.445-4.089-.81-5.655-.77-4.394-1.125-5.645-1.371-3.428-1.736-4.995l-.73-3.133c-.365-1.567-1.706-4.049-1.706-4.049zm-28.264-42.241s1.88 6.253 4.469 8.275 2.589 2.022 3.916 4.084 2.261 4.978 3.562 6.2c1.301 1.221 3.075 4.111 3.956 5.346s2.274 5.399 2.274 5.399l4.221 13.753 1.381 3.744s-.783-4.814-1.303-7.954-1.907-7.093-2.624-9.806-.329-3.777-1.44-5.635c-1.111-1.859-1.538-2.055-2.859-3.907s-2.622-3.073-3.082-4.321-.69-1.872-1.788-3.31c-1.097-1.438-1.984-2.883-2.648-3.914s-1.084-1.018-1.951-1.832-.861-.604-1.104-1.648-.31-3.146-.757-3.974c-.447-.827-.52-3.14-.52-3.14l-.243-1.044zm13.043 79.963s5.531 1.93 4.77 4.478-1.076 5.925 1.053 6.7 2.628 3.284 2.628 3.284l-2.416 3.443-1.602 2.575c-.801 1.288-.735 3.39-.735 3.39l-.748 2.969s3.283-2.628 4.939-3.522c1.655-.894 4.571-1.827 4.571-1.827l2.85-3.036s4.151-1.814 2.89-1.774-5.939-1.496-5.939-1.496l1.142-3.823-3.396-.945-.914-2.286s.934 2.916-.907-2.075l-1.841-4.992-1.748-2.049-1.695-.367c-2.549-.761-4.27-1.969-4.27-1.969l-2.168-2.036zm-34.979-68.33s2.011 3.724 5.934 8.019 5.775 2.974 6.976 1.042 4.454 1.122 5.814 4.235-.04-1.261 2.781 8.118.239 7.567 4.852 13.734 4.653 7.428 6.664 11.152 6.604 9.26 7.294 11.132 7.374 13.654 7.374 13.654-8.874-21.181-11.595-27.407-3.392-7.467-6.783-14.935-2.13-7.507-4.141-11.231-1.46-6.266-3.451-9.359-1.241.67-4.829-3.004-9.65-2.431-10.422-3.564-6.468-1.586-6.468-1.586m-.213 33.25s-.177.742-.135 2.107c.063 2.057.625 5.528 3.042 10.004 4.022 7.448 6.35 14.528 7.717 17.851s2.341 7.501 2.013 10.457c-.327 2.956-3.058 9.775-3.779 13.585s-.642 6.332-.956 9.709-.983 8.868-.983 8.868 1.837-8.474 4.081-17.382 3.952-8.12 4.554-15.713c.602-7.594 3.085-8.934-1.318-15.107s-6.584-8.629-8.372-11.939-3.115-5.372-3.615-7.881-1.053-6.7-1.947-8.355m-20.413-23.447c.966.601 1.676 3.103 5.529 5.191s6.366 1.693 8.977 4.451 2.967 4.009 4.918 5.841 3.282 3.999 3.943 4.925c.66.926-1.361-3.113-3.362-6.522s-1.756-5.626-4.998-8.364-3.518-1.467-6.405-2.954-3.558-2.728-5.154-3.309-5.104-1.733-5.104-1.733zm-14.394 3.925s.435 3.773 3.617 4.62 5.775 2.974 7.696 3.86 4.879 4.58 7.746 5.436 2.247 1.192 3.972 5.871 2.051 4.985 3.856 12.187.929 9.439 1.954 11.931c1.026 2.492-1.772 3.843-2.284 7.646s-.146 5.37-.146 5.37.521-3.488 1.683-6.681 1.772-3.843 2.639-6.395.236-2.532-.919-9.124c-1.155-6.591-1.52-8.158-3.601-14.089s-2.535-10.335-5.077-10.886-1.231.986-6.365-1.693c-5.134-2.678-6.15-4.856-8.692-5.407s-3.823-1.142-3.823-1.142z" style="fill:#000"/></g></g><g transform="translate(-51.306 -55.77)scale(1.15715)"><defs><path id="e" d="M331.174 188.358s10.425 3.669 22.114 14.031 14.45 17.849 28.86 34.437 16.62 26.618 28.78 31.915 16.083 9.592 29.345 9.805 20.119-2.528 24.374-7.712 11.251-3.511 11.351-.358c.099 3.153-4.707 10.879-12.785 14.921s-16.787 8.104-32.08 3.537-25.482-7.402-35.279-17.823-21.804-30.873-32.231-41.274-13.268-20.411-25.428-25.709-20.368-5.354-20.368-5.354z"/></defs><clipPath id="f"><use xlink:href="#e" style="overflow:visible"/></clipPath><g clip-path="url(#f)"><path d="m409.969 258.356.959 10.385s3.312 4.945 4.898 5.211 3.578 3.359 4.543 3.96 5.559 6.137 6.86 7.358 6.84 6.728 6.84 6.728l5.214 5.201s-6.388-12.423-7.374-13.654-.7-2.187-2.967-4.009-3.853-2.088-5.499-4.245-3.252-3.053-4.228-3.969-1.666-2.788-2.977-4.325-1.981-2.778-1.981-2.778-.02-.631-1.351-2.798c-1.331-2.169-2.887-1.488-2.937-3.065m-17.165-3.877s1.53 8.473 1.895 10.04 2.751 7.172 2.751 7.172l3.362 6.522 3.677 6.512s-4.842-13.418-5.187-14.354-1.105-5.015-1.765-5.941-1.41-4.69-2.111-6.877c-.7-2.187-.385-2.197-1.391-4.059s-2.947-3.379-3.322-5.26l-.375-1.882s2.131 7.507 2.466 8.127m4.116-9.598 2.091 6.246.574 8.188.129 4.099 1.696 3.734 1.686 3.419s1.37 3.428 1.341 2.482-.524-6.611-.554-7.557-.129-4.099-.494-5.665-.455-4.404-.514-6.296c-.06-1.892.126-6-.564-7.872-.553-1.499-3.698-8.178-4.929-10.78l-.494-1.042zm-19.899-20.518 1.274 10.375s2.967 4.009 3.322 5.26 2.681 4.965 2.681 4.965l-.116 6.316s3.302 4.63 3.647 5.566 1.696 3.734 2.041 4.67 1.666 2.788 1.666 2.788-1.855-8.778-1.885-9.724-2.051-4.985-2.051-4.985-.415-3.143-.445-4.089.216-3.163-.139-4.414.236-2.532-.81-5.655c-1.045-3.123-1.115-5.33-1.825-7.833s-1.579-10.049-1.579-10.049l-1.202 1.932-.777 5.39-.186 4.109zm-3.599 25.994-2.545-10.65s-.129-4.099-.524-6.611-1.065-3.754-1.42-5.005-1.095-4.7-1.095-4.7l4.663 7.743 1.4 4.374s1.371 3.428 1.716 4.364 1.42 5.005 1.42 5.005l1.42 5.005s.169 5.36.534 6.926c.218.935.412 4.685.533 7.555.082 1.936.13 3.47.13 3.47zm-14.223-50.68 2.2 9.714.1 3.153 2.101 6.561 1.095 4.7.76 4.079.382-7.902s.186-4.109-.179-5.675-.129-4.099-.544-7.242-.76-4.079-1.165-6.907-.395-2.512-1.41-4.69c-1.015-2.177-2.937-3.063-3.302-4.63l-.365-1.566 1.195 7.852zm-15.037-6.469 6.319 10.216s1.155 6.591 2.456 7.813 1.135 5.961 1.49 7.212 1.934 11.301 1.934 11.301-.713-12.602-.743-13.548l-.259-8.197s-1.045-3.123-2.071-5.616c-1.025-2.493-1.095-4.7-2.12-7.192s-3.657-5.881-4.318-6.807-4.859-3.95-5.204-4.885l-.345-.936 2.791 8.433z" style="fill:#000"/></g></g><path d="M95.974 205.998c-4.555-6.31-10.548-10.919-14.678-17.734-.536-.887-1.815-.111-1.373.803 2.366 4.9 5.053 9.63 7.99 14.212 3.198 4.99 9.218 8.099 8.852 14.779-.034.638.921.897 1.213.329 2.034-3.958.45-8.988-2.004-12.389m-11.055 5.738c-.683-2.542-.683-5.103-1.24-7.629-.67-3.042-2.177-5.814-3.89-8.484-4.186-6.527-8.797-13.267-14.656-18.405-.552-.484-1.544.15-1.08.833 4.71 6.9 9.128 13.305 12.353 21.068 1.024 2.463 2.067 4.743 3.44 6.872 2.31 3.583 3.467 6.998 5.23 10.827.156.339.736.174.707-.193-.135-1.726-.411-3.207-.864-4.889m-20.64-28.042c-.5-1.207-2.476-1.195-2.452.332.17 10.593 4.054 21.535 5.505 32.065.121.882 1.633.68 1.562-.212-.809-10.25-.644-22.59-4.616-32.185m-38.021 44.474c-.872-.798-2.419-1.474-3.495-.76-.234.157-.304.582 0 .72.788.355 1.67.394 2.304 1.056.676.705.693 1.618.671 2.525-.022.978 1.386 1.123 1.666.226.42-1.34-.14-2.846-1.146-3.767m48.988-24.14q.01.08.011.164c.021.07.021.04-.011-.164m18.32-.828a23 23 0 0 0-.57-.75c.283-.39.48-.886.534-1.498.126-1.423-.344-2.356-1.113-3.023-1.4-2.855-3.4-5.417-6.906-5.649a6.7 6.7 0 0 0-2.26.214l-1.078-1.048c-.687-.808-1.535-1.035-2.345-.904a32 32 0 0 0-.9-.666c-1.638-1.148-3.181-.398-3.925.925a28 28 0 0 0-1.35-.548c-.825-.31-1.624-.154-2.293.256-.579-1.116-1.758-1.529-2.913-1.368-2.135-1.219-4.625-1.559-6.978-.173-1.165.687-1.515 1.871-1.258 2.945-.442.132-.755.66-.685 1.153.073.52.357.98.747 1.344a5.8 5.8 0 0 0-.232 1.358c-2.053-3.202-4.264-6.262-6.82-9.194-.612-.702-1.862.237-1.306 1.008 3.37 4.665 6.47 9.618 8.64 14.967.5 1.232 2.745 1.715 3.011 0 .137-.88.136-1.591.239-2.398l-.35-1.597q.813-3.976 2.05-1.633c2.294 1.008 5.325 6.807 6.908 8.754 1.148 1.41 2.923-.07 2.844-1.484-.124-.423-1.086-4.963-1.318-3.338.315-2.203 1.553-1.12 3.194-.536 3.896 1.385 7.924 4.649 11.554 6.702 1.144.647 2.767-.355 2.508-1.685 1.326.894 3.466-.634 2.372-2.134m-21.19 140.342.52.289.41.229-3.802 1.033-1.808.606-.66 2.212-1.02 2.406 3.602-1.575 2.35-.804 1.983-.793 1.054-1.311s1.448-.41.894-.576m4.173-.864-2.525.993-2.125 2.076-1.208 2.23s-.673 1.847.034 1.095 3.215-2.293 3.215-2.293l2.736-.086 2.714-.816zm196.246 4.218s-2.743-.096-2.907.457-1.042 1.677-1.042 1.677l-1.379 2.6 2.697-1.363 1.983-.793 1.83.125 1.196-2.594.154-.918zm3.323 1.174-2.89 1.004-2.142 1.529c-.536.381-.678 1.665-1.02 2.405s3.797-1.215 3.797-1.215l2.195.114 1.806-.605zm37.014-69.278c.927-1.49 11.537-4.746 11.537-4.746s3.891-.123 4.803-2.1c.912-1.976 3.8-3.04 3.738-4.987-.063-1.946-.154-4.864.255-7.312.41-2.447 1.246-6.856 1.2-8.315-.047-1.46 1.382-2.479 1.382-2.479s-.62 11.219-.088 12.663 1.204 7.266 1.204 7.266l-.82 4.894-2.812 3.497-3.845 1.582-5.243 3.575s-5.745 3.102-7.204 3.148c-1.46.047-5.807 1.157-5.807 1.157l-1.649 1.757zM70.341 340.671l-2.589 1.008-1.043 1.676-1.566 2.423 2.33-1.351 1.619-.781 1.054-1.312.513-1.111M323.626 285.4c-.319 1.47-.146 6.943.618 8.014.763 1.072 2.396 6.499 2.396 6.499s-.945 4.777-2.654 8.483c-1.71 3.705-4.42 10.364-5.058 13.307s-2.962 10.32-3.998 12.178-2.746 5.564-4.194 5.975-3.238 1.564-4.685 1.974c-1.448.411-3.25 1.198-3.25 1.198l1.94 3.59-1.779 1.518-3.66-.25-2.542.445s-.224.616-1.896 1.642c-.942.579-2.013 1.656-2.776 2.493 1.775.266 4.398.621 5.55.584 1.824-.058 5.439-1.267 5.439-1.267s1.79-1.153 3.625-.845c1.836.308 4.424 1.322 5.12.204s1.217-7.708 1.217-7.708 4.9-6.729 6.29-8.963c1.39-2.235 3.715-9.613 5.046-13.672a549 549 0 0 1 5.355-15.507c2.017-5.541 2.926-11.414-.073-13.875s-5.088-10.795-4.873-15.55c.002.001-.839 8.062-1.158 9.533m-214.42 56.432c-.219-.944-.228-1.693.059-2.36l-.162-.924s.132.306.302.653q.208-.358.554-.696a52 52 0 0 0-.572-2.523c-1.883-7.61-.877 1.124-.877 1.124s-1.796.97-2.696 1.363-2.519 1.176-3.585 2.122c-1.065.947-1.595 1.511-2.131 1.893s-2.52 1.176-3.05 1.74-3.1.098-3.654-.068c-.553-.165-3.106-.084-4.372.32a100 100 0 0 1-2.714.817s.678-1.666 1.208-2.23 1.607-1.147 1.607-1.147l2.816-3.375-1.278.04c-.547.018-1.812.422-2.525.993-.712.57-1.266.405-2.725.451-1.459.047-2.725.452-2.725.452l-3.442.838 2.114-2.44 3.648-.116 2.155-1.163s1.419-1.322.877-1.123c-.541.199-2.748-.28-3.489-.62-.41-.19-1.096-.256-1.782-.275-2.926.6-6.43 1.205-8.028 1.862-.875.36-1.875.995-2.842 1.783-.514.475-1.057.98-1.558 1.446-1.53 1.61-2.692 3.488-2.644 5.027.093 2.919 4.117 3.157 6.66 2.712 2.542-.446 3.625-.845 3.625-.845s2.246 1.755 4.435 1.686c2.19-.07 6.921-.583 10.193-1.052 3.27-.469 4.32-1.963 7.626-1.336 3.306.626 5.873.91 6.944.145 1.073-.762 2.451-3.362 2.029-5.174m190.674 8.957-2.22-.904s-2.439-.166-2.796.088c-.358.255-2.812-.398-2.812-.398s-2.075-.178-2.566-.285-2.287.804-2.883 1.188-1.82.18-2.679-.037-.87-.581-.552-2.052c.32-1.47.566-1.357.566-1.357l4.898-1.007.142-1.282 1.59-1.694 1.807-.605-.918-.154-2.195-.114-2 .246-1.26.588-2.526.992 1.773-1.7.889-.757 2.194-.77c-2.204.208-4.724.477-5.667.697-1.812.422-7.535 4.254-8.23 5.372-.694 1.118-1.356 3.33-.91 5.873.445 2.542 11.368 1.467 11.368 1.467l5.415-1.997s5.507.922 7.332.864c.588-.018 1.36-.157 2.14-.335l2.058-1.623zm25.147-183.028s-2.596 10.308 2.173 22.574 3.03 18.895 4.849 22.49c1.818 3.593 3.742 10.594 3.364 14.015-.38 3.42 1.264 9.212 1.264 9.212l-2.457 14.685s1.959-7.366 5.123-22.804 9.692-1.523 4.259-19.368c-5.433-17.846-6.597-23.895-6.257-28.532s1.823-3.953-1.233-8.239-1.46.046-3.058-4.286-3.582-9.382-3.582-9.382zm-91.696 56.943s6.414-5.072 7.842-6.092c1.43-1.018 6.278-1.659 8.193-2.692 1.915-1.035 4.71-5.018 6.9-5.087 2.19-.07 7.494-1.698 9.394-3.218s6.262-2.145 6.687-4.107c.424-1.961-2.57-4.301.758-6.84 3.328-2.54 7.552-7.543 7.552-7.543s-.742 7.327-1.638 9.79c-.897 2.463-2.72 6.417-3.13 8.864s.38-3.42-1.182 8.803-5.684 5.048-2.883 16.646c2.8 11.598 4.359 14.715 4.359 14.715s-9.327-2.384-11.442-7.673c-2.115-5.29-3.149-7.205-4.654-8.619-1.506-1.413-6.447-3.692-7.443-4.391-.996-.7-7.806-.484-7.806-.484l-9.212 1.265-7.25 1.69zm-132.441 61.88s-4.082 1.832-8.46 1.97-8.033.01-9.775-1.152c-1.741-1.163-4.683-1.801-5.655-1.77s-4.598.876-5.578.663-4.173-1.085-5.14-.812c-.964.274-2.652.815-2.652.815s2.919-.092 6.104.538 5.617.553 7.327.743 2.958 1.123 5.412 1.777c2.456.653 1.992 1.398 5.146 1.055s7.344 1.23 8.309.956c.965-.273 4.575-1.605 4.575-1.605zm39.21-30.454s-1.666-6.521-3.355-13.772c-1.69-7.25-2.627-13.794-5.638-16.621-3.01-2.827-11.336-12.06-11.336-12.06s9.554 1.89 12.519 3.258c2.965 1.367 8.78.453 13.157.315 4.377-.137 10.922-1.075 15.185-4.86 4.263-3.787 7.865-5.362 17.305-7.12 9.44-1.76 21.752-5.069 21.752-5.069s-3.51 4.493-8.502 8.303c-4.994 3.809-8.526 7.573-17.168 11.497-8.64 3.925-18.58 13.003-21.384 16.744s-8.733 1.006-8.733 1.006l1.713 7.98zm-76.158-87.316s5.305-1.628 8.71-1.735c3.404-.108 4.926 1.792 14.183 1.987 9.257.194 5.335-.655 11.112-2.786 5.776-2.13 6.186-4.577 12.965-5.765 6.778-1.187 12.662.088 16.322.337s-2.108 2.623-4.263 3.786c-2.154 1.164-6.44 4.22-8.878 7.95-2.439 3.73-4.229 4.88-8.219 5.737-3.99.856-5.53-1.651-10.319-2.961s-7.685-.488-7.685-.488 8.165 4.125 8.917 4.83c.754.708-2.906.458-6.578-.157-3.672-.614-2.461 3-8.802-1.183s-3.07-4.651-8.53-4.114c-5.46.538-8.368.994-9.85.311-1.483-.684-1.187-2.885-3.012-2.827-1.823.06 3.927-2.922 3.927-2.922m190.322 94.306c2.884-1.186 8.721-1.371 11.229-2.91s10.91-1.44 10.91-1.44 5.865 12.232 9.674 17.224c3.81 4.993 2.511 10.146 7.109 16.941.567.838 1.157 1.714 1.759 2.607.724-3.683.69-7.231-.993-9.205-4.046-4.742-2.314-11.613-2.437-15.505-.123-3.891-4.076-5.715-9.186-13.344-5.11-7.63-2.099-4.803-6.144-9.545s-2.344-12.587-2.344-12.587-2.038-2.857-5.838.184-5.9-1.76-8.818-1.67c-2.918.093-4.045-4.741-10.824-3.553-6.78 1.187-12.617 1.372-25.265 1.77s-30.006 5.816-41.59 9.104c-11.582 3.287-14.408 6.298-26.022 8.611-11.613 2.315-18.577-2.335-18.577-2.335s3.042 3.8 3.195 8.664 3.102 5.745.338 10.702c-2.766 4.956-11.353 10.583-15.106 15.085-3.752 4.501-1.137 10.261-1.045 13.18.093 2.918-1.777 5.412-1.7 7.844.078 2.432-.85 3.923-.789 5.868l.154 4.865-2.601-5.275s-.85 3.923-.804 5.382c.046 1.46-1.29 5.397-1.731 6.871s-2.781 4.47-4.118 8.408c-.818 2.41-.355 4.956.128 6.573 2.036-2.784 4.776-7.615 6.773-11.66 2.745-5.566 2.016-5.542 6.528-12.989 4.512-7.446 6.472-14.812 7.133-17.024s3.38-20.192 5.147-22.075l4.834 2.77-1.916-2.862 2.589 1.014.308-1.836 2.976 1.733 2.577.649-.822-2.895 5.166 1.662 1.048-1.494 3.318.991 1.47.32 5.131.568-.41-1.448 2.952 1.002 1.39-2.236 3.33 1.357s1.482.683 1.447-.411 1.014-2.589 1.014-2.589l4.094 2.428 2.941.638 4.639-3.434s-2.554.081 1.424-1.14c3.979-1.221 4.298-2.692 6.864-2.409s5.803-1.278 8.71-1.735c2.906-.458 8.732-1.006 14.981.258 6.249 1.263 7.365 1.959 10.296 2.23 2.93.274 7.697.853 9.52.796 1.825-.056 13.1-1.507 15.984-2.693M91.933 222.59c.684-1.482 1.686-4.435 1.595-7.353-.092-2.918-1.28-5.803-1.533-13.83-.253-8.025.545-5.859-.856-3.989-.914 1.22-1.837 2.133-2.755 3.237-3.113-1.914-6.377-3.619-9.298-5.8-1.093-.817-2.348.325-2.453 1.408-.334 3.458-6.369-2.076-6.89-2.424-1.33-.893-2.534-1.72-4.164-1.91-1.808-.208-3.67.192-4.895 1.64-2.7 3.188-.386 8.041 2.165 11.932-.864.046-1.326 1.193-.47 1.724.751.465 1.495.943 2.24 1.419-5.233-.22-10.52 1.853-14.228 6.149-.947 1.098-.916 2.405-.195 3.36-2.421.266-4.595 1.788-5.602 4.748-.251.737.791 1.075 1.19.502q3.189-5.367 8.969-.645c.508.71 1.32.975 2.125.558l6.914 3.738c-.205 1.539 2.008 2.782 3.228 1.852 2.779-2.116 5.766-3.534 9.344-2.666.822.2 1.687.671 2.572 1.11.58.514 1.104 1.01 1.505 1.449 2.27 2.484.56 6.19 1.417 10.18.305 1.421.92 3.766 1.688 6.447.368-.744.66-1.445.639-2.137-.058-1.824 2.05-4.447 7.305-11.552 5.256-7.107-.24-7.664.443-9.146m-17.865.881s8.413 12.078 10.118 19.814c1.704 7.737-1.317 20.006-2.151 24.415-.835 4.409-4.875 15.249-10.697 15.919s-17.814 6.405-21.205 7c-3.39.593-6.047 8.955-6.959 10.931-.912 1.977-1.26 6.37-.21 8.771s4.045 4.742 5.99 4.681 8.254-.748 10.564-4.715c2.31-3.968 2.611-9.821 5.044-9.899 2.432-.076-1.9 1.52 5.899 1.762 7.8.24 15.065-.962 19.913-1.602 4.85-.64 8.587-5.627 10.897-9.595s17.334-37.067 20.054-43.483c2.719-6.417-4.705-25.66-5.253-27.59-.547-1.93-3.332-13.043-5.78-13.452s-31.938 6.363-31.938 6.363zm257.844-61.285s12.063 4.246 25.59 16.236c13.525 11.99 16.72 20.654 33.395 39.85 16.674 19.194 19.231 30.8 33.302 36.93s18.61 11.099 33.957 11.346c15.346.246 23.28-2.926 28.204-8.924 4.924-6 13.02-4.063 13.135-.415.115 3.649-5.447 12.589-14.794 17.266s-19.425 9.378-37.121 4.093-29.487-8.565-40.824-20.624-25.23-35.725-37.296-47.76c-12.065-12.036-15.353-23.619-29.424-29.75-14.07-6.13-23.568-6.195-23.568-6.195z" style="fill:#000;stroke-width:1.15715"/></svg>