<svg xmlns="http://www.w3.org/2000/svg" xml:space="preserve" width="800" height="800" viewBox="0 0 512 512"><path d="m178.459 297.602-.633-1.48c-2.005-4.691-4.388-11.476-4.356-17.166l.006-1.069-.835-.669a173 173 0 0 1-16.377-14.948l-.524-.545-.75-.109a154 154 0 0 1-3.892-.621l-3.341-.576.818 3.29c1.597 6.419 4.317 16.374 7.099 25.98a6.12 6.12 0 0 1-.708 4.971l-25.242 39.661 3.319 2.854z" style="fill:#000"/><path d="m156.839 295.842-25.246 39.667 44.2-38.517c-2.178-5.098-4.567-12.098-4.534-18.047a174 174 0 0 1-16.587-15.139 156 156 0 0 1-3.948-.63c1.68 6.757 4.49 16.963 7.077 25.899a8.34 8.34 0 0 1-.962 6.767m326.86 46.39-4.61-26.693-1.058-.485c-18.21-8.348-43.043-23.772-57.942-49.845l-1.81-3.168-1.972 3.07c-3.237 5.041-7.011 9.969-11.218 14.645l-1.24 1.376 1.138 1.461c5.158 6.628 21.019 23.655 56.829 38.569 1.669.693 1.669.693 7.752 8.936a3436 3436 0 0 1 10.169 13.817z" style="fill:#000"/><path d="M418.168 266.305c-3.273 5.098-7.077 10.086-11.434 14.929 5.043 6.48 20.568 23.156 55.933 37.886 2.234.929 2.234.929 8.68 9.665 2.82 3.804 6.47 8.769 10.175 13.823l-4.412-25.545c-18.766-8.602-43.813-24.284-58.942-50.758" style="fill:#000"/><path d="m381.407 342.627-16.046-40.131c-1.118-2.798.013-6.042 2.63-7.545 2.072-1.219 50.01-29.937 50.01-74.34a6.09 6.09 0 0 1 6.083-6.082 6.09 6.09 0 0 1 6.082 6.082c0 8.707-1.592 17.509-4.733 26.162l-.286.788.309.78c13.565 34.249 47.31 51.786 66.217 59.191l4.765 1.867-1.905-4.748c-2.997-7.471-7.841-14.368-12.971-21.669-6.591-9.374-14.061-19.997-18.98-33.785-22.1-62.132-87.163-75.581-102.083-75.581-14.041 0-29.573 1.059-47.56 2.285l-.132.009c-22.038 1.517-47.014 3.236-75.057 3.236-20.826 0-45.356-7.176-71.325-14.773-23.083-6.744-46.954-13.718-70-16.276l-2.321-.258-.13 2.331a6.08 6.08 0 0 1-1.766 3.967 6 6 0 0 1-4.297 1.786 6 6 0 0 1-4.292-1.779l-8.852-8.852-7.58-7.556v5.006q-.096.323-.242.668l-.07.142a5.8 5.8 0 0 1-.962 1.466l-.155.184-24.846 24.857v15.17a6.08 6.08 0 0 1-1.78 4.291l-21.297 21.299 15.117 10.077a4.5 4.5 0 0 0 2.507.765 4.6 4.6 0 0 0 2.077-.506c17.045-8.933 29.412-14.731 34.835-16.333a6.1 6.1 0 0 1 1.71-.244 6.13 6.13 0 0 1 5.85 4.367c.938 3.219-.91 6.613-4.121 7.559-.53.148-1.178.367-2.136.723l-4.284 1.592 3.907 2.371c36.657 22.253 84.124 28.523 86.127 28.778a6.02 6.02 0 0 1 3.703 1.878c26.902 28.785 54.504 37.996 64.895 41.464 1.558.511 2.687.892 3.624 1.25a6.08 6.08 0 0 1 3.684 4.1c3.829 14.266 14.392 26.735 23.166 36.004l5.803 6.125-13.862-55.419-.294-.373c-3.947-5.003-16.902-23.137-17.906-46.421-.145-3.352 2.459-6.197 5.806-6.343l.232-.004c3.284 0 5.967 2.552 6.11 5.809.775 17.905 10.24 32.574 14.273 38.051l.56.761.939.121c9.887 1.275 21.592 1.978 32.957 1.978 9.715 0 18.84-.5 26.386-1.446l2.237-.28-.323-2.232a71 71 0 0 1-.718-10.144c0-21.538 18.085-46.75 18.854-47.813a6.12 6.12 0 0 1 4.93-2.502 6.04 6.04 0 0 1 3.57 1.16c2.708 1.972 3.312 5.786 1.344 8.501-4.597 6.305-16.533 25.911-16.533 40.655 0 19.57 8.574 30.604 18.502 43.378 7.932 10.212 16.923 21.787 20.086 38.423l.7 3.689z" style="fill:#000"/><path d="M68.89 144.466a8 8 0 0 1-1.326 2.024l-.166.199-.166.165-24.107 24.119v14.254a8.26 8.26 0 0 1-2.433 5.861l-19.385 19.385 12.872 8.581a2.29 2.29 0 0 0 2.344.133c12.153-6.37 28.143-14.398 35.22-16.488 4.402-1.283 9.014 1.227 10.307 5.618 1.283 4.401-1.227 9.013-5.618 10.306-.553.155-1.216.387-1.991.675 36.526 22.172 84.74 28.409 85.26 28.475a8.2 8.2 0 0 1 5.043 2.566c26.54 28.398 53.766 37.466 64.006 40.883 1.515.498 2.698.896 3.682 1.272a8.28 8.28 0 0 1 5.032 5.596c3.583 13.347 13.414 25.312 22.636 35.055l-11.7-46.777c-4.335-5.496-17.35-23.864-18.38-47.695-.198-4.578 3.352-8.449 7.919-8.648 4.578-.177 8.449 3.351 8.648 7.918.752 17.35 9.919 31.505 13.845 36.835 18.777 2.422 42.287 2.599 58.786.531a73 73 0 0 1-.741-10.461c0-22.349 18.49-48.026 19.275-49.11a8.306 8.306 0 0 1 11.589-1.836 8.306 8.306 0 0 1 1.836 11.589c-4.49 6.159-16.112 25.235-16.112 39.357 0 18.81 8.36 29.57 18.036 42.022 8.194 10.55 17.25 22.216 20.513 39.368l5.142-4.28-15.448-38.638a8.305 8.305 0 0 1 3.583-10.284c.487-.288 48.9-28.542 48.9-72.421a8.297 8.297 0 0 1 8.294-8.294 8.297 8.297 0 0 1 8.294 8.294c0 9.057-1.66 18.08-4.866 26.916 13.259 33.475 46.39 50.669 64.968 57.946-2.897-7.221-7.586-13.9-12.728-21.221-6.68-9.499-14.243-20.27-19.253-34.314-21.674-60.931-85.392-74.113-100-74.113-14 0-29.537 1.062-47.54 2.289-22.183 1.526-47.32 3.24-75.208 3.24-21.143 0-45.826-7.221-71.945-14.862-23.09-6.746-46.81-13.668-69.623-16.2a8.27 8.27 0 0 1-2.411 5.408 8.23 8.23 0 0 1-5.861 2.433 8.23 8.23 0 0 1-5.861-2.433l-8.847-8.847-3.804-3.793c0 .033-.022.066-.033.1-.1.376-.232.752-.387 1.117a1 1 0 0 1-.09.185" style="fill:#000"/><path d="M2.43 205.906a8.25 8.25 0 0 0-2.388 6.679 8.28 8.28 0 0 0 3.649 6.082l21.287 14.188a18.85 18.85 0 0 0 10.483 3.175c2.997 0 6.005-.709 8.747-2.145a656 656 0 0 1 12.507-6.403c24.373 17.439 55.08 27.093 76.203 32.069.232 1.36.553 2.787.907 4.313.708 3.074 1.78 7.254 3.163 12.407a1068 1068 0 0 0 3.848 13.812l-57.481 90.324H70.218a8.297 8.297 0 0 0-8.294 8.294 8.297 8.297 0 0 0 8.294 8.294H87.91a8.32 8.32 0 0 0 7-3.837l5.242-8.249 91.253-79.53a8.27 8.27 0 0 0 1.902-10.086 64 64 0 0 1-.984-2.013c13.215 7.564 24.24 11.357 30.444 13.425 6.59 19.12 21.553 34.203 32.688 45.439 3.904 3.937 8.703 8.779 9.94 10.937v17.328h-9.4a8.297 8.297 0 0 0-8.293 8.294 8.297 8.297 0 0 0 8.294 8.294h17.693a8.297 8.297 0 0 0 8.294-8.294v-35.387c0-.675-.088-1.349-.243-2.013l-14.785-59.129a294 294 0 0 0 26.064 1.161c11.125 0 21.85-.629 30.687-1.902 4.269 10.129 10.494 18.158 16.289 25.622 9.654 12.418 17.992 23.189 18.268 41.977l-25.655 21.376h-14.685a8.297 8.297 0 0 0-8.294 8.294 8.297 8.297 0 0 0 8.294 8.294h17.693a8.33 8.33 0 0 0 5.308-1.924l53.08-44.233a8.28 8.28 0 0 0 2.389-9.455l-15.15-37.864a150 150 0 0 0 13.613-10.583c7.354 8.957 24.638 25.788 59.383 40.639 4.346 5.782 19.474 26.418 29.79 40.528l-3.151 6.303h-12.562a8.297 8.297 0 0 0-8.294 8.294 8.297 8.297 0 0 0 8.294 8.294h17.695a8.3 8.3 0 0 0 7.42-4.589l8.847-17.693a8.35 8.35 0 0 0 .752-5.12l-7.874-45.505c3.738 1.195 6.126 1.793 6.613 1.902a8.26 8.26 0 0 0 7.243-1.692 8.3 8.3 0 0 0 2.975-6.823c-.962-17.572-9.964-30.377-18.666-42.763-6.37-9.057-12.95-18.423-17.185-30.344-10.516-29.548-31.372-53.334-60.301-68.805-24.151-12.916-46.755-16.322-55.336-16.322-14.564 0-31.13 1.128-48.668 2.333-21.918 1.493-46.755 3.196-74.08 3.196-18.766 0-42.342-6.889-67.29-14.199-28.895-8.449-58.731-17.151-87.903-17.804L67.232 117.44a8.28 8.28 0 0 0-9.035-1.802 8.3 8.3 0 0 0-5.12 7.663v14.254L28.97 161.673a8.26 8.26 0 0 0-2.433 5.861v14.254zm31.75 13.147-12.872-8.581 19.385-19.385a8.26 8.26 0 0 0 2.433-5.861v-14.254l24.107-24.119.166-.165.166-.199a8 8 0 0 0 1.327-2.024 1 1 0 0 0 .088-.188 8 8 0 0 0 .387-1.117c.01-.033.033-.066.033-.1l3.804 3.793 8.847 8.847a8.23 8.23 0 0 0 5.86 2.433 8.23 8.23 0 0 0 5.862-2.433 8.26 8.26 0 0 0 2.41-5.408c22.814 2.532 46.534 9.455 69.624 16.2 26.12 7.641 50.802 14.862 71.945 14.862 27.889 0 53.025-1.714 75.208-3.24 18.003-1.227 33.54-2.289 47.54-2.289 14.608 0 78.326 13.182 100 74.113 5.009 14.044 12.573 24.815 19.253 34.314 5.142 7.321 9.83 14 12.728 21.221-18.578-7.276-51.71-24.472-64.968-57.946 3.207-8.836 4.866-17.858 4.866-26.916a8.297 8.297 0 0 0-8.294-8.294 8.297 8.297 0 0 0-8.294 8.294c0 43.879-48.413 72.133-48.9 72.421-3.583 2.057-5.12 6.436-3.583 10.284l15.448 38.638-5.142 4.28c-3.262-17.151-12.32-28.818-20.513-39.368-9.676-12.452-18.036-23.211-18.036-42.022 0-14.121 11.622-33.197 16.112-39.357a8.305 8.305 0 0 0-1.836-11.589 8.305 8.305 0 0 0-11.59 1.836c-.784 1.084-19.274 26.761-19.274 49.11 0 3.705.265 7.177.74 10.461-16.498 2.068-40.008 1.891-58.785-.531-3.926-5.33-13.093-19.485-13.845-36.835-.2-4.567-4.07-8.095-8.648-7.918-4.567.2-8.117 4.071-7.918 8.648 1.028 23.831 14.044 42.199 18.379 47.695l11.7 46.777c-9.223-9.742-19.053-21.707-22.636-35.055a8.28 8.28 0 0 0-5.032-5.595c-.984-.376-2.167-.774-3.682-1.272-10.24-3.417-37.466-12.485-64.006-40.883a8.2 8.2 0 0 0-5.043-2.566c-.52-.066-48.734-6.303-85.26-28.475a27 27 0 0 1 1.99-.675c4.39-1.294 6.9-5.905 5.619-10.306-1.294-4.39-5.905-6.9-10.306-5.618-7.077 2.091-23.068 10.118-35.221 16.488a2.28 2.28 0 0 1-2.343-.131m97.413 116.456 25.246-39.667a8.33 8.33 0 0 0 .962-6.768c-2.588-8.935-5.396-19.142-7.077-25.899a156 156 0 0 0 3.948.63 175 175 0 0 0 16.587 15.139c-.033 5.949 2.355 12.949 4.534 18.047zm275.142-54.275c4.357-4.842 8.16-9.831 11.434-14.929 15.128 26.474 40.175 42.155 58.94 50.758l4.413 25.545a3466 3466 0 0 0-10.174-13.823c-6.447-8.736-6.447-8.736-8.681-9.665-35.364-14.73-50.89-31.405-55.932-37.886" style="fill:#000"/></svg>