<?xml version="1.0" encoding="utf-8"?>

<!DOCTYPE svg PUBLIC "-//W3C//DTD SVG 1.1//EN" "http://www.w3.org/Graphics/SVG/1.1/DTD/svg11.dtd">
<!-- Uploaded to: SVG Repo, www.svgrepo.com, Generator: SVG Repo Mixer Tools -->
<svg version="1.1" id="_x32_" xmlns="http://www.w3.org/2000/svg" xmlns:xlink="http://www.w3.org/1999/xlink" 
	 width="800px" height="800px" viewBox="0 0 512 512"  xml:space="preserve">
<style type="text/css">
<![CDATA[
	.st0{fill:#000000;}
]]>
</style>
<g>
	<path class="st0" d="M280.75,477.146c-0.359,0.281-0.734,0.547-1.109,0.797c-3.953,2.719-8.328,4.969-13.016,6.516
		c-4.688,1.531-9.719,2.359-14.922,2.266c-5.203-0.109-10.188-1.156-14.813-2.891c-4.609-1.734-8.906-4.172-12.734-7.047
		c-0.375-0.281-0.719-0.547-1.078-0.844c-2.688,0.109-5.328,0.125-7.859,0.063c-14.547-0.281-26.219-2.922-35.094-6.141
		c1.203,2.609,2.438,5.188,3.766,7.781c17.094,45.375,41.594,25.297,67.453,25.844c25.875,0.531,49.531,21.625,68.5-23
		c1.406-2.547,2.781-5.063,4.094-7.609c-9.031,2.828-20.781,4.984-35.344,4.672C286.063,477.49,283.453,477.365,280.75,477.146z"/>
	<path class="st0" d="M251.906,476.35c22.016,0.469,40.281-20.297,40.641-36.547c0.328-16.234-17.391-21.813-39.391-22.281
		c-22-0.453-39.938,4.391-40.281,20.625C212.531,454.396,229.906,475.896,251.906,476.35z"/>
	<path class="st0" d="M477.328,283.943L512,276.053l-80.422-141.609c0,0,4.047-101.5-15.594-124.922
		C375.75,8.678,303.531,70.443,303.531,70.443l-43.109-0.906l-43.109-0.906c0,0-69.578-64.719-109.813-65.563
		C86.906,25.646,86.688,127.24,86.688,127.24L0.438,265.365l34.297,9.328L0,331.475l57.203,6.969L44,381.287l49.75-2.797
		l-8.797,40.531c0,0,48.547-7.609,61.484-7.344c10.25,0.219,17.969,20.766,28.469,44.688c0.313,0.141,0.641,0.313,0.969,0.469
		c8.281,3.969,20.938,8.094,38.531,8.609c-3.063-3.734-5.578-7.797-7.469-11.953c-2.375-5.359-3.719-10.938-3.625-16.391
		c0.094-4.625,1.281-8.859,3.484-12.422c2.172-3.563,5.266-6.375,8.828-8.531c2.406-1.438,5-2.578,7.766-3.516
		c3.688-1.25,7.672-2.094,11.922-2.672c5.641-0.75,11.719-1,18-0.859c6.313,0.125,12.375,0.625,17.984,1.609
		c4.172,0.75,8.156,1.766,11.797,3.172c2.719,1.047,5.281,2.297,7.594,3.828c3.469,2.297,6.453,5.25,8.469,8.906
		c2.047,3.641,3.063,7.938,2.953,12.547c-0.109,5.453-1.703,10.984-4.297,16.219c-2.063,4.078-4.75,8.031-7.938,11.656
		c17.578,0.203,30.406-3.391,38.828-7c0.359-0.156,0.672-0.297,1-0.453c11.484-23.438,20.063-43.656,30.297-43.438
		c12.922,0.266,61.125,9.906,61.125,9.906l-7.094-40.875l49.594,4.859l-11.422-43.344l57.453-4.563L477.328,283.943z
		 M131.375,91.787c0,0-2.094,8.578-6.094,16.156c-15.688-29.063-1.438-69.016-1.438-69.016
		c23.844,5.281,51.844,41.328,51.844,41.328l-18.219,0.563l-6.094,16.188L131.375,91.787z M168.797,300.068
		c-9.016-0.188-16.172-7.656-15.984-16.688c0.188-9.016,7.656-16.172,16.656-15.984c9.063,0.188,16.203,7.656,16.031,16.672
		C185.313,293.1,177.844,300.256,168.797,300.068z M342.313,303.693c-9-0.188-16.172-7.656-15.984-16.688
		c0.172-9.016,7.656-16.172,16.672-15.984c9.047,0.172,16.188,7.656,16,16.672C358.813,296.725,351.375,303.865,342.313,303.693z
		 M393.813,113.553c-3.656-7.734-5.375-16.391-5.375-16.391l-20.234,4.359l-5.406-16.406l-18.172-1.328
		c0,0,29.469-34.844,53.531-39.141C398.156,44.646,410.719,85.162,393.813,113.553z"/>
</g>
</svg>